<mxfile host="Electron" modified="2023-10-12T20:17:34.086Z" agent="Mozilla/5.0 (Macintosh; Intel Mac OS X 10_15_7) AppleWebKit/537.36 (KHTML, like Gecko) draw.io/22.0.2 Chrome/114.0.5735.289 Electron/25.8.4 Safari/537.36" etag="9g4UookdjyQUCNPFbDwn" version="22.0.2" type="device" pages="2">
  <diagram name="Plano Inicial" id="c8RYVDo2UGshmz5NLSkm">
    <mxGraphModel dx="976" dy="743" grid="1" gridSize="10" guides="1" tooltips="1" connect="1" arrows="1" fold="1" page="1" pageScale="1" pageWidth="827" pageHeight="1169" math="0" shadow="0">
      <root>
        <mxCell id="0" />
        <mxCell id="1" parent="0" />
        <mxCell id="Sy_jmX8KcxQ-BNodScre-1" value="" style="rounded=1;whiteSpace=wrap;html=1;arcSize=4;imageHeight=24;dashed=1;dashPattern=1 1;" parent="1" vertex="1">
          <mxGeometry x="280" y="80" width="480" height="720" as="geometry" />
        </mxCell>
        <mxCell id="Sy_jmX8KcxQ-BNodScre-13" value="" style="rounded=0;whiteSpace=wrap;html=1;strokeColor=#E6E6E6;" parent="1" vertex="1">
          <mxGeometry x="500" y="120" width="40" height="640" as="geometry" />
        </mxCell>
        <mxCell id="Sy_jmX8KcxQ-BNodScre-14" value="" style="rounded=0;whiteSpace=wrap;html=1;strokeColor=#E6E6E6;" parent="1" vertex="1">
          <mxGeometry x="560" y="120" width="40" height="640" as="geometry" />
        </mxCell>
        <mxCell id="Sy_jmX8KcxQ-BNodScre-15" value="" style="rounded=0;whiteSpace=wrap;html=1;strokeColor=#E6E6E6;" parent="1" vertex="1">
          <mxGeometry x="620" y="120" width="40" height="640" as="geometry" />
        </mxCell>
        <mxCell id="JHuxcT3J-h0tU2cZwM6Y-173" value="" style="rounded=0;whiteSpace=wrap;html=1;strokeColor=#E6E6E6;" parent="1" vertex="1">
          <mxGeometry x="320" y="120" width="40" height="640" as="geometry" />
        </mxCell>
        <mxCell id="JHuxcT3J-h0tU2cZwM6Y-174" value="" style="rounded=0;whiteSpace=wrap;html=1;strokeColor=#E6E6E6;" parent="1" vertex="1">
          <mxGeometry x="680" y="120" width="40" height="640" as="geometry" />
        </mxCell>
        <mxCell id="JHuxcT3J-h0tU2cZwM6Y-175" value="" style="rounded=0;whiteSpace=wrap;html=1;strokeColor=#E6E6E6;" parent="1" vertex="1">
          <mxGeometry x="380" y="120" width="40" height="640" as="geometry" />
        </mxCell>
        <mxCell id="JHuxcT3J-h0tU2cZwM6Y-176" value="" style="rounded=0;whiteSpace=wrap;html=1;strokeColor=#E6E6E6;" parent="1" vertex="1">
          <mxGeometry x="440" y="120" width="40" height="640" as="geometry" />
        </mxCell>
        <mxCell id="JHuxcT3J-h0tU2cZwM6Y-182" value="" style="endArrow=classic;startArrow=classic;html=1;rounded=0;" parent="1" edge="1">
          <mxGeometry width="50" height="50" relative="1" as="geometry">
            <mxPoint x="780" y="760" as="sourcePoint" />
            <mxPoint x="780" y="120" as="targetPoint" />
          </mxGeometry>
        </mxCell>
        <mxCell id="JHuxcT3J-h0tU2cZwM6Y-183" value="16 m" style="edgeLabel;html=1;align=center;verticalAlign=middle;resizable=0;points=[];" parent="JHuxcT3J-h0tU2cZwM6Y-182" vertex="1" connectable="0">
          <mxGeometry x="0.0615" y="1" relative="1" as="geometry">
            <mxPoint as="offset" />
          </mxGeometry>
        </mxCell>
        <mxCell id="JHuxcT3J-h0tU2cZwM6Y-184" value="1m" style="endArrow=classic;startArrow=classic;html=1;rounded=0;" parent="1" edge="1">
          <mxGeometry width="50" height="50" relative="1" as="geometry">
            <mxPoint x="600" y="60" as="sourcePoint" />
            <mxPoint x="560" y="60" as="targetPoint" />
          </mxGeometry>
        </mxCell>
        <mxCell id="JHuxcT3J-h0tU2cZwM6Y-185" value="10m" style="endArrow=classic;startArrow=classic;html=1;rounded=0;" parent="1" edge="1">
          <mxGeometry width="50" height="50" relative="1" as="geometry">
            <mxPoint x="720" y="40" as="sourcePoint" />
            <mxPoint x="320" y="40" as="targetPoint" />
          </mxGeometry>
        </mxCell>
        <mxCell id="JHuxcT3J-h0tU2cZwM6Y-112" value="Supporte ao solo" parent="0" />
        <mxCell id="JHuxcT3J-h0tU2cZwM6Y-177" value="" style="rounded=0;whiteSpace=wrap;html=1;strokeColor=#6c8ebf;fillColor=#dae8fc;gradientColor=#7ea6e0;" parent="JHuxcT3J-h0tU2cZwM6Y-112" vertex="1">
          <mxGeometry x="320" y="120" width="40" height="640" as="geometry" />
        </mxCell>
        <mxCell id="JHuxcT3J-h0tU2cZwM6Y-178" value="" style="rounded=0;whiteSpace=wrap;html=1;strokeColor=#6c8ebf;fillColor=#dae8fc;gradientColor=#7ea6e0;" parent="JHuxcT3J-h0tU2cZwM6Y-112" vertex="1">
          <mxGeometry x="380" y="120" width="40" height="640" as="geometry" />
        </mxCell>
        <mxCell id="JHuxcT3J-h0tU2cZwM6Y-179" value="" style="rounded=0;whiteSpace=wrap;html=1;strokeColor=#6c8ebf;fillColor=#dae8fc;gradientColor=#7ea6e0;" parent="JHuxcT3J-h0tU2cZwM6Y-112" vertex="1">
          <mxGeometry x="440" y="120" width="40" height="640" as="geometry" />
        </mxCell>
        <mxCell id="JHuxcT3J-h0tU2cZwM6Y-180" value="Supporte ao solo:&lt;br&gt;&lt;ul&gt;&lt;li&gt;Calcario&lt;/li&gt;&lt;li&gt;Cama de galinha&lt;/li&gt;&lt;li&gt;PÃ³ de rocha&lt;/li&gt;&lt;/ul&gt;" style="text;html=1;align=left;verticalAlign=middle;resizable=0;points=[];autosize=1;strokeColor=none;fillColor=none;" parent="JHuxcT3J-h0tU2cZwM6Y-112" vertex="1">
          <mxGeometry x="30" y="700" width="150" height="100" as="geometry" />
        </mxCell>
        <mxCell id="2Ms6hGy1cNAkD8y6Jtei-11" value="" style="rounded=0;whiteSpace=wrap;html=1;strokeColor=#6c8ebf;fillColor=#dae8fc;gradientColor=#7ea6e0;" parent="JHuxcT3J-h0tU2cZwM6Y-112" vertex="1">
          <mxGeometry x="500" y="420" width="40" height="340" as="geometry" />
        </mxCell>
        <mxCell id="JHuxcT3J-h0tU2cZwM6Y-1" value="Linhas Externas" parent="0" />
        <mxCell id="JHuxcT3J-h0tU2cZwM6Y-4" value="C" style="ellipse;whiteSpace=wrap;html=1;aspect=fixed;strokeColor=#000000;" parent="JHuxcT3J-h0tU2cZwM6Y-1" vertex="1">
          <mxGeometry x="40" y="160" width="20" height="20" as="geometry" />
        </mxCell>
        <mxCell id="JHuxcT3J-h0tU2cZwM6Y-6" value="Cisal" style="text;html=1;align=left;verticalAlign=middle;resizable=0;points=[];autosize=1;strokeColor=none;fillColor=none;" parent="JHuxcT3J-h0tU2cZwM6Y-1" vertex="1">
          <mxGeometry x="70" y="155" width="50" height="30" as="geometry" />
        </mxCell>
        <mxCell id="JHuxcT3J-h0tU2cZwM6Y-7" value="M" style="ellipse;whiteSpace=wrap;html=1;aspect=fixed;strokeColor=#82b366;fillColor=#d5e8d4;" parent="JHuxcT3J-h0tU2cZwM6Y-1" vertex="1">
          <mxGeometry x="40" y="185" width="20" height="20" as="geometry" />
        </mxCell>
        <mxCell id="JHuxcT3J-h0tU2cZwM6Y-8" value="Mandacaru sem espinho" style="text;html=1;align=left;verticalAlign=middle;resizable=0;points=[];autosize=1;strokeColor=none;fillColor=none;" parent="JHuxcT3J-h0tU2cZwM6Y-1" vertex="1">
          <mxGeometry x="70" y="180" width="150" height="30" as="geometry" />
        </mxCell>
        <mxCell id="JHuxcT3J-h0tU2cZwM6Y-9" value="P" style="ellipse;whiteSpace=wrap;html=1;aspect=fixed;strokeColor=#d6b656;fillColor=#fff2cc;" parent="JHuxcT3J-h0tU2cZwM6Y-1" vertex="1">
          <mxGeometry x="40" y="210" width="20" height="20" as="geometry" />
        </mxCell>
        <mxCell id="JHuxcT3J-h0tU2cZwM6Y-10" value="Palma Forrageira" style="text;html=1;align=left;verticalAlign=middle;resizable=0;points=[];autosize=1;strokeColor=none;fillColor=none;" parent="JHuxcT3J-h0tU2cZwM6Y-1" vertex="1">
          <mxGeometry x="70" y="205" width="120" height="30" as="geometry" />
        </mxCell>
        <mxCell id="JHuxcT3J-h0tU2cZwM6Y-70" value="P" style="ellipse;whiteSpace=wrap;html=1;aspect=fixed;strokeColor=#d6b656;fillColor=#fff2cc;" parent="JHuxcT3J-h0tU2cZwM6Y-1" vertex="1">
          <mxGeometry x="689" y="150" width="20" height="20" as="geometry" />
        </mxCell>
        <mxCell id="JHuxcT3J-h0tU2cZwM6Y-71" value="M" style="ellipse;whiteSpace=wrap;html=1;aspect=fixed;strokeColor=#82b366;fillColor=#d5e8d4;" parent="JHuxcT3J-h0tU2cZwM6Y-1" vertex="1">
          <mxGeometry x="690" y="110" width="20" height="20" as="geometry" />
        </mxCell>
        <mxCell id="JHuxcT3J-h0tU2cZwM6Y-72" value="M" style="ellipse;whiteSpace=wrap;html=1;aspect=fixed;strokeColor=#82b366;fillColor=#d5e8d4;" parent="JHuxcT3J-h0tU2cZwM6Y-1" vertex="1">
          <mxGeometry x="689" y="170" width="20" height="20" as="geometry" />
        </mxCell>
        <mxCell id="JHuxcT3J-h0tU2cZwM6Y-73" value="M" style="ellipse;whiteSpace=wrap;html=1;aspect=fixed;strokeColor=#82b366;fillColor=#d5e8d4;" parent="JHuxcT3J-h0tU2cZwM6Y-1" vertex="1">
          <mxGeometry x="689.5" y="291" width="20" height="20" as="geometry" />
        </mxCell>
        <mxCell id="JHuxcT3J-h0tU2cZwM6Y-74" value="M" style="ellipse;whiteSpace=wrap;html=1;aspect=fixed;strokeColor=#82b366;fillColor=#d5e8d4;" parent="JHuxcT3J-h0tU2cZwM6Y-1" vertex="1">
          <mxGeometry x="689" y="408" width="20" height="20" as="geometry" />
        </mxCell>
        <mxCell id="JHuxcT3J-h0tU2cZwM6Y-75" value="M" style="ellipse;whiteSpace=wrap;html=1;aspect=fixed;strokeColor=#82b366;fillColor=#d5e8d4;" parent="JHuxcT3J-h0tU2cZwM6Y-1" vertex="1">
          <mxGeometry x="690" y="530" width="20" height="20" as="geometry" />
        </mxCell>
        <mxCell id="JHuxcT3J-h0tU2cZwM6Y-76" value="M" style="ellipse;whiteSpace=wrap;html=1;aspect=fixed;strokeColor=#82b366;fillColor=#d5e8d4;" parent="JHuxcT3J-h0tU2cZwM6Y-1" vertex="1">
          <mxGeometry x="690" y="650" width="20" height="20" as="geometry" />
        </mxCell>
        <mxCell id="JHuxcT3J-h0tU2cZwM6Y-77" value="C" style="ellipse;whiteSpace=wrap;html=1;aspect=fixed;strokeColor=#000000;" parent="JHuxcT3J-h0tU2cZwM6Y-1" vertex="1">
          <mxGeometry x="689" y="130" width="20" height="20" as="geometry" />
        </mxCell>
        <mxCell id="JHuxcT3J-h0tU2cZwM6Y-78" value="C" style="ellipse;whiteSpace=wrap;html=1;aspect=fixed;strokeColor=#000000;" parent="JHuxcT3J-h0tU2cZwM6Y-1" vertex="1">
          <mxGeometry x="689" y="250" width="20" height="20" as="geometry" />
        </mxCell>
        <mxCell id="JHuxcT3J-h0tU2cZwM6Y-79" value="C" style="ellipse;whiteSpace=wrap;html=1;aspect=fixed;strokeColor=#000000;" parent="JHuxcT3J-h0tU2cZwM6Y-1" vertex="1">
          <mxGeometry x="689" y="368" width="20" height="20" as="geometry" />
        </mxCell>
        <mxCell id="JHuxcT3J-h0tU2cZwM6Y-80" value="C" style="ellipse;whiteSpace=wrap;html=1;aspect=fixed;strokeColor=#000000;" parent="JHuxcT3J-h0tU2cZwM6Y-1" vertex="1">
          <mxGeometry x="690" y="491" width="20" height="20" as="geometry" />
        </mxCell>
        <mxCell id="JHuxcT3J-h0tU2cZwM6Y-81" value="C" style="ellipse;whiteSpace=wrap;html=1;aspect=fixed;strokeColor=#000000;" parent="JHuxcT3J-h0tU2cZwM6Y-1" vertex="1">
          <mxGeometry x="690" y="610" width="20" height="20" as="geometry" />
        </mxCell>
        <mxCell id="JHuxcT3J-h0tU2cZwM6Y-82" value="C" style="ellipse;whiteSpace=wrap;html=1;aspect=fixed;strokeColor=#000000;" parent="JHuxcT3J-h0tU2cZwM6Y-1" vertex="1">
          <mxGeometry x="689" y="730" width="20" height="20" as="geometry" />
        </mxCell>
        <mxCell id="JHuxcT3J-h0tU2cZwM6Y-83" value="P" style="ellipse;whiteSpace=wrap;html=1;aspect=fixed;strokeColor=#d6b656;fillColor=#fff2cc;" parent="JHuxcT3J-h0tU2cZwM6Y-1" vertex="1">
          <mxGeometry x="689" y="271" width="20" height="20" as="geometry" />
        </mxCell>
        <mxCell id="JHuxcT3J-h0tU2cZwM6Y-84" value="P" style="ellipse;whiteSpace=wrap;html=1;aspect=fixed;strokeColor=#d6b656;fillColor=#fff2cc;" parent="JHuxcT3J-h0tU2cZwM6Y-1" vertex="1">
          <mxGeometry x="689" y="388" width="20" height="20" as="geometry" />
        </mxCell>
        <mxCell id="JHuxcT3J-h0tU2cZwM6Y-85" value="P" style="ellipse;whiteSpace=wrap;html=1;aspect=fixed;strokeColor=#d6b656;fillColor=#fff2cc;" parent="JHuxcT3J-h0tU2cZwM6Y-1" vertex="1">
          <mxGeometry x="690" y="511" width="20" height="20" as="geometry" />
        </mxCell>
        <mxCell id="JHuxcT3J-h0tU2cZwM6Y-86" value="P" style="ellipse;whiteSpace=wrap;html=1;aspect=fixed;strokeColor=#d6b656;fillColor=#fff2cc;" parent="JHuxcT3J-h0tU2cZwM6Y-1" vertex="1">
          <mxGeometry x="690" y="630" width="20" height="20" as="geometry" />
        </mxCell>
        <mxCell id="JHuxcT3J-h0tU2cZwM6Y-87" value="P" style="ellipse;whiteSpace=wrap;html=1;aspect=fixed;strokeColor=#d6b656;fillColor=#fff2cc;" parent="JHuxcT3J-h0tU2cZwM6Y-1" vertex="1">
          <mxGeometry x="690" y="750" width="20" height="20" as="geometry" />
        </mxCell>
        <mxCell id="JHuxcT3J-h0tU2cZwM6Y-88" value="M" style="ellipse;whiteSpace=wrap;html=1;aspect=fixed;strokeColor=#82b366;fillColor=#d5e8d4;" parent="JHuxcT3J-h0tU2cZwM6Y-1" vertex="1">
          <mxGeometry x="690" y="590" width="20" height="20" as="geometry" />
        </mxCell>
        <mxCell id="JHuxcT3J-h0tU2cZwM6Y-89" value="M" style="ellipse;whiteSpace=wrap;html=1;aspect=fixed;strokeColor=#82b366;fillColor=#d5e8d4;" parent="JHuxcT3J-h0tU2cZwM6Y-1" vertex="1">
          <mxGeometry x="690" y="710" width="20" height="20" as="geometry" />
        </mxCell>
        <mxCell id="JHuxcT3J-h0tU2cZwM6Y-90" value="M" style="ellipse;whiteSpace=wrap;html=1;aspect=fixed;strokeColor=#82b366;fillColor=#d5e8d4;" parent="JHuxcT3J-h0tU2cZwM6Y-1" vertex="1">
          <mxGeometry x="690" y="471" width="20" height="20" as="geometry" />
        </mxCell>
        <mxCell id="JHuxcT3J-h0tU2cZwM6Y-91" value="M" style="ellipse;whiteSpace=wrap;html=1;aspect=fixed;strokeColor=#82b366;fillColor=#d5e8d4;" parent="JHuxcT3J-h0tU2cZwM6Y-1" vertex="1">
          <mxGeometry x="689" y="348" width="20" height="20" as="geometry" />
        </mxCell>
        <mxCell id="JHuxcT3J-h0tU2cZwM6Y-92" value="M" style="ellipse;whiteSpace=wrap;html=1;aspect=fixed;strokeColor=#82b366;fillColor=#d5e8d4;" parent="JHuxcT3J-h0tU2cZwM6Y-1" vertex="1">
          <mxGeometry x="690" y="230" width="20" height="20" as="geometry" />
        </mxCell>
        <mxCell id="JHuxcT3J-h0tU2cZwM6Y-93" value="C" style="ellipse;whiteSpace=wrap;html=1;aspect=fixed;strokeColor=#000000;" parent="JHuxcT3J-h0tU2cZwM6Y-1" vertex="1">
          <mxGeometry x="689" y="190" width="20" height="20" as="geometry" />
        </mxCell>
        <mxCell id="JHuxcT3J-h0tU2cZwM6Y-94" value="C" style="ellipse;whiteSpace=wrap;html=1;aspect=fixed;strokeColor=#000000;" parent="JHuxcT3J-h0tU2cZwM6Y-1" vertex="1">
          <mxGeometry x="690" y="311" width="20" height="20" as="geometry" />
        </mxCell>
        <mxCell id="JHuxcT3J-h0tU2cZwM6Y-95" value="C" style="ellipse;whiteSpace=wrap;html=1;aspect=fixed;strokeColor=#000000;" parent="JHuxcT3J-h0tU2cZwM6Y-1" vertex="1">
          <mxGeometry x="689" y="428" width="20" height="20" as="geometry" />
        </mxCell>
        <mxCell id="JHuxcT3J-h0tU2cZwM6Y-96" value="C" style="ellipse;whiteSpace=wrap;html=1;aspect=fixed;strokeColor=#000000;" parent="JHuxcT3J-h0tU2cZwM6Y-1" vertex="1">
          <mxGeometry x="690" y="550" width="20" height="20" as="geometry" />
        </mxCell>
        <mxCell id="JHuxcT3J-h0tU2cZwM6Y-97" value="C" style="ellipse;whiteSpace=wrap;html=1;aspect=fixed;strokeColor=#000000;" parent="JHuxcT3J-h0tU2cZwM6Y-1" vertex="1">
          <mxGeometry x="690" y="670" width="20" height="20" as="geometry" />
        </mxCell>
        <mxCell id="JHuxcT3J-h0tU2cZwM6Y-145" value="P" style="ellipse;whiteSpace=wrap;html=1;aspect=fixed;strokeColor=#d6b656;fillColor=#fff2cc;" parent="JHuxcT3J-h0tU2cZwM6Y-1" vertex="1">
          <mxGeometry x="329" y="150" width="20" height="20" as="geometry" />
        </mxCell>
        <mxCell id="JHuxcT3J-h0tU2cZwM6Y-146" value="M" style="ellipse;whiteSpace=wrap;html=1;aspect=fixed;strokeColor=#82b366;fillColor=#d5e8d4;" parent="JHuxcT3J-h0tU2cZwM6Y-1" vertex="1">
          <mxGeometry x="330" y="110" width="20" height="20" as="geometry" />
        </mxCell>
        <mxCell id="JHuxcT3J-h0tU2cZwM6Y-147" value="M" style="ellipse;whiteSpace=wrap;html=1;aspect=fixed;strokeColor=#82b366;fillColor=#d5e8d4;" parent="JHuxcT3J-h0tU2cZwM6Y-1" vertex="1">
          <mxGeometry x="329" y="170" width="20" height="20" as="geometry" />
        </mxCell>
        <mxCell id="JHuxcT3J-h0tU2cZwM6Y-148" value="M" style="ellipse;whiteSpace=wrap;html=1;aspect=fixed;strokeColor=#82b366;fillColor=#d5e8d4;" parent="JHuxcT3J-h0tU2cZwM6Y-1" vertex="1">
          <mxGeometry x="329.5" y="291" width="20" height="20" as="geometry" />
        </mxCell>
        <mxCell id="JHuxcT3J-h0tU2cZwM6Y-149" value="M" style="ellipse;whiteSpace=wrap;html=1;aspect=fixed;strokeColor=#82b366;fillColor=#d5e8d4;" parent="JHuxcT3J-h0tU2cZwM6Y-1" vertex="1">
          <mxGeometry x="329" y="408" width="20" height="20" as="geometry" />
        </mxCell>
        <mxCell id="JHuxcT3J-h0tU2cZwM6Y-150" value="M" style="ellipse;whiteSpace=wrap;html=1;aspect=fixed;strokeColor=#82b366;fillColor=#d5e8d4;" parent="JHuxcT3J-h0tU2cZwM6Y-1" vertex="1">
          <mxGeometry x="330" y="530" width="20" height="20" as="geometry" />
        </mxCell>
        <mxCell id="JHuxcT3J-h0tU2cZwM6Y-151" value="M" style="ellipse;whiteSpace=wrap;html=1;aspect=fixed;strokeColor=#82b366;fillColor=#d5e8d4;" parent="JHuxcT3J-h0tU2cZwM6Y-1" vertex="1">
          <mxGeometry x="330" y="650" width="20" height="20" as="geometry" />
        </mxCell>
        <mxCell id="JHuxcT3J-h0tU2cZwM6Y-152" value="C" style="ellipse;whiteSpace=wrap;html=1;aspect=fixed;strokeColor=#000000;" parent="JHuxcT3J-h0tU2cZwM6Y-1" vertex="1">
          <mxGeometry x="329" y="130" width="20" height="20" as="geometry" />
        </mxCell>
        <mxCell id="JHuxcT3J-h0tU2cZwM6Y-153" value="C" style="ellipse;whiteSpace=wrap;html=1;aspect=fixed;strokeColor=#000000;" parent="JHuxcT3J-h0tU2cZwM6Y-1" vertex="1">
          <mxGeometry x="329" y="250" width="20" height="20" as="geometry" />
        </mxCell>
        <mxCell id="JHuxcT3J-h0tU2cZwM6Y-154" value="C" style="ellipse;whiteSpace=wrap;html=1;aspect=fixed;strokeColor=#000000;" parent="JHuxcT3J-h0tU2cZwM6Y-1" vertex="1">
          <mxGeometry x="329" y="368" width="20" height="20" as="geometry" />
        </mxCell>
        <mxCell id="JHuxcT3J-h0tU2cZwM6Y-155" value="C" style="ellipse;whiteSpace=wrap;html=1;aspect=fixed;strokeColor=#000000;" parent="JHuxcT3J-h0tU2cZwM6Y-1" vertex="1">
          <mxGeometry x="330" y="491" width="20" height="20" as="geometry" />
        </mxCell>
        <mxCell id="JHuxcT3J-h0tU2cZwM6Y-156" value="C" style="ellipse;whiteSpace=wrap;html=1;aspect=fixed;strokeColor=#000000;" parent="JHuxcT3J-h0tU2cZwM6Y-1" vertex="1">
          <mxGeometry x="330" y="610" width="20" height="20" as="geometry" />
        </mxCell>
        <mxCell id="JHuxcT3J-h0tU2cZwM6Y-157" value="C" style="ellipse;whiteSpace=wrap;html=1;aspect=fixed;strokeColor=#000000;" parent="JHuxcT3J-h0tU2cZwM6Y-1" vertex="1">
          <mxGeometry x="329" y="730" width="20" height="20" as="geometry" />
        </mxCell>
        <mxCell id="JHuxcT3J-h0tU2cZwM6Y-158" value="P" style="ellipse;whiteSpace=wrap;html=1;aspect=fixed;strokeColor=#d6b656;fillColor=#fff2cc;" parent="JHuxcT3J-h0tU2cZwM6Y-1" vertex="1">
          <mxGeometry x="329" y="271" width="20" height="20" as="geometry" />
        </mxCell>
        <mxCell id="JHuxcT3J-h0tU2cZwM6Y-159" value="P" style="ellipse;whiteSpace=wrap;html=1;aspect=fixed;strokeColor=#d6b656;fillColor=#fff2cc;" parent="JHuxcT3J-h0tU2cZwM6Y-1" vertex="1">
          <mxGeometry x="329" y="388" width="20" height="20" as="geometry" />
        </mxCell>
        <mxCell id="JHuxcT3J-h0tU2cZwM6Y-160" value="P" style="ellipse;whiteSpace=wrap;html=1;aspect=fixed;strokeColor=#d6b656;fillColor=#fff2cc;" parent="JHuxcT3J-h0tU2cZwM6Y-1" vertex="1">
          <mxGeometry x="330" y="511" width="20" height="20" as="geometry" />
        </mxCell>
        <mxCell id="JHuxcT3J-h0tU2cZwM6Y-161" value="P" style="ellipse;whiteSpace=wrap;html=1;aspect=fixed;strokeColor=#d6b656;fillColor=#fff2cc;" parent="JHuxcT3J-h0tU2cZwM6Y-1" vertex="1">
          <mxGeometry x="330" y="630" width="20" height="20" as="geometry" />
        </mxCell>
        <mxCell id="JHuxcT3J-h0tU2cZwM6Y-162" value="P" style="ellipse;whiteSpace=wrap;html=1;aspect=fixed;strokeColor=#d6b656;fillColor=#fff2cc;" parent="JHuxcT3J-h0tU2cZwM6Y-1" vertex="1">
          <mxGeometry x="330" y="750" width="20" height="20" as="geometry" />
        </mxCell>
        <mxCell id="JHuxcT3J-h0tU2cZwM6Y-163" value="M" style="ellipse;whiteSpace=wrap;html=1;aspect=fixed;strokeColor=#82b366;fillColor=#d5e8d4;" parent="JHuxcT3J-h0tU2cZwM6Y-1" vertex="1">
          <mxGeometry x="330" y="590" width="20" height="20" as="geometry" />
        </mxCell>
        <mxCell id="JHuxcT3J-h0tU2cZwM6Y-164" value="M" style="ellipse;whiteSpace=wrap;html=1;aspect=fixed;strokeColor=#82b366;fillColor=#d5e8d4;" parent="JHuxcT3J-h0tU2cZwM6Y-1" vertex="1">
          <mxGeometry x="330" y="710" width="20" height="20" as="geometry" />
        </mxCell>
        <mxCell id="JHuxcT3J-h0tU2cZwM6Y-165" value="M" style="ellipse;whiteSpace=wrap;html=1;aspect=fixed;strokeColor=#82b366;fillColor=#d5e8d4;" parent="JHuxcT3J-h0tU2cZwM6Y-1" vertex="1">
          <mxGeometry x="330" y="471" width="20" height="20" as="geometry" />
        </mxCell>
        <mxCell id="JHuxcT3J-h0tU2cZwM6Y-166" value="M" style="ellipse;whiteSpace=wrap;html=1;aspect=fixed;strokeColor=#82b366;fillColor=#d5e8d4;" parent="JHuxcT3J-h0tU2cZwM6Y-1" vertex="1">
          <mxGeometry x="329" y="348" width="20" height="20" as="geometry" />
        </mxCell>
        <mxCell id="JHuxcT3J-h0tU2cZwM6Y-167" value="M" style="ellipse;whiteSpace=wrap;html=1;aspect=fixed;strokeColor=#82b366;fillColor=#d5e8d4;" parent="JHuxcT3J-h0tU2cZwM6Y-1" vertex="1">
          <mxGeometry x="330" y="230" width="20" height="20" as="geometry" />
        </mxCell>
        <mxCell id="JHuxcT3J-h0tU2cZwM6Y-168" value="C" style="ellipse;whiteSpace=wrap;html=1;aspect=fixed;strokeColor=#000000;" parent="JHuxcT3J-h0tU2cZwM6Y-1" vertex="1">
          <mxGeometry x="329" y="190" width="20" height="20" as="geometry" />
        </mxCell>
        <mxCell id="JHuxcT3J-h0tU2cZwM6Y-169" value="C" style="ellipse;whiteSpace=wrap;html=1;aspect=fixed;strokeColor=#000000;" parent="JHuxcT3J-h0tU2cZwM6Y-1" vertex="1">
          <mxGeometry x="330" y="311" width="20" height="20" as="geometry" />
        </mxCell>
        <mxCell id="JHuxcT3J-h0tU2cZwM6Y-170" value="C" style="ellipse;whiteSpace=wrap;html=1;aspect=fixed;strokeColor=#000000;" parent="JHuxcT3J-h0tU2cZwM6Y-1" vertex="1">
          <mxGeometry x="329" y="428" width="20" height="20" as="geometry" />
        </mxCell>
        <mxCell id="JHuxcT3J-h0tU2cZwM6Y-171" value="C" style="ellipse;whiteSpace=wrap;html=1;aspect=fixed;strokeColor=#000000;" parent="JHuxcT3J-h0tU2cZwM6Y-1" vertex="1">
          <mxGeometry x="330" y="550" width="20" height="20" as="geometry" />
        </mxCell>
        <mxCell id="JHuxcT3J-h0tU2cZwM6Y-172" value="C" style="ellipse;whiteSpace=wrap;html=1;aspect=fixed;strokeColor=#000000;" parent="JHuxcT3J-h0tU2cZwM6Y-1" vertex="1">
          <mxGeometry x="330" y="670" width="20" height="20" as="geometry" />
        </mxCell>
        <mxCell id="2Ms6hGy1cNAkD8y6Jtei-12" value="12x" style="text;html=1;align=center;verticalAlign=middle;resizable=0;points=[];autosize=1;strokeColor=none;fillColor=none;" parent="JHuxcT3J-h0tU2cZwM6Y-1" vertex="1">
          <mxGeometry x="8" y="205" width="40" height="30" as="geometry" />
        </mxCell>
        <mxCell id="2Ms6hGy1cNAkD8y6Jtei-13" value="22x" style="text;html=1;align=center;verticalAlign=middle;resizable=0;points=[];autosize=1;strokeColor=none;fillColor=none;" parent="JHuxcT3J-h0tU2cZwM6Y-1" vertex="1">
          <mxGeometry x="9" y="180" width="40" height="30" as="geometry" />
        </mxCell>
        <mxCell id="2Ms6hGy1cNAkD8y6Jtei-14" value="22x" style="text;html=1;align=center;verticalAlign=middle;resizable=0;points=[];autosize=1;strokeColor=none;fillColor=none;" parent="JHuxcT3J-h0tU2cZwM6Y-1" vertex="1">
          <mxGeometry x="9" y="155" width="40" height="30" as="geometry" />
        </mxCell>
        <mxCell id="JHuxcT3J-h0tU2cZwM6Y-181" value="Linha Alta" parent="0" />
        <mxCell id="JHuxcT3J-h0tU2cZwM6Y-293" value="" style="endArrow=none;html=1;rounded=0;strokeWidth=5;fillColor=#ffcc99;strokeColor=#FFCC99;" parent="JHuxcT3J-h0tU2cZwM6Y-181" edge="1">
          <mxGeometry width="50" height="50" relative="1" as="geometry">
            <mxPoint x="404" y="730" as="sourcePoint" />
            <mxPoint x="414" y="740" as="targetPoint" />
          </mxGeometry>
        </mxCell>
        <mxCell id="JHuxcT3J-h0tU2cZwM6Y-299" value="" style="endArrow=none;html=1;rounded=0;strokeWidth=5;fillColor=#ffcc99;strokeColor=#FFCC99;" parent="JHuxcT3J-h0tU2cZwM6Y-181" edge="1">
          <mxGeometry width="50" height="50" relative="1" as="geometry">
            <mxPoint x="385" y="700" as="sourcePoint" />
            <mxPoint x="395" y="710" as="targetPoint" />
          </mxGeometry>
        </mxCell>
        <mxCell id="JHuxcT3J-h0tU2cZwM6Y-300" value="" style="endArrow=none;html=1;rounded=0;strokeWidth=5;fillColor=#ffcc99;strokeColor=#FFCC99;" parent="JHuxcT3J-h0tU2cZwM6Y-181" edge="1">
          <mxGeometry width="50" height="50" relative="1" as="geometry">
            <mxPoint x="405" y="650" as="sourcePoint" />
            <mxPoint x="415" y="660" as="targetPoint" />
          </mxGeometry>
        </mxCell>
        <mxCell id="JHuxcT3J-h0tU2cZwM6Y-298" value="" style="endArrow=none;html=1;rounded=0;strokeWidth=5;fillColor=#ffcc99;strokeColor=#FFCC99;" parent="JHuxcT3J-h0tU2cZwM6Y-181" edge="1">
          <mxGeometry width="50" height="50" relative="1" as="geometry">
            <mxPoint x="385" y="620" as="sourcePoint" />
            <mxPoint x="395" y="630" as="targetPoint" />
          </mxGeometry>
        </mxCell>
        <mxCell id="JHuxcT3J-h0tU2cZwM6Y-301" value="" style="endArrow=none;html=1;rounded=0;strokeWidth=5;fillColor=#ffcc99;strokeColor=#FFCC99;" parent="JHuxcT3J-h0tU2cZwM6Y-181" edge="1">
          <mxGeometry width="50" height="50" relative="1" as="geometry">
            <mxPoint x="404" y="570" as="sourcePoint" />
            <mxPoint x="414" y="580" as="targetPoint" />
          </mxGeometry>
        </mxCell>
        <mxCell id="JHuxcT3J-h0tU2cZwM6Y-297" value="" style="endArrow=none;html=1;rounded=0;strokeWidth=5;fillColor=#ffcc99;strokeColor=#FFCC99;" parent="JHuxcT3J-h0tU2cZwM6Y-181" edge="1">
          <mxGeometry width="50" height="50" relative="1" as="geometry">
            <mxPoint x="385" y="540" as="sourcePoint" />
            <mxPoint x="395" y="550" as="targetPoint" />
          </mxGeometry>
        </mxCell>
        <mxCell id="JHuxcT3J-h0tU2cZwM6Y-302" value="" style="endArrow=none;html=1;rounded=0;strokeWidth=5;fillColor=#ffcc99;strokeColor=#FFCC99;" parent="JHuxcT3J-h0tU2cZwM6Y-181" edge="1">
          <mxGeometry width="50" height="50" relative="1" as="geometry">
            <mxPoint x="404" y="490" as="sourcePoint" />
            <mxPoint x="414" y="500" as="targetPoint" />
          </mxGeometry>
        </mxCell>
        <mxCell id="JHuxcT3J-h0tU2cZwM6Y-296" value="" style="endArrow=none;html=1;rounded=0;strokeWidth=5;fillColor=#ffcc99;strokeColor=#FFCC99;" parent="JHuxcT3J-h0tU2cZwM6Y-181" edge="1">
          <mxGeometry width="50" height="50" relative="1" as="geometry">
            <mxPoint x="385" y="460" as="sourcePoint" />
            <mxPoint x="395" y="470" as="targetPoint" />
          </mxGeometry>
        </mxCell>
        <mxCell id="JHuxcT3J-h0tU2cZwM6Y-303" value="" style="endArrow=none;html=1;rounded=0;strokeWidth=5;fillColor=#ffcc99;strokeColor=#FFCC99;" parent="JHuxcT3J-h0tU2cZwM6Y-181" edge="1">
          <mxGeometry width="50" height="50" relative="1" as="geometry">
            <mxPoint x="404" y="410" as="sourcePoint" />
            <mxPoint x="414" y="420" as="targetPoint" />
          </mxGeometry>
        </mxCell>
        <mxCell id="JHuxcT3J-h0tU2cZwM6Y-295" value="" style="endArrow=none;html=1;rounded=0;strokeWidth=5;fillColor=#ffcc99;strokeColor=#FFCC99;" parent="JHuxcT3J-h0tU2cZwM6Y-181" edge="1">
          <mxGeometry width="50" height="50" relative="1" as="geometry">
            <mxPoint x="385" y="380" as="sourcePoint" />
            <mxPoint x="395" y="390" as="targetPoint" />
          </mxGeometry>
        </mxCell>
        <mxCell id="JHuxcT3J-h0tU2cZwM6Y-304" value="" style="endArrow=none;html=1;rounded=0;strokeWidth=5;fillColor=#ffcc99;strokeColor=#FFCC99;" parent="JHuxcT3J-h0tU2cZwM6Y-181" edge="1">
          <mxGeometry width="50" height="50" relative="1" as="geometry">
            <mxPoint x="405" y="330" as="sourcePoint" />
            <mxPoint x="415" y="340" as="targetPoint" />
          </mxGeometry>
        </mxCell>
        <mxCell id="JHuxcT3J-h0tU2cZwM6Y-294" value="" style="endArrow=none;html=1;rounded=0;strokeWidth=5;fillColor=#ffcc99;strokeColor=#FFCC99;" parent="JHuxcT3J-h0tU2cZwM6Y-181" edge="1">
          <mxGeometry width="50" height="50" relative="1" as="geometry">
            <mxPoint x="385" y="300" as="sourcePoint" />
            <mxPoint x="395" y="310" as="targetPoint" />
          </mxGeometry>
        </mxCell>
        <mxCell id="JHuxcT3J-h0tU2cZwM6Y-305" value="" style="endArrow=none;html=1;rounded=0;strokeWidth=5;fillColor=#ffcc99;strokeColor=#FFCC99;" parent="JHuxcT3J-h0tU2cZwM6Y-181" edge="1">
          <mxGeometry width="50" height="50" relative="1" as="geometry">
            <mxPoint x="405" y="250" as="sourcePoint" />
            <mxPoint x="415" y="260" as="targetPoint" />
          </mxGeometry>
        </mxCell>
        <mxCell id="JHuxcT3J-h0tU2cZwM6Y-292" value="" style="endArrow=none;html=1;rounded=0;strokeWidth=5;fillColor=#ffcc99;strokeColor=#FFCC99;" parent="JHuxcT3J-h0tU2cZwM6Y-181" edge="1">
          <mxGeometry width="50" height="50" relative="1" as="geometry">
            <mxPoint x="385" y="220" as="sourcePoint" />
            <mxPoint x="395" y="230" as="targetPoint" />
          </mxGeometry>
        </mxCell>
        <mxCell id="JHuxcT3J-h0tU2cZwM6Y-288" value="" style="endArrow=none;html=1;rounded=0;strokeWidth=5;fillColor=#ffcc99;strokeColor=#FFCC99;" parent="JHuxcT3J-h0tU2cZwM6Y-181" edge="1">
          <mxGeometry width="50" height="50" relative="1" as="geometry">
            <mxPoint x="405" y="170" as="sourcePoint" />
            <mxPoint x="415" y="180" as="targetPoint" />
          </mxGeometry>
        </mxCell>
        <mxCell id="JHuxcT3J-h0tU2cZwM6Y-287" value="" style="endArrow=none;html=1;rounded=0;strokeWidth=5;fillColor=#ffcc99;strokeColor=#FFCC99;" parent="JHuxcT3J-h0tU2cZwM6Y-181" edge="1">
          <mxGeometry width="50" height="50" relative="1" as="geometry">
            <mxPoint x="385" y="140" as="sourcePoint" />
            <mxPoint x="395" y="150" as="targetPoint" />
          </mxGeometry>
        </mxCell>
        <mxCell id="JHuxcT3J-h0tU2cZwM6Y-225" value="" style="ellipse;whiteSpace=wrap;html=1;strokeColor=#3700CC;fillColor=#6a00ff;fontColor=#ffffff;" parent="JHuxcT3J-h0tU2cZwM6Y-181" vertex="1">
          <mxGeometry x="395" y="700" width="10" height="40" as="geometry" />
        </mxCell>
        <mxCell id="JHuxcT3J-h0tU2cZwM6Y-224" value="" style="ellipse;whiteSpace=wrap;html=1;strokeColor=#3700CC;fillColor=#6a00ff;fontColor=#ffffff;" parent="JHuxcT3J-h0tU2cZwM6Y-181" vertex="1">
          <mxGeometry x="395" y="620" width="10" height="40" as="geometry" />
        </mxCell>
        <mxCell id="JHuxcT3J-h0tU2cZwM6Y-223" value="" style="ellipse;whiteSpace=wrap;html=1;strokeColor=#3700CC;fillColor=#6a00ff;fontColor=#ffffff;" parent="JHuxcT3J-h0tU2cZwM6Y-181" vertex="1">
          <mxGeometry x="395" y="540" width="10" height="40" as="geometry" />
        </mxCell>
        <mxCell id="JHuxcT3J-h0tU2cZwM6Y-222" value="" style="ellipse;whiteSpace=wrap;html=1;strokeColor=#3700CC;fillColor=#6a00ff;fontColor=#ffffff;" parent="JHuxcT3J-h0tU2cZwM6Y-181" vertex="1">
          <mxGeometry x="395" y="460" width="10" height="40" as="geometry" />
        </mxCell>
        <mxCell id="JHuxcT3J-h0tU2cZwM6Y-221" value="" style="ellipse;whiteSpace=wrap;html=1;strokeColor=#3700CC;fillColor=#6a00ff;fontColor=#ffffff;" parent="JHuxcT3J-h0tU2cZwM6Y-181" vertex="1">
          <mxGeometry x="395" y="380" width="10" height="40" as="geometry" />
        </mxCell>
        <mxCell id="JHuxcT3J-h0tU2cZwM6Y-220" value="" style="ellipse;whiteSpace=wrap;html=1;strokeColor=#3700CC;fillColor=#6a00ff;fontColor=#ffffff;" parent="JHuxcT3J-h0tU2cZwM6Y-181" vertex="1">
          <mxGeometry x="395" y="300" width="10" height="40" as="geometry" />
        </mxCell>
        <mxCell id="JHuxcT3J-h0tU2cZwM6Y-219" value="" style="ellipse;whiteSpace=wrap;html=1;strokeColor=#3700CC;fillColor=#6a00ff;fontColor=#ffffff;" parent="JHuxcT3J-h0tU2cZwM6Y-181" vertex="1">
          <mxGeometry x="395" y="220" width="10" height="40" as="geometry" />
        </mxCell>
        <mxCell id="JHuxcT3J-h0tU2cZwM6Y-218" value="" style="ellipse;whiteSpace=wrap;html=1;strokeColor=#3700CC;fillColor=#6a00ff;fontColor=#ffffff;" parent="JHuxcT3J-h0tU2cZwM6Y-181" vertex="1">
          <mxGeometry x="395" y="140" width="10" height="40" as="geometry" />
        </mxCell>
        <mxCell id="JHuxcT3J-h0tU2cZwM6Y-186" value="B" style="ellipse;whiteSpace=wrap;html=1;aspect=fixed;strokeColor=#6c8ebf;fillColor=#dae8fc;" parent="JHuxcT3J-h0tU2cZwM6Y-181" vertex="1">
          <mxGeometry x="40" y="235" width="20" height="20" as="geometry" />
        </mxCell>
        <mxCell id="JHuxcT3J-h0tU2cZwM6Y-187" value="Banana" style="text;html=1;align=left;verticalAlign=middle;resizable=0;points=[];autosize=1;strokeColor=none;fillColor=none;" parent="JHuxcT3J-h0tU2cZwM6Y-181" vertex="1">
          <mxGeometry x="70" y="230" width="60" height="30" as="geometry" />
        </mxCell>
        <mxCell id="JHuxcT3J-h0tU2cZwM6Y-188" value="E" style="ellipse;whiteSpace=wrap;html=1;aspect=fixed;strokeColor=#005700;fillColor=#008a00;fontColor=#ffffff;" parent="JHuxcT3J-h0tU2cZwM6Y-181" vertex="1">
          <mxGeometry x="40" y="260" width="20" height="20" as="geometry" />
        </mxCell>
        <mxCell id="JHuxcT3J-h0tU2cZwM6Y-189" value="Eucalipto" style="text;html=1;align=left;verticalAlign=middle;resizable=0;points=[];autosize=1;strokeColor=none;fillColor=none;" parent="JHuxcT3J-h0tU2cZwM6Y-181" vertex="1">
          <mxGeometry x="70" y="255" width="70" height="30" as="geometry" />
        </mxCell>
        <mxCell id="JHuxcT3J-h0tU2cZwM6Y-190" value="C" style="ellipse;whiteSpace=wrap;html=1;aspect=fixed;strokeColor=#BD7000;fillColor=#f0a30a;fontColor=#000000;" parent="JHuxcT3J-h0tU2cZwM6Y-181" vertex="1">
          <mxGeometry x="40" y="285" width="20" height="20" as="geometry" />
        </mxCell>
        <mxCell id="JHuxcT3J-h0tU2cZwM6Y-191" value="Citrico" style="text;html=1;align=left;verticalAlign=middle;resizable=0;points=[];autosize=1;strokeColor=none;fillColor=none;" parent="JHuxcT3J-h0tU2cZwM6Y-181" vertex="1">
          <mxGeometry x="70" y="280" width="60" height="30" as="geometry" />
        </mxCell>
        <mxCell id="JHuxcT3J-h0tU2cZwM6Y-193" value="Muvuca" style="text;html=1;align=left;verticalAlign=middle;resizable=0;points=[];autosize=1;strokeColor=none;fillColor=none;" parent="JHuxcT3J-h0tU2cZwM6Y-181" vertex="1">
          <mxGeometry x="70" y="305" width="70" height="30" as="geometry" />
        </mxCell>
        <mxCell id="JHuxcT3J-h0tU2cZwM6Y-195" value="Feijao de porco" style="text;html=1;align=left;verticalAlign=middle;resizable=0;points=[];autosize=1;strokeColor=none;fillColor=none;" parent="JHuxcT3J-h0tU2cZwM6Y-181" vertex="1">
          <mxGeometry x="70" y="330" width="110" height="30" as="geometry" />
        </mxCell>
        <mxCell id="JHuxcT3J-h0tU2cZwM6Y-197" value="Milho" style="text;html=1;align=left;verticalAlign=middle;resizable=0;points=[];autosize=1;strokeColor=none;fillColor=none;" parent="JHuxcT3J-h0tU2cZwM6Y-181" vertex="1">
          <mxGeometry x="70" y="355" width="50" height="30" as="geometry" />
        </mxCell>
        <mxCell id="JHuxcT3J-h0tU2cZwM6Y-199" value="Macaxeira" style="text;html=1;align=left;verticalAlign=middle;resizable=0;points=[];autosize=1;strokeColor=none;fillColor=none;" parent="JHuxcT3J-h0tU2cZwM6Y-181" vertex="1">
          <mxGeometry x="70" y="380" width="80" height="30" as="geometry" />
        </mxCell>
        <mxCell id="JHuxcT3J-h0tU2cZwM6Y-200" value="B" style="ellipse;whiteSpace=wrap;html=1;aspect=fixed;strokeColor=#6c8ebf;fillColor=#dae8fc;" parent="JHuxcT3J-h0tU2cZwM6Y-181" vertex="1">
          <mxGeometry x="390" y="750" width="20" height="20" as="geometry" />
        </mxCell>
        <mxCell id="JHuxcT3J-h0tU2cZwM6Y-201" value="B" style="ellipse;whiteSpace=wrap;html=1;aspect=fixed;strokeColor=#6c8ebf;fillColor=#dae8fc;" parent="JHuxcT3J-h0tU2cZwM6Y-181" vertex="1">
          <mxGeometry x="390" y="590" width="20" height="20" as="geometry" />
        </mxCell>
        <mxCell id="JHuxcT3J-h0tU2cZwM6Y-202" value="B" style="ellipse;whiteSpace=wrap;html=1;aspect=fixed;strokeColor=#6c8ebf;fillColor=#dae8fc;" parent="JHuxcT3J-h0tU2cZwM6Y-181" vertex="1">
          <mxGeometry x="390" y="430" width="20" height="20" as="geometry" />
        </mxCell>
        <mxCell id="JHuxcT3J-h0tU2cZwM6Y-203" value="B" style="ellipse;whiteSpace=wrap;html=1;aspect=fixed;strokeColor=#6c8ebf;fillColor=#dae8fc;" parent="JHuxcT3J-h0tU2cZwM6Y-181" vertex="1">
          <mxGeometry x="390" y="270" width="20" height="20" as="geometry" />
        </mxCell>
        <mxCell id="JHuxcT3J-h0tU2cZwM6Y-204" value="B" style="ellipse;whiteSpace=wrap;html=1;aspect=fixed;strokeColor=#6c8ebf;fillColor=#dae8fc;" parent="JHuxcT3J-h0tU2cZwM6Y-181" vertex="1">
          <mxGeometry x="390" y="110" width="20" height="20" as="geometry" />
        </mxCell>
        <mxCell id="JHuxcT3J-h0tU2cZwM6Y-205" value="C" style="ellipse;whiteSpace=wrap;html=1;aspect=fixed;strokeColor=#BD7000;fillColor=#f0a30a;fontColor=#000000;" parent="JHuxcT3J-h0tU2cZwM6Y-181" vertex="1">
          <mxGeometry x="390" y="190" width="20" height="20" as="geometry" />
        </mxCell>
        <mxCell id="JHuxcT3J-h0tU2cZwM6Y-206" value="C" style="ellipse;whiteSpace=wrap;html=1;aspect=fixed;strokeColor=#BD7000;fillColor=#f0a30a;fontColor=#000000;" parent="JHuxcT3J-h0tU2cZwM6Y-181" vertex="1">
          <mxGeometry x="390" y="350" width="20" height="20" as="geometry" />
        </mxCell>
        <mxCell id="JHuxcT3J-h0tU2cZwM6Y-207" value="C" style="ellipse;whiteSpace=wrap;html=1;aspect=fixed;strokeColor=#BD7000;fillColor=#f0a30a;fontColor=#000000;" parent="JHuxcT3J-h0tU2cZwM6Y-181" vertex="1">
          <mxGeometry x="390" y="510" width="20" height="20" as="geometry" />
        </mxCell>
        <mxCell id="JHuxcT3J-h0tU2cZwM6Y-208" value="C" style="ellipse;whiteSpace=wrap;html=1;aspect=fixed;strokeColor=#BD7000;fillColor=#f0a30a;fontColor=#000000;" parent="JHuxcT3J-h0tU2cZwM6Y-181" vertex="1">
          <mxGeometry x="390" y="670" width="20" height="20" as="geometry" />
        </mxCell>
        <mxCell id="JHuxcT3J-h0tU2cZwM6Y-209" value="E" style="ellipse;whiteSpace=wrap;html=1;aspect=fixed;strokeColor=#005700;fillColor=#008a00;fontColor=#ffffff;" parent="JHuxcT3J-h0tU2cZwM6Y-181" vertex="1">
          <mxGeometry x="390" y="150" width="20" height="20" as="geometry" />
        </mxCell>
        <mxCell id="JHuxcT3J-h0tU2cZwM6Y-210" value="E" style="ellipse;whiteSpace=wrap;html=1;aspect=fixed;strokeColor=#005700;fillColor=#008a00;fontColor=#ffffff;" parent="JHuxcT3J-h0tU2cZwM6Y-181" vertex="1">
          <mxGeometry x="390" y="230" width="20" height="20" as="geometry" />
        </mxCell>
        <mxCell id="JHuxcT3J-h0tU2cZwM6Y-211" value="E" style="ellipse;whiteSpace=wrap;html=1;aspect=fixed;strokeColor=#005700;fillColor=#008a00;fontColor=#ffffff;" parent="JHuxcT3J-h0tU2cZwM6Y-181" vertex="1">
          <mxGeometry x="390" y="310" width="20" height="20" as="geometry" />
        </mxCell>
        <mxCell id="JHuxcT3J-h0tU2cZwM6Y-212" value="E" style="ellipse;whiteSpace=wrap;html=1;aspect=fixed;strokeColor=#005700;fillColor=#008a00;fontColor=#ffffff;" parent="JHuxcT3J-h0tU2cZwM6Y-181" vertex="1">
          <mxGeometry x="390" y="390" width="20" height="20" as="geometry" />
        </mxCell>
        <mxCell id="JHuxcT3J-h0tU2cZwM6Y-213" value="E" style="ellipse;whiteSpace=wrap;html=1;aspect=fixed;strokeColor=#005700;fillColor=#008a00;fontColor=#ffffff;" parent="JHuxcT3J-h0tU2cZwM6Y-181" vertex="1">
          <mxGeometry x="390" y="470" width="20" height="20" as="geometry" />
        </mxCell>
        <mxCell id="JHuxcT3J-h0tU2cZwM6Y-214" value="E" style="ellipse;whiteSpace=wrap;html=1;aspect=fixed;strokeColor=#005700;fillColor=#008a00;fontColor=#ffffff;" parent="JHuxcT3J-h0tU2cZwM6Y-181" vertex="1">
          <mxGeometry x="390" y="550" width="20" height="20" as="geometry" />
        </mxCell>
        <mxCell id="JHuxcT3J-h0tU2cZwM6Y-215" value="E" style="ellipse;whiteSpace=wrap;html=1;aspect=fixed;strokeColor=#005700;fillColor=#008a00;fontColor=#ffffff;" parent="JHuxcT3J-h0tU2cZwM6Y-181" vertex="1">
          <mxGeometry x="390" y="630" width="20" height="20" as="geometry" />
        </mxCell>
        <mxCell id="JHuxcT3J-h0tU2cZwM6Y-216" value="E" style="ellipse;whiteSpace=wrap;html=1;aspect=fixed;strokeColor=#005700;fillColor=#008a00;fontColor=#ffffff;" parent="JHuxcT3J-h0tU2cZwM6Y-181" vertex="1">
          <mxGeometry x="390" y="710" width="20" height="20" as="geometry" />
        </mxCell>
        <mxCell id="JHuxcT3J-h0tU2cZwM6Y-217" value="" style="ellipse;whiteSpace=wrap;html=1;strokeColor=#3700CC;fillColor=#6a00ff;fontColor=#ffffff;" parent="JHuxcT3J-h0tU2cZwM6Y-181" vertex="1">
          <mxGeometry x="30" y="315" width="40" height="10" as="geometry" />
        </mxCell>
        <mxCell id="JHuxcT3J-h0tU2cZwM6Y-232" value="" style="rhombus;whiteSpace=wrap;html=1;strokeColor=#2D7600;fillColor=#60a917;fontColor=#ffffff;" parent="JHuxcT3J-h0tU2cZwM6Y-181" vertex="1">
          <mxGeometry x="45" y="340" width="10" height="10" as="geometry" />
        </mxCell>
        <mxCell id="JHuxcT3J-h0tU2cZwM6Y-235" value="" style="rhombus;whiteSpace=wrap;html=1;strokeColor=#2D7600;fillColor=#60a917;fontColor=#ffffff;" parent="JHuxcT3J-h0tU2cZwM6Y-181" vertex="1">
          <mxGeometry x="380" y="755" width="10" height="10" as="geometry" />
        </mxCell>
        <mxCell id="JHuxcT3J-h0tU2cZwM6Y-236" value="" style="rhombus;whiteSpace=wrap;html=1;strokeColor=#2D7600;fillColor=#60a917;fontColor=#ffffff;" parent="JHuxcT3J-h0tU2cZwM6Y-181" vertex="1">
          <mxGeometry x="409" y="755" width="10" height="10" as="geometry" />
        </mxCell>
        <mxCell id="JHuxcT3J-h0tU2cZwM6Y-237" value="" style="rhombus;whiteSpace=wrap;html=1;strokeColor=#2D7600;fillColor=#60a917;fontColor=#ffffff;" parent="JHuxcT3J-h0tU2cZwM6Y-181" vertex="1">
          <mxGeometry x="380.5" y="675" width="10" height="10" as="geometry" />
        </mxCell>
        <mxCell id="JHuxcT3J-h0tU2cZwM6Y-238" value="" style="rhombus;whiteSpace=wrap;html=1;strokeColor=#2D7600;fillColor=#60a917;fontColor=#ffffff;" parent="JHuxcT3J-h0tU2cZwM6Y-181" vertex="1">
          <mxGeometry x="409.5" y="675" width="10" height="10" as="geometry" />
        </mxCell>
        <mxCell id="JHuxcT3J-h0tU2cZwM6Y-239" value="" style="rhombus;whiteSpace=wrap;html=1;strokeColor=#2D7600;fillColor=#60a917;fontColor=#ffffff;" parent="JHuxcT3J-h0tU2cZwM6Y-181" vertex="1">
          <mxGeometry x="380" y="595" width="10" height="10" as="geometry" />
        </mxCell>
        <mxCell id="JHuxcT3J-h0tU2cZwM6Y-240" value="" style="rhombus;whiteSpace=wrap;html=1;strokeColor=#2D7600;fillColor=#60a917;fontColor=#ffffff;" parent="JHuxcT3J-h0tU2cZwM6Y-181" vertex="1">
          <mxGeometry x="409" y="595" width="10" height="10" as="geometry" />
        </mxCell>
        <mxCell id="JHuxcT3J-h0tU2cZwM6Y-241" value="" style="rhombus;whiteSpace=wrap;html=1;strokeColor=#2D7600;fillColor=#60a917;fontColor=#ffffff;" parent="JHuxcT3J-h0tU2cZwM6Y-181" vertex="1">
          <mxGeometry x="380.5" y="515" width="10" height="10" as="geometry" />
        </mxCell>
        <mxCell id="JHuxcT3J-h0tU2cZwM6Y-242" value="" style="rhombus;whiteSpace=wrap;html=1;strokeColor=#2D7600;fillColor=#60a917;fontColor=#ffffff;" parent="JHuxcT3J-h0tU2cZwM6Y-181" vertex="1">
          <mxGeometry x="409.5" y="515" width="10" height="10" as="geometry" />
        </mxCell>
        <mxCell id="JHuxcT3J-h0tU2cZwM6Y-246" value="" style="rhombus;whiteSpace=wrap;html=1;strokeColor=#2D7600;fillColor=#60a917;fontColor=#ffffff;" parent="JHuxcT3J-h0tU2cZwM6Y-181" vertex="1">
          <mxGeometry x="380.5" y="435" width="10" height="10" as="geometry" />
        </mxCell>
        <mxCell id="JHuxcT3J-h0tU2cZwM6Y-247" value="" style="rhombus;whiteSpace=wrap;html=1;strokeColor=#2D7600;fillColor=#60a917;fontColor=#ffffff;" parent="JHuxcT3J-h0tU2cZwM6Y-181" vertex="1">
          <mxGeometry x="409.5" y="435" width="10" height="10" as="geometry" />
        </mxCell>
        <mxCell id="JHuxcT3J-h0tU2cZwM6Y-248" value="" style="rhombus;whiteSpace=wrap;html=1;strokeColor=#2D7600;fillColor=#60a917;fontColor=#ffffff;" parent="JHuxcT3J-h0tU2cZwM6Y-181" vertex="1">
          <mxGeometry x="380.5" y="355" width="10" height="10" as="geometry" />
        </mxCell>
        <mxCell id="JHuxcT3J-h0tU2cZwM6Y-249" value="" style="rhombus;whiteSpace=wrap;html=1;strokeColor=#2D7600;fillColor=#60a917;fontColor=#ffffff;" parent="JHuxcT3J-h0tU2cZwM6Y-181" vertex="1">
          <mxGeometry x="409.5" y="355" width="10" height="10" as="geometry" />
        </mxCell>
        <mxCell id="JHuxcT3J-h0tU2cZwM6Y-250" value="" style="rhombus;whiteSpace=wrap;html=1;strokeColor=#2D7600;fillColor=#60a917;fontColor=#ffffff;" parent="JHuxcT3J-h0tU2cZwM6Y-181" vertex="1">
          <mxGeometry x="380.5" y="275" width="10" height="10" as="geometry" />
        </mxCell>
        <mxCell id="JHuxcT3J-h0tU2cZwM6Y-251" value="" style="rhombus;whiteSpace=wrap;html=1;strokeColor=#2D7600;fillColor=#60a917;fontColor=#ffffff;" parent="JHuxcT3J-h0tU2cZwM6Y-181" vertex="1">
          <mxGeometry x="409.5" y="275" width="10" height="10" as="geometry" />
        </mxCell>
        <mxCell id="JHuxcT3J-h0tU2cZwM6Y-252" value="" style="rhombus;whiteSpace=wrap;html=1;strokeColor=#2D7600;fillColor=#60a917;fontColor=#ffffff;" parent="JHuxcT3J-h0tU2cZwM6Y-181" vertex="1">
          <mxGeometry x="380.5" y="195" width="10" height="10" as="geometry" />
        </mxCell>
        <mxCell id="JHuxcT3J-h0tU2cZwM6Y-253" value="" style="rhombus;whiteSpace=wrap;html=1;strokeColor=#2D7600;fillColor=#60a917;fontColor=#ffffff;" parent="JHuxcT3J-h0tU2cZwM6Y-181" vertex="1">
          <mxGeometry x="409.5" y="195" width="10" height="10" as="geometry" />
        </mxCell>
        <mxCell id="JHuxcT3J-h0tU2cZwM6Y-254" value="" style="rhombus;whiteSpace=wrap;html=1;strokeColor=#2D7600;fillColor=#60a917;fontColor=#ffffff;" parent="JHuxcT3J-h0tU2cZwM6Y-181" vertex="1">
          <mxGeometry x="380.5" y="115" width="10" height="10" as="geometry" />
        </mxCell>
        <mxCell id="JHuxcT3J-h0tU2cZwM6Y-255" value="" style="rhombus;whiteSpace=wrap;html=1;strokeColor=#2D7600;fillColor=#60a917;fontColor=#ffffff;" parent="JHuxcT3J-h0tU2cZwM6Y-181" vertex="1">
          <mxGeometry x="409.5" y="115" width="10" height="10" as="geometry" />
        </mxCell>
        <mxCell id="JHuxcT3J-h0tU2cZwM6Y-259" value="" style="rhombus;whiteSpace=wrap;html=1;strokeColor=#2D7600;fillColor=#60a917;fontColor=#ffffff;" parent="JHuxcT3J-h0tU2cZwM6Y-181" vertex="1">
          <mxGeometry x="385" y="155" width="10" height="10" as="geometry" />
        </mxCell>
        <mxCell id="JHuxcT3J-h0tU2cZwM6Y-260" value="" style="rhombus;whiteSpace=wrap;html=1;strokeColor=#2D7600;fillColor=#60a917;fontColor=#ffffff;" parent="JHuxcT3J-h0tU2cZwM6Y-181" vertex="1">
          <mxGeometry x="385" y="235" width="10" height="10" as="geometry" />
        </mxCell>
        <mxCell id="JHuxcT3J-h0tU2cZwM6Y-261" value="" style="rhombus;whiteSpace=wrap;html=1;strokeColor=#2D7600;fillColor=#60a917;fontColor=#ffffff;" parent="JHuxcT3J-h0tU2cZwM6Y-181" vertex="1">
          <mxGeometry x="385" y="315" width="10" height="10" as="geometry" />
        </mxCell>
        <mxCell id="JHuxcT3J-h0tU2cZwM6Y-263" value="" style="rhombus;whiteSpace=wrap;html=1;strokeColor=#2D7600;fillColor=#60a917;fontColor=#ffffff;" parent="JHuxcT3J-h0tU2cZwM6Y-181" vertex="1">
          <mxGeometry x="385" y="395" width="10" height="10" as="geometry" />
        </mxCell>
        <mxCell id="JHuxcT3J-h0tU2cZwM6Y-264" value="" style="rhombus;whiteSpace=wrap;html=1;strokeColor=#2D7600;fillColor=#60a917;fontColor=#ffffff;" parent="JHuxcT3J-h0tU2cZwM6Y-181" vertex="1">
          <mxGeometry x="385" y="475" width="10" height="10" as="geometry" />
        </mxCell>
        <mxCell id="JHuxcT3J-h0tU2cZwM6Y-265" value="" style="rhombus;whiteSpace=wrap;html=1;strokeColor=#2D7600;fillColor=#60a917;fontColor=#ffffff;" parent="JHuxcT3J-h0tU2cZwM6Y-181" vertex="1">
          <mxGeometry x="385" y="555" width="10" height="10" as="geometry" />
        </mxCell>
        <mxCell id="JHuxcT3J-h0tU2cZwM6Y-266" value="" style="rhombus;whiteSpace=wrap;html=1;strokeColor=#2D7600;fillColor=#60a917;fontColor=#ffffff;" parent="JHuxcT3J-h0tU2cZwM6Y-181" vertex="1">
          <mxGeometry x="385" y="635" width="10" height="10" as="geometry" />
        </mxCell>
        <mxCell id="JHuxcT3J-h0tU2cZwM6Y-267" value="" style="rhombus;whiteSpace=wrap;html=1;strokeColor=#2D7600;fillColor=#60a917;fontColor=#ffffff;" parent="JHuxcT3J-h0tU2cZwM6Y-181" vertex="1">
          <mxGeometry x="385" y="715" width="10" height="10" as="geometry" />
        </mxCell>
        <mxCell id="JHuxcT3J-h0tU2cZwM6Y-269" value="" style="endArrow=none;html=1;rounded=0;strokeWidth=4;fillColor=#e51400;strokeColor=#B20000;" parent="JHuxcT3J-h0tU2cZwM6Y-181" edge="1">
          <mxGeometry width="50" height="50" relative="1" as="geometry">
            <mxPoint x="40" y="370" as="sourcePoint" />
            <mxPoint x="60" y="370" as="targetPoint" />
          </mxGeometry>
        </mxCell>
        <mxCell id="JHuxcT3J-h0tU2cZwM6Y-270" value="" style="endArrow=none;html=1;rounded=0;strokeWidth=4;fillColor=#e51400;strokeColor=#B20000;" parent="JHuxcT3J-h0tU2cZwM6Y-181" edge="1">
          <mxGeometry width="50" height="50" relative="1" as="geometry">
            <mxPoint x="409" y="745" as="sourcePoint" />
            <mxPoint x="389" y="745" as="targetPoint" />
          </mxGeometry>
        </mxCell>
        <mxCell id="JHuxcT3J-h0tU2cZwM6Y-271" value="" style="endArrow=none;html=1;rounded=0;strokeWidth=4;fillColor=#e51400;strokeColor=#B20000;" parent="JHuxcT3J-h0tU2cZwM6Y-181" edge="1">
          <mxGeometry width="50" height="50" relative="1" as="geometry">
            <mxPoint x="409" y="696" as="sourcePoint" />
            <mxPoint x="389" y="696" as="targetPoint" />
          </mxGeometry>
        </mxCell>
        <mxCell id="JHuxcT3J-h0tU2cZwM6Y-272" value="" style="endArrow=none;html=1;rounded=0;strokeWidth=4;fillColor=#e51400;strokeColor=#B20000;" parent="JHuxcT3J-h0tU2cZwM6Y-181" edge="1">
          <mxGeometry width="50" height="50" relative="1" as="geometry">
            <mxPoint x="409" y="666" as="sourcePoint" />
            <mxPoint x="389" y="666" as="targetPoint" />
          </mxGeometry>
        </mxCell>
        <mxCell id="JHuxcT3J-h0tU2cZwM6Y-273" value="" style="endArrow=none;html=1;rounded=0;strokeWidth=4;fillColor=#e51400;strokeColor=#B20000;" parent="JHuxcT3J-h0tU2cZwM6Y-181" edge="1">
          <mxGeometry width="50" height="50" relative="1" as="geometry">
            <mxPoint x="409" y="616" as="sourcePoint" />
            <mxPoint x="389" y="616" as="targetPoint" />
          </mxGeometry>
        </mxCell>
        <mxCell id="JHuxcT3J-h0tU2cZwM6Y-274" value="" style="endArrow=none;html=1;rounded=0;strokeWidth=4;fillColor=#e51400;strokeColor=#B20000;" parent="JHuxcT3J-h0tU2cZwM6Y-181" edge="1">
          <mxGeometry width="50" height="50" relative="1" as="geometry">
            <mxPoint x="409.5" y="585" as="sourcePoint" />
            <mxPoint x="389.5" y="585" as="targetPoint" />
          </mxGeometry>
        </mxCell>
        <mxCell id="JHuxcT3J-h0tU2cZwM6Y-275" value="" style="endArrow=none;html=1;rounded=0;strokeWidth=4;fillColor=#e51400;strokeColor=#B20000;" parent="JHuxcT3J-h0tU2cZwM6Y-181" edge="1">
          <mxGeometry width="50" height="50" relative="1" as="geometry">
            <mxPoint x="409.5" y="536" as="sourcePoint" />
            <mxPoint x="389.5" y="536" as="targetPoint" />
          </mxGeometry>
        </mxCell>
        <mxCell id="JHuxcT3J-h0tU2cZwM6Y-276" value="" style="endArrow=none;html=1;rounded=0;strokeWidth=4;fillColor=#e51400;strokeColor=#B20000;" parent="JHuxcT3J-h0tU2cZwM6Y-181" edge="1">
          <mxGeometry width="50" height="50" relative="1" as="geometry">
            <mxPoint x="410" y="506" as="sourcePoint" />
            <mxPoint x="390" y="506" as="targetPoint" />
          </mxGeometry>
        </mxCell>
        <mxCell id="JHuxcT3J-h0tU2cZwM6Y-277" value="" style="endArrow=none;html=1;rounded=0;strokeWidth=4;fillColor=#e51400;strokeColor=#B20000;" parent="JHuxcT3J-h0tU2cZwM6Y-181" edge="1">
          <mxGeometry width="50" height="50" relative="1" as="geometry">
            <mxPoint x="410" y="454" as="sourcePoint" />
            <mxPoint x="390" y="454" as="targetPoint" />
          </mxGeometry>
        </mxCell>
        <mxCell id="JHuxcT3J-h0tU2cZwM6Y-278" value="" style="endArrow=none;html=1;rounded=0;strokeWidth=4;fillColor=#e51400;strokeColor=#B20000;" parent="JHuxcT3J-h0tU2cZwM6Y-181" edge="1">
          <mxGeometry width="50" height="50" relative="1" as="geometry">
            <mxPoint x="409" y="425.67" as="sourcePoint" />
            <mxPoint x="389" y="425.67" as="targetPoint" />
          </mxGeometry>
        </mxCell>
        <mxCell id="JHuxcT3J-h0tU2cZwM6Y-279" value="" style="endArrow=none;html=1;rounded=0;strokeWidth=4;fillColor=#e51400;strokeColor=#B20000;" parent="JHuxcT3J-h0tU2cZwM6Y-181" edge="1">
          <mxGeometry width="50" height="50" relative="1" as="geometry">
            <mxPoint x="409" y="376.33000000000004" as="sourcePoint" />
            <mxPoint x="389" y="376.33000000000004" as="targetPoint" />
          </mxGeometry>
        </mxCell>
        <mxCell id="JHuxcT3J-h0tU2cZwM6Y-280" value="" style="endArrow=none;html=1;rounded=0;strokeWidth=4;fillColor=#e51400;strokeColor=#B20000;" parent="JHuxcT3J-h0tU2cZwM6Y-181" edge="1">
          <mxGeometry width="50" height="50" relative="1" as="geometry">
            <mxPoint x="409" y="344.6700000000001" as="sourcePoint" />
            <mxPoint x="389" y="344.6700000000001" as="targetPoint" />
          </mxGeometry>
        </mxCell>
        <mxCell id="JHuxcT3J-h0tU2cZwM6Y-281" value="" style="endArrow=none;html=1;rounded=0;strokeWidth=4;fillColor=#e51400;strokeColor=#B20000;" parent="JHuxcT3J-h0tU2cZwM6Y-181" edge="1">
          <mxGeometry width="50" height="50" relative="1" as="geometry">
            <mxPoint x="409" y="294.6700000000001" as="sourcePoint" />
            <mxPoint x="389" y="294.6700000000001" as="targetPoint" />
          </mxGeometry>
        </mxCell>
        <mxCell id="JHuxcT3J-h0tU2cZwM6Y-282" value="" style="endArrow=none;html=1;rounded=0;strokeWidth=4;fillColor=#e51400;strokeColor=#B20000;" parent="JHuxcT3J-h0tU2cZwM6Y-181" edge="1">
          <mxGeometry width="50" height="50" relative="1" as="geometry">
            <mxPoint x="409" y="264.00000000000006" as="sourcePoint" />
            <mxPoint x="389" y="264.00000000000006" as="targetPoint" />
          </mxGeometry>
        </mxCell>
        <mxCell id="JHuxcT3J-h0tU2cZwM6Y-283" value="" style="endArrow=none;html=1;rounded=0;strokeWidth=4;fillColor=#e51400;strokeColor=#B20000;" parent="JHuxcT3J-h0tU2cZwM6Y-181" edge="1">
          <mxGeometry width="50" height="50" relative="1" as="geometry">
            <mxPoint x="409.5" y="216.32999999999998" as="sourcePoint" />
            <mxPoint x="389.5" y="216.32999999999998" as="targetPoint" />
          </mxGeometry>
        </mxCell>
        <mxCell id="JHuxcT3J-h0tU2cZwM6Y-284" value="" style="endArrow=none;html=1;rounded=0;strokeWidth=4;fillColor=#e51400;strokeColor=#B20000;" parent="JHuxcT3J-h0tU2cZwM6Y-181" edge="1">
          <mxGeometry width="50" height="50" relative="1" as="geometry">
            <mxPoint x="409.5" y="183.99999999999994" as="sourcePoint" />
            <mxPoint x="389.5" y="183.99999999999994" as="targetPoint" />
          </mxGeometry>
        </mxCell>
        <mxCell id="JHuxcT3J-h0tU2cZwM6Y-285" value="" style="endArrow=none;html=1;rounded=0;strokeWidth=4;fillColor=#e51400;strokeColor=#B20000;" parent="JHuxcT3J-h0tU2cZwM6Y-181" edge="1">
          <mxGeometry width="50" height="50" relative="1" as="geometry">
            <mxPoint x="410" y="134" as="sourcePoint" />
            <mxPoint x="390" y="134" as="targetPoint" />
          </mxGeometry>
        </mxCell>
        <mxCell id="JHuxcT3J-h0tU2cZwM6Y-286" value="" style="endArrow=none;html=1;rounded=0;strokeWidth=5;fillColor=#ffcc99;strokeColor=#FFCC99;" parent="JHuxcT3J-h0tU2cZwM6Y-181" edge="1">
          <mxGeometry width="50" height="50" relative="1" as="geometry">
            <mxPoint x="45" y="390" as="sourcePoint" />
            <mxPoint x="55" y="400" as="targetPoint" />
          </mxGeometry>
        </mxCell>
        <mxCell id="JHuxcT3J-h0tU2cZwM6Y-307" value="" style="endArrow=none;html=1;rounded=0;strokeWidth=5;fillColor=#ffcc99;strokeColor=#FFCC99;" parent="JHuxcT3J-h0tU2cZwM6Y-181" edge="1">
          <mxGeometry width="50" height="50" relative="1" as="geometry">
            <mxPoint x="644" y="730" as="sourcePoint" />
            <mxPoint x="654" y="740" as="targetPoint" />
          </mxGeometry>
        </mxCell>
        <mxCell id="JHuxcT3J-h0tU2cZwM6Y-308" value="" style="endArrow=none;html=1;rounded=0;strokeWidth=5;fillColor=#ffcc99;strokeColor=#FFCC99;" parent="JHuxcT3J-h0tU2cZwM6Y-181" edge="1">
          <mxGeometry width="50" height="50" relative="1" as="geometry">
            <mxPoint x="625" y="700" as="sourcePoint" />
            <mxPoint x="635" y="710" as="targetPoint" />
          </mxGeometry>
        </mxCell>
        <mxCell id="JHuxcT3J-h0tU2cZwM6Y-309" value="" style="endArrow=none;html=1;rounded=0;strokeWidth=5;fillColor=#ffcc99;strokeColor=#FFCC99;" parent="JHuxcT3J-h0tU2cZwM6Y-181" edge="1">
          <mxGeometry width="50" height="50" relative="1" as="geometry">
            <mxPoint x="645" y="650" as="sourcePoint" />
            <mxPoint x="655" y="660" as="targetPoint" />
          </mxGeometry>
        </mxCell>
        <mxCell id="JHuxcT3J-h0tU2cZwM6Y-310" value="" style="endArrow=none;html=1;rounded=0;strokeWidth=5;fillColor=#ffcc99;strokeColor=#FFCC99;" parent="JHuxcT3J-h0tU2cZwM6Y-181" edge="1">
          <mxGeometry width="50" height="50" relative="1" as="geometry">
            <mxPoint x="625" y="620" as="sourcePoint" />
            <mxPoint x="635" y="630" as="targetPoint" />
          </mxGeometry>
        </mxCell>
        <mxCell id="JHuxcT3J-h0tU2cZwM6Y-311" value="" style="endArrow=none;html=1;rounded=0;strokeWidth=5;fillColor=#ffcc99;strokeColor=#FFCC99;" parent="JHuxcT3J-h0tU2cZwM6Y-181" edge="1">
          <mxGeometry width="50" height="50" relative="1" as="geometry">
            <mxPoint x="644" y="570" as="sourcePoint" />
            <mxPoint x="654" y="580" as="targetPoint" />
          </mxGeometry>
        </mxCell>
        <mxCell id="JHuxcT3J-h0tU2cZwM6Y-312" value="" style="endArrow=none;html=1;rounded=0;strokeWidth=5;fillColor=#ffcc99;strokeColor=#FFCC99;" parent="JHuxcT3J-h0tU2cZwM6Y-181" edge="1">
          <mxGeometry width="50" height="50" relative="1" as="geometry">
            <mxPoint x="625" y="540" as="sourcePoint" />
            <mxPoint x="635" y="550" as="targetPoint" />
          </mxGeometry>
        </mxCell>
        <mxCell id="JHuxcT3J-h0tU2cZwM6Y-313" value="" style="endArrow=none;html=1;rounded=0;strokeWidth=5;fillColor=#ffcc99;strokeColor=#FFCC99;" parent="JHuxcT3J-h0tU2cZwM6Y-181" edge="1">
          <mxGeometry width="50" height="50" relative="1" as="geometry">
            <mxPoint x="644" y="490" as="sourcePoint" />
            <mxPoint x="654" y="500" as="targetPoint" />
          </mxGeometry>
        </mxCell>
        <mxCell id="JHuxcT3J-h0tU2cZwM6Y-314" value="" style="endArrow=none;html=1;rounded=0;strokeWidth=5;fillColor=#ffcc99;strokeColor=#FFCC99;" parent="JHuxcT3J-h0tU2cZwM6Y-181" edge="1">
          <mxGeometry width="50" height="50" relative="1" as="geometry">
            <mxPoint x="625" y="460" as="sourcePoint" />
            <mxPoint x="635" y="470" as="targetPoint" />
          </mxGeometry>
        </mxCell>
        <mxCell id="JHuxcT3J-h0tU2cZwM6Y-315" value="" style="endArrow=none;html=1;rounded=0;strokeWidth=5;fillColor=#ffcc99;strokeColor=#FFCC99;" parent="JHuxcT3J-h0tU2cZwM6Y-181" edge="1">
          <mxGeometry width="50" height="50" relative="1" as="geometry">
            <mxPoint x="644" y="410" as="sourcePoint" />
            <mxPoint x="654" y="420" as="targetPoint" />
          </mxGeometry>
        </mxCell>
        <mxCell id="JHuxcT3J-h0tU2cZwM6Y-316" value="" style="endArrow=none;html=1;rounded=0;strokeWidth=5;fillColor=#ffcc99;strokeColor=#FFCC99;" parent="JHuxcT3J-h0tU2cZwM6Y-181" edge="1">
          <mxGeometry width="50" height="50" relative="1" as="geometry">
            <mxPoint x="625" y="380" as="sourcePoint" />
            <mxPoint x="635" y="390" as="targetPoint" />
          </mxGeometry>
        </mxCell>
        <mxCell id="JHuxcT3J-h0tU2cZwM6Y-317" value="" style="endArrow=none;html=1;rounded=0;strokeWidth=5;fillColor=#ffcc99;strokeColor=#FFCC99;" parent="JHuxcT3J-h0tU2cZwM6Y-181" edge="1">
          <mxGeometry width="50" height="50" relative="1" as="geometry">
            <mxPoint x="645" y="330" as="sourcePoint" />
            <mxPoint x="655" y="340" as="targetPoint" />
          </mxGeometry>
        </mxCell>
        <mxCell id="JHuxcT3J-h0tU2cZwM6Y-318" value="" style="endArrow=none;html=1;rounded=0;strokeWidth=5;fillColor=#ffcc99;strokeColor=#FFCC99;" parent="JHuxcT3J-h0tU2cZwM6Y-181" edge="1">
          <mxGeometry width="50" height="50" relative="1" as="geometry">
            <mxPoint x="625" y="300" as="sourcePoint" />
            <mxPoint x="635" y="310" as="targetPoint" />
          </mxGeometry>
        </mxCell>
        <mxCell id="JHuxcT3J-h0tU2cZwM6Y-319" value="" style="endArrow=none;html=1;rounded=0;strokeWidth=5;fillColor=#ffcc99;strokeColor=#FFCC99;" parent="JHuxcT3J-h0tU2cZwM6Y-181" edge="1">
          <mxGeometry width="50" height="50" relative="1" as="geometry">
            <mxPoint x="645" y="250" as="sourcePoint" />
            <mxPoint x="655" y="260" as="targetPoint" />
          </mxGeometry>
        </mxCell>
        <mxCell id="JHuxcT3J-h0tU2cZwM6Y-320" value="" style="endArrow=none;html=1;rounded=0;strokeWidth=5;fillColor=#ffcc99;strokeColor=#FFCC99;" parent="JHuxcT3J-h0tU2cZwM6Y-181" edge="1">
          <mxGeometry width="50" height="50" relative="1" as="geometry">
            <mxPoint x="625" y="220" as="sourcePoint" />
            <mxPoint x="635" y="230" as="targetPoint" />
          </mxGeometry>
        </mxCell>
        <mxCell id="JHuxcT3J-h0tU2cZwM6Y-321" value="" style="endArrow=none;html=1;rounded=0;strokeWidth=5;fillColor=#ffcc99;strokeColor=#FFCC99;" parent="JHuxcT3J-h0tU2cZwM6Y-181" edge="1">
          <mxGeometry width="50" height="50" relative="1" as="geometry">
            <mxPoint x="645" y="170" as="sourcePoint" />
            <mxPoint x="655" y="180" as="targetPoint" />
          </mxGeometry>
        </mxCell>
        <mxCell id="JHuxcT3J-h0tU2cZwM6Y-322" value="" style="endArrow=none;html=1;rounded=0;strokeWidth=5;fillColor=#ffcc99;strokeColor=#FFCC99;" parent="JHuxcT3J-h0tU2cZwM6Y-181" edge="1">
          <mxGeometry width="50" height="50" relative="1" as="geometry">
            <mxPoint x="625" y="140" as="sourcePoint" />
            <mxPoint x="635" y="150" as="targetPoint" />
          </mxGeometry>
        </mxCell>
        <mxCell id="JHuxcT3J-h0tU2cZwM6Y-323" value="" style="ellipse;whiteSpace=wrap;html=1;strokeColor=#3700CC;fillColor=#6a00ff;fontColor=#ffffff;" parent="JHuxcT3J-h0tU2cZwM6Y-181" vertex="1">
          <mxGeometry x="635" y="700" width="10" height="40" as="geometry" />
        </mxCell>
        <mxCell id="JHuxcT3J-h0tU2cZwM6Y-324" value="" style="ellipse;whiteSpace=wrap;html=1;strokeColor=#3700CC;fillColor=#6a00ff;fontColor=#ffffff;" parent="JHuxcT3J-h0tU2cZwM6Y-181" vertex="1">
          <mxGeometry x="635" y="620" width="10" height="40" as="geometry" />
        </mxCell>
        <mxCell id="JHuxcT3J-h0tU2cZwM6Y-325" value="" style="ellipse;whiteSpace=wrap;html=1;strokeColor=#3700CC;fillColor=#6a00ff;fontColor=#ffffff;" parent="JHuxcT3J-h0tU2cZwM6Y-181" vertex="1">
          <mxGeometry x="635" y="540" width="10" height="40" as="geometry" />
        </mxCell>
        <mxCell id="JHuxcT3J-h0tU2cZwM6Y-326" value="" style="ellipse;whiteSpace=wrap;html=1;strokeColor=#3700CC;fillColor=#6a00ff;fontColor=#ffffff;" parent="JHuxcT3J-h0tU2cZwM6Y-181" vertex="1">
          <mxGeometry x="635" y="460" width="10" height="40" as="geometry" />
        </mxCell>
        <mxCell id="JHuxcT3J-h0tU2cZwM6Y-327" value="" style="ellipse;whiteSpace=wrap;html=1;strokeColor=#3700CC;fillColor=#6a00ff;fontColor=#ffffff;" parent="JHuxcT3J-h0tU2cZwM6Y-181" vertex="1">
          <mxGeometry x="635" y="380" width="10" height="40" as="geometry" />
        </mxCell>
        <mxCell id="JHuxcT3J-h0tU2cZwM6Y-328" value="" style="ellipse;whiteSpace=wrap;html=1;strokeColor=#3700CC;fillColor=#6a00ff;fontColor=#ffffff;" parent="JHuxcT3J-h0tU2cZwM6Y-181" vertex="1">
          <mxGeometry x="635" y="300" width="10" height="40" as="geometry" />
        </mxCell>
        <mxCell id="JHuxcT3J-h0tU2cZwM6Y-329" value="" style="ellipse;whiteSpace=wrap;html=1;strokeColor=#3700CC;fillColor=#6a00ff;fontColor=#ffffff;" parent="JHuxcT3J-h0tU2cZwM6Y-181" vertex="1">
          <mxGeometry x="635" y="220" width="10" height="40" as="geometry" />
        </mxCell>
        <mxCell id="JHuxcT3J-h0tU2cZwM6Y-330" value="" style="ellipse;whiteSpace=wrap;html=1;strokeColor=#3700CC;fillColor=#6a00ff;fontColor=#ffffff;" parent="JHuxcT3J-h0tU2cZwM6Y-181" vertex="1">
          <mxGeometry x="635" y="140" width="10" height="40" as="geometry" />
        </mxCell>
        <mxCell id="JHuxcT3J-h0tU2cZwM6Y-331" value="B" style="ellipse;whiteSpace=wrap;html=1;aspect=fixed;strokeColor=#6c8ebf;fillColor=#dae8fc;" parent="JHuxcT3J-h0tU2cZwM6Y-181" vertex="1">
          <mxGeometry x="630" y="750" width="20" height="20" as="geometry" />
        </mxCell>
        <mxCell id="JHuxcT3J-h0tU2cZwM6Y-332" value="B" style="ellipse;whiteSpace=wrap;html=1;aspect=fixed;strokeColor=#6c8ebf;fillColor=#dae8fc;" parent="JHuxcT3J-h0tU2cZwM6Y-181" vertex="1">
          <mxGeometry x="630" y="590" width="20" height="20" as="geometry" />
        </mxCell>
        <mxCell id="JHuxcT3J-h0tU2cZwM6Y-333" value="B" style="ellipse;whiteSpace=wrap;html=1;aspect=fixed;strokeColor=#6c8ebf;fillColor=#dae8fc;" parent="JHuxcT3J-h0tU2cZwM6Y-181" vertex="1">
          <mxGeometry x="630" y="430" width="20" height="20" as="geometry" />
        </mxCell>
        <mxCell id="JHuxcT3J-h0tU2cZwM6Y-334" value="B" style="ellipse;whiteSpace=wrap;html=1;aspect=fixed;strokeColor=#6c8ebf;fillColor=#dae8fc;" parent="JHuxcT3J-h0tU2cZwM6Y-181" vertex="1">
          <mxGeometry x="630" y="270" width="20" height="20" as="geometry" />
        </mxCell>
        <mxCell id="JHuxcT3J-h0tU2cZwM6Y-335" value="B" style="ellipse;whiteSpace=wrap;html=1;aspect=fixed;strokeColor=#6c8ebf;fillColor=#dae8fc;" parent="JHuxcT3J-h0tU2cZwM6Y-181" vertex="1">
          <mxGeometry x="630" y="110" width="20" height="20" as="geometry" />
        </mxCell>
        <mxCell id="JHuxcT3J-h0tU2cZwM6Y-336" value="C" style="ellipse;whiteSpace=wrap;html=1;aspect=fixed;strokeColor=#BD7000;fillColor=#f0a30a;fontColor=#000000;" parent="JHuxcT3J-h0tU2cZwM6Y-181" vertex="1">
          <mxGeometry x="630" y="190" width="20" height="20" as="geometry" />
        </mxCell>
        <mxCell id="JHuxcT3J-h0tU2cZwM6Y-337" value="C" style="ellipse;whiteSpace=wrap;html=1;aspect=fixed;strokeColor=#BD7000;fillColor=#f0a30a;fontColor=#000000;" parent="JHuxcT3J-h0tU2cZwM6Y-181" vertex="1">
          <mxGeometry x="630" y="350" width="20" height="20" as="geometry" />
        </mxCell>
        <mxCell id="JHuxcT3J-h0tU2cZwM6Y-338" value="C" style="ellipse;whiteSpace=wrap;html=1;aspect=fixed;strokeColor=#BD7000;fillColor=#f0a30a;fontColor=#000000;" parent="JHuxcT3J-h0tU2cZwM6Y-181" vertex="1">
          <mxGeometry x="630" y="510" width="20" height="20" as="geometry" />
        </mxCell>
        <mxCell id="JHuxcT3J-h0tU2cZwM6Y-339" value="C" style="ellipse;whiteSpace=wrap;html=1;aspect=fixed;strokeColor=#BD7000;fillColor=#f0a30a;fontColor=#000000;" parent="JHuxcT3J-h0tU2cZwM6Y-181" vertex="1">
          <mxGeometry x="630" y="670" width="20" height="20" as="geometry" />
        </mxCell>
        <mxCell id="JHuxcT3J-h0tU2cZwM6Y-340" value="E" style="ellipse;whiteSpace=wrap;html=1;aspect=fixed;strokeColor=#005700;fillColor=#008a00;fontColor=#ffffff;" parent="JHuxcT3J-h0tU2cZwM6Y-181" vertex="1">
          <mxGeometry x="630" y="150" width="20" height="20" as="geometry" />
        </mxCell>
        <mxCell id="JHuxcT3J-h0tU2cZwM6Y-341" value="E" style="ellipse;whiteSpace=wrap;html=1;aspect=fixed;strokeColor=#005700;fillColor=#008a00;fontColor=#ffffff;" parent="JHuxcT3J-h0tU2cZwM6Y-181" vertex="1">
          <mxGeometry x="630" y="230" width="20" height="20" as="geometry" />
        </mxCell>
        <mxCell id="JHuxcT3J-h0tU2cZwM6Y-342" value="E" style="ellipse;whiteSpace=wrap;html=1;aspect=fixed;strokeColor=#005700;fillColor=#008a00;fontColor=#ffffff;" parent="JHuxcT3J-h0tU2cZwM6Y-181" vertex="1">
          <mxGeometry x="630" y="310" width="20" height="20" as="geometry" />
        </mxCell>
        <mxCell id="JHuxcT3J-h0tU2cZwM6Y-343" value="E" style="ellipse;whiteSpace=wrap;html=1;aspect=fixed;strokeColor=#005700;fillColor=#008a00;fontColor=#ffffff;" parent="JHuxcT3J-h0tU2cZwM6Y-181" vertex="1">
          <mxGeometry x="630" y="390" width="20" height="20" as="geometry" />
        </mxCell>
        <mxCell id="JHuxcT3J-h0tU2cZwM6Y-344" value="E" style="ellipse;whiteSpace=wrap;html=1;aspect=fixed;strokeColor=#005700;fillColor=#008a00;fontColor=#ffffff;" parent="JHuxcT3J-h0tU2cZwM6Y-181" vertex="1">
          <mxGeometry x="630" y="470" width="20" height="20" as="geometry" />
        </mxCell>
        <mxCell id="JHuxcT3J-h0tU2cZwM6Y-345" value="E" style="ellipse;whiteSpace=wrap;html=1;aspect=fixed;strokeColor=#005700;fillColor=#008a00;fontColor=#ffffff;" parent="JHuxcT3J-h0tU2cZwM6Y-181" vertex="1">
          <mxGeometry x="630" y="550" width="20" height="20" as="geometry" />
        </mxCell>
        <mxCell id="JHuxcT3J-h0tU2cZwM6Y-346" value="E" style="ellipse;whiteSpace=wrap;html=1;aspect=fixed;strokeColor=#005700;fillColor=#008a00;fontColor=#ffffff;" parent="JHuxcT3J-h0tU2cZwM6Y-181" vertex="1">
          <mxGeometry x="630" y="630" width="20" height="20" as="geometry" />
        </mxCell>
        <mxCell id="JHuxcT3J-h0tU2cZwM6Y-347" value="E" style="ellipse;whiteSpace=wrap;html=1;aspect=fixed;strokeColor=#005700;fillColor=#008a00;fontColor=#ffffff;" parent="JHuxcT3J-h0tU2cZwM6Y-181" vertex="1">
          <mxGeometry x="630" y="710" width="20" height="20" as="geometry" />
        </mxCell>
        <mxCell id="JHuxcT3J-h0tU2cZwM6Y-348" value="" style="rhombus;whiteSpace=wrap;html=1;strokeColor=#2D7600;fillColor=#60a917;fontColor=#ffffff;" parent="JHuxcT3J-h0tU2cZwM6Y-181" vertex="1">
          <mxGeometry x="620" y="755" width="10" height="10" as="geometry" />
        </mxCell>
        <mxCell id="JHuxcT3J-h0tU2cZwM6Y-349" value="" style="rhombus;whiteSpace=wrap;html=1;strokeColor=#2D7600;fillColor=#60a917;fontColor=#ffffff;" parent="JHuxcT3J-h0tU2cZwM6Y-181" vertex="1">
          <mxGeometry x="649" y="755" width="10" height="10" as="geometry" />
        </mxCell>
        <mxCell id="JHuxcT3J-h0tU2cZwM6Y-350" value="" style="rhombus;whiteSpace=wrap;html=1;strokeColor=#2D7600;fillColor=#60a917;fontColor=#ffffff;" parent="JHuxcT3J-h0tU2cZwM6Y-181" vertex="1">
          <mxGeometry x="620.5" y="675" width="10" height="10" as="geometry" />
        </mxCell>
        <mxCell id="JHuxcT3J-h0tU2cZwM6Y-351" value="" style="rhombus;whiteSpace=wrap;html=1;strokeColor=#2D7600;fillColor=#60a917;fontColor=#ffffff;" parent="JHuxcT3J-h0tU2cZwM6Y-181" vertex="1">
          <mxGeometry x="649.5" y="675" width="10" height="10" as="geometry" />
        </mxCell>
        <mxCell id="JHuxcT3J-h0tU2cZwM6Y-352" value="" style="rhombus;whiteSpace=wrap;html=1;strokeColor=#2D7600;fillColor=#60a917;fontColor=#ffffff;" parent="JHuxcT3J-h0tU2cZwM6Y-181" vertex="1">
          <mxGeometry x="620" y="595" width="10" height="10" as="geometry" />
        </mxCell>
        <mxCell id="JHuxcT3J-h0tU2cZwM6Y-353" value="" style="rhombus;whiteSpace=wrap;html=1;strokeColor=#2D7600;fillColor=#60a917;fontColor=#ffffff;" parent="JHuxcT3J-h0tU2cZwM6Y-181" vertex="1">
          <mxGeometry x="649" y="595" width="10" height="10" as="geometry" />
        </mxCell>
        <mxCell id="JHuxcT3J-h0tU2cZwM6Y-354" value="" style="rhombus;whiteSpace=wrap;html=1;strokeColor=#2D7600;fillColor=#60a917;fontColor=#ffffff;" parent="JHuxcT3J-h0tU2cZwM6Y-181" vertex="1">
          <mxGeometry x="620.5" y="515" width="10" height="10" as="geometry" />
        </mxCell>
        <mxCell id="JHuxcT3J-h0tU2cZwM6Y-355" value="" style="rhombus;whiteSpace=wrap;html=1;strokeColor=#2D7600;fillColor=#60a917;fontColor=#ffffff;" parent="JHuxcT3J-h0tU2cZwM6Y-181" vertex="1">
          <mxGeometry x="649.5" y="515" width="10" height="10" as="geometry" />
        </mxCell>
        <mxCell id="JHuxcT3J-h0tU2cZwM6Y-356" value="" style="rhombus;whiteSpace=wrap;html=1;strokeColor=#2D7600;fillColor=#60a917;fontColor=#ffffff;" parent="JHuxcT3J-h0tU2cZwM6Y-181" vertex="1">
          <mxGeometry x="620.5" y="435" width="10" height="10" as="geometry" />
        </mxCell>
        <mxCell id="JHuxcT3J-h0tU2cZwM6Y-357" value="" style="rhombus;whiteSpace=wrap;html=1;strokeColor=#2D7600;fillColor=#60a917;fontColor=#ffffff;" parent="JHuxcT3J-h0tU2cZwM6Y-181" vertex="1">
          <mxGeometry x="649.5" y="435" width="10" height="10" as="geometry" />
        </mxCell>
        <mxCell id="JHuxcT3J-h0tU2cZwM6Y-358" value="" style="rhombus;whiteSpace=wrap;html=1;strokeColor=#2D7600;fillColor=#60a917;fontColor=#ffffff;" parent="JHuxcT3J-h0tU2cZwM6Y-181" vertex="1">
          <mxGeometry x="620.5" y="355" width="10" height="10" as="geometry" />
        </mxCell>
        <mxCell id="JHuxcT3J-h0tU2cZwM6Y-359" value="" style="rhombus;whiteSpace=wrap;html=1;strokeColor=#2D7600;fillColor=#60a917;fontColor=#ffffff;" parent="JHuxcT3J-h0tU2cZwM6Y-181" vertex="1">
          <mxGeometry x="649.5" y="355" width="10" height="10" as="geometry" />
        </mxCell>
        <mxCell id="JHuxcT3J-h0tU2cZwM6Y-360" value="" style="rhombus;whiteSpace=wrap;html=1;strokeColor=#2D7600;fillColor=#60a917;fontColor=#ffffff;" parent="JHuxcT3J-h0tU2cZwM6Y-181" vertex="1">
          <mxGeometry x="620.5" y="275" width="10" height="10" as="geometry" />
        </mxCell>
        <mxCell id="JHuxcT3J-h0tU2cZwM6Y-361" value="" style="rhombus;whiteSpace=wrap;html=1;strokeColor=#2D7600;fillColor=#60a917;fontColor=#ffffff;" parent="JHuxcT3J-h0tU2cZwM6Y-181" vertex="1">
          <mxGeometry x="649.5" y="275" width="10" height="10" as="geometry" />
        </mxCell>
        <mxCell id="JHuxcT3J-h0tU2cZwM6Y-362" value="" style="rhombus;whiteSpace=wrap;html=1;strokeColor=#2D7600;fillColor=#60a917;fontColor=#ffffff;" parent="JHuxcT3J-h0tU2cZwM6Y-181" vertex="1">
          <mxGeometry x="620.5" y="195" width="10" height="10" as="geometry" />
        </mxCell>
        <mxCell id="JHuxcT3J-h0tU2cZwM6Y-363" value="" style="rhombus;whiteSpace=wrap;html=1;strokeColor=#2D7600;fillColor=#60a917;fontColor=#ffffff;" parent="JHuxcT3J-h0tU2cZwM6Y-181" vertex="1">
          <mxGeometry x="649.5" y="195" width="10" height="10" as="geometry" />
        </mxCell>
        <mxCell id="JHuxcT3J-h0tU2cZwM6Y-364" value="" style="rhombus;whiteSpace=wrap;html=1;strokeColor=#2D7600;fillColor=#60a917;fontColor=#ffffff;" parent="JHuxcT3J-h0tU2cZwM6Y-181" vertex="1">
          <mxGeometry x="620.5" y="115" width="10" height="10" as="geometry" />
        </mxCell>
        <mxCell id="JHuxcT3J-h0tU2cZwM6Y-365" value="" style="rhombus;whiteSpace=wrap;html=1;strokeColor=#2D7600;fillColor=#60a917;fontColor=#ffffff;" parent="JHuxcT3J-h0tU2cZwM6Y-181" vertex="1">
          <mxGeometry x="649.5" y="115" width="10" height="10" as="geometry" />
        </mxCell>
        <mxCell id="JHuxcT3J-h0tU2cZwM6Y-366" value="" style="rhombus;whiteSpace=wrap;html=1;strokeColor=#2D7600;fillColor=#60a917;fontColor=#ffffff;" parent="JHuxcT3J-h0tU2cZwM6Y-181" vertex="1">
          <mxGeometry x="625" y="155" width="10" height="10" as="geometry" />
        </mxCell>
        <mxCell id="JHuxcT3J-h0tU2cZwM6Y-367" value="" style="rhombus;whiteSpace=wrap;html=1;strokeColor=#2D7600;fillColor=#60a917;fontColor=#ffffff;" parent="JHuxcT3J-h0tU2cZwM6Y-181" vertex="1">
          <mxGeometry x="625" y="235" width="10" height="10" as="geometry" />
        </mxCell>
        <mxCell id="JHuxcT3J-h0tU2cZwM6Y-368" value="" style="rhombus;whiteSpace=wrap;html=1;strokeColor=#2D7600;fillColor=#60a917;fontColor=#ffffff;" parent="JHuxcT3J-h0tU2cZwM6Y-181" vertex="1">
          <mxGeometry x="625" y="315" width="10" height="10" as="geometry" />
        </mxCell>
        <mxCell id="JHuxcT3J-h0tU2cZwM6Y-369" value="" style="rhombus;whiteSpace=wrap;html=1;strokeColor=#2D7600;fillColor=#60a917;fontColor=#ffffff;" parent="JHuxcT3J-h0tU2cZwM6Y-181" vertex="1">
          <mxGeometry x="625" y="395" width="10" height="10" as="geometry" />
        </mxCell>
        <mxCell id="JHuxcT3J-h0tU2cZwM6Y-370" value="" style="rhombus;whiteSpace=wrap;html=1;strokeColor=#2D7600;fillColor=#60a917;fontColor=#ffffff;" parent="JHuxcT3J-h0tU2cZwM6Y-181" vertex="1">
          <mxGeometry x="625" y="475" width="10" height="10" as="geometry" />
        </mxCell>
        <mxCell id="JHuxcT3J-h0tU2cZwM6Y-371" value="" style="rhombus;whiteSpace=wrap;html=1;strokeColor=#2D7600;fillColor=#60a917;fontColor=#ffffff;" parent="JHuxcT3J-h0tU2cZwM6Y-181" vertex="1">
          <mxGeometry x="625" y="555" width="10" height="10" as="geometry" />
        </mxCell>
        <mxCell id="JHuxcT3J-h0tU2cZwM6Y-372" value="" style="rhombus;whiteSpace=wrap;html=1;strokeColor=#2D7600;fillColor=#60a917;fontColor=#ffffff;" parent="JHuxcT3J-h0tU2cZwM6Y-181" vertex="1">
          <mxGeometry x="625" y="635" width="10" height="10" as="geometry" />
        </mxCell>
        <mxCell id="JHuxcT3J-h0tU2cZwM6Y-373" value="" style="rhombus;whiteSpace=wrap;html=1;strokeColor=#2D7600;fillColor=#60a917;fontColor=#ffffff;" parent="JHuxcT3J-h0tU2cZwM6Y-181" vertex="1">
          <mxGeometry x="625" y="715" width="10" height="10" as="geometry" />
        </mxCell>
        <mxCell id="JHuxcT3J-h0tU2cZwM6Y-374" value="" style="endArrow=none;html=1;rounded=0;strokeWidth=4;fillColor=#e51400;strokeColor=#B20000;" parent="JHuxcT3J-h0tU2cZwM6Y-181" edge="1">
          <mxGeometry width="50" height="50" relative="1" as="geometry">
            <mxPoint x="649" y="745" as="sourcePoint" />
            <mxPoint x="629" y="745" as="targetPoint" />
          </mxGeometry>
        </mxCell>
        <mxCell id="JHuxcT3J-h0tU2cZwM6Y-375" value="" style="endArrow=none;html=1;rounded=0;strokeWidth=4;fillColor=#e51400;strokeColor=#B20000;" parent="JHuxcT3J-h0tU2cZwM6Y-181" edge="1">
          <mxGeometry width="50" height="50" relative="1" as="geometry">
            <mxPoint x="649" y="696" as="sourcePoint" />
            <mxPoint x="629" y="696" as="targetPoint" />
          </mxGeometry>
        </mxCell>
        <mxCell id="JHuxcT3J-h0tU2cZwM6Y-376" value="" style="endArrow=none;html=1;rounded=0;strokeWidth=4;fillColor=#e51400;strokeColor=#B20000;" parent="JHuxcT3J-h0tU2cZwM6Y-181" edge="1">
          <mxGeometry width="50" height="50" relative="1" as="geometry">
            <mxPoint x="649" y="666" as="sourcePoint" />
            <mxPoint x="629" y="666" as="targetPoint" />
          </mxGeometry>
        </mxCell>
        <mxCell id="JHuxcT3J-h0tU2cZwM6Y-377" value="" style="endArrow=none;html=1;rounded=0;strokeWidth=4;fillColor=#e51400;strokeColor=#B20000;" parent="JHuxcT3J-h0tU2cZwM6Y-181" edge="1">
          <mxGeometry width="50" height="50" relative="1" as="geometry">
            <mxPoint x="649" y="616" as="sourcePoint" />
            <mxPoint x="629" y="616" as="targetPoint" />
          </mxGeometry>
        </mxCell>
        <mxCell id="JHuxcT3J-h0tU2cZwM6Y-378" value="" style="endArrow=none;html=1;rounded=0;strokeWidth=4;fillColor=#e51400;strokeColor=#B20000;" parent="JHuxcT3J-h0tU2cZwM6Y-181" edge="1">
          <mxGeometry width="50" height="50" relative="1" as="geometry">
            <mxPoint x="649.5" y="585" as="sourcePoint" />
            <mxPoint x="629.5" y="585" as="targetPoint" />
          </mxGeometry>
        </mxCell>
        <mxCell id="JHuxcT3J-h0tU2cZwM6Y-379" value="" style="endArrow=none;html=1;rounded=0;strokeWidth=4;fillColor=#e51400;strokeColor=#B20000;" parent="JHuxcT3J-h0tU2cZwM6Y-181" edge="1">
          <mxGeometry width="50" height="50" relative="1" as="geometry">
            <mxPoint x="649.5" y="536" as="sourcePoint" />
            <mxPoint x="629.5" y="536" as="targetPoint" />
          </mxGeometry>
        </mxCell>
        <mxCell id="JHuxcT3J-h0tU2cZwM6Y-380" value="" style="endArrow=none;html=1;rounded=0;strokeWidth=4;fillColor=#e51400;strokeColor=#B20000;" parent="JHuxcT3J-h0tU2cZwM6Y-181" edge="1">
          <mxGeometry width="50" height="50" relative="1" as="geometry">
            <mxPoint x="650" y="506" as="sourcePoint" />
            <mxPoint x="630" y="506" as="targetPoint" />
          </mxGeometry>
        </mxCell>
        <mxCell id="JHuxcT3J-h0tU2cZwM6Y-381" value="" style="endArrow=none;html=1;rounded=0;strokeWidth=4;fillColor=#e51400;strokeColor=#B20000;" parent="JHuxcT3J-h0tU2cZwM6Y-181" edge="1">
          <mxGeometry width="50" height="50" relative="1" as="geometry">
            <mxPoint x="650" y="454" as="sourcePoint" />
            <mxPoint x="630" y="454" as="targetPoint" />
          </mxGeometry>
        </mxCell>
        <mxCell id="JHuxcT3J-h0tU2cZwM6Y-382" value="" style="endArrow=none;html=1;rounded=0;strokeWidth=4;fillColor=#e51400;strokeColor=#B20000;" parent="JHuxcT3J-h0tU2cZwM6Y-181" edge="1">
          <mxGeometry width="50" height="50" relative="1" as="geometry">
            <mxPoint x="649" y="425.6700000000001" as="sourcePoint" />
            <mxPoint x="629" y="425.6700000000001" as="targetPoint" />
          </mxGeometry>
        </mxCell>
        <mxCell id="JHuxcT3J-h0tU2cZwM6Y-383" value="" style="endArrow=none;html=1;rounded=0;strokeWidth=4;fillColor=#e51400;strokeColor=#B20000;" parent="JHuxcT3J-h0tU2cZwM6Y-181" edge="1">
          <mxGeometry width="50" height="50" relative="1" as="geometry">
            <mxPoint x="649" y="376.3299999999999" as="sourcePoint" />
            <mxPoint x="629" y="376.3299999999999" as="targetPoint" />
          </mxGeometry>
        </mxCell>
        <mxCell id="JHuxcT3J-h0tU2cZwM6Y-384" value="" style="endArrow=none;html=1;rounded=0;strokeWidth=4;fillColor=#e51400;strokeColor=#B20000;" parent="JHuxcT3J-h0tU2cZwM6Y-181" edge="1">
          <mxGeometry width="50" height="50" relative="1" as="geometry">
            <mxPoint x="649" y="344.6700000000001" as="sourcePoint" />
            <mxPoint x="629" y="344.6700000000001" as="targetPoint" />
          </mxGeometry>
        </mxCell>
        <mxCell id="JHuxcT3J-h0tU2cZwM6Y-385" value="" style="endArrow=none;html=1;rounded=0;strokeWidth=4;fillColor=#e51400;strokeColor=#B20000;" parent="JHuxcT3J-h0tU2cZwM6Y-181" edge="1">
          <mxGeometry width="50" height="50" relative="1" as="geometry">
            <mxPoint x="649" y="294.6700000000001" as="sourcePoint" />
            <mxPoint x="629" y="294.6700000000001" as="targetPoint" />
          </mxGeometry>
        </mxCell>
        <mxCell id="JHuxcT3J-h0tU2cZwM6Y-386" value="" style="endArrow=none;html=1;rounded=0;strokeWidth=4;fillColor=#e51400;strokeColor=#B20000;" parent="JHuxcT3J-h0tU2cZwM6Y-181" edge="1">
          <mxGeometry width="50" height="50" relative="1" as="geometry">
            <mxPoint x="649" y="264" as="sourcePoint" />
            <mxPoint x="629" y="264" as="targetPoint" />
          </mxGeometry>
        </mxCell>
        <mxCell id="JHuxcT3J-h0tU2cZwM6Y-387" value="" style="endArrow=none;html=1;rounded=0;strokeWidth=4;fillColor=#e51400;strokeColor=#B20000;" parent="JHuxcT3J-h0tU2cZwM6Y-181" edge="1">
          <mxGeometry width="50" height="50" relative="1" as="geometry">
            <mxPoint x="649.5" y="216.32999999999993" as="sourcePoint" />
            <mxPoint x="629.5" y="216.32999999999993" as="targetPoint" />
          </mxGeometry>
        </mxCell>
        <mxCell id="JHuxcT3J-h0tU2cZwM6Y-388" value="" style="endArrow=none;html=1;rounded=0;strokeWidth=4;fillColor=#e51400;strokeColor=#B20000;" parent="JHuxcT3J-h0tU2cZwM6Y-181" edge="1">
          <mxGeometry width="50" height="50" relative="1" as="geometry">
            <mxPoint x="649.5" y="184" as="sourcePoint" />
            <mxPoint x="629.5" y="184" as="targetPoint" />
          </mxGeometry>
        </mxCell>
        <mxCell id="JHuxcT3J-h0tU2cZwM6Y-389" value="" style="endArrow=none;html=1;rounded=0;strokeWidth=4;fillColor=#e51400;strokeColor=#B20000;" parent="JHuxcT3J-h0tU2cZwM6Y-181" edge="1">
          <mxGeometry width="50" height="50" relative="1" as="geometry">
            <mxPoint x="650" y="134" as="sourcePoint" />
            <mxPoint x="630" y="134" as="targetPoint" />
          </mxGeometry>
        </mxCell>
        <mxCell id="2Ms6hGy1cNAkD8y6Jtei-15" value="10x" style="text;html=1;align=center;verticalAlign=middle;resizable=0;points=[];autosize=1;strokeColor=none;fillColor=none;" parent="JHuxcT3J-h0tU2cZwM6Y-181" vertex="1">
          <mxGeometry x="8" y="229" width="40" height="30" as="geometry" />
        </mxCell>
        <mxCell id="2Ms6hGy1cNAkD8y6Jtei-16" value="16x" style="text;html=1;align=center;verticalAlign=middle;resizable=0;points=[];autosize=1;strokeColor=none;fillColor=none;" parent="JHuxcT3J-h0tU2cZwM6Y-181" vertex="1">
          <mxGeometry x="8" y="254" width="40" height="30" as="geometry" />
        </mxCell>
        <mxCell id="2Ms6hGy1cNAkD8y6Jtei-17" value="8x" style="text;html=1;align=center;verticalAlign=middle;resizable=0;points=[];autosize=1;strokeColor=none;fillColor=none;" parent="JHuxcT3J-h0tU2cZwM6Y-181" vertex="1">
          <mxGeometry x="9" y="279" width="40" height="30" as="geometry" />
        </mxCell>
        <mxCell id="2Ms6hGy1cNAkD8y6Jtei-18" value="34x" style="text;html=1;align=center;verticalAlign=middle;resizable=0;points=[];autosize=1;strokeColor=none;fillColor=none;" parent="JHuxcT3J-h0tU2cZwM6Y-181" vertex="1">
          <mxGeometry x="10" y="329" width="40" height="30" as="geometry" />
        </mxCell>
        <mxCell id="JHuxcT3J-h0tU2cZwM6Y-390" value="Linha Mamao" parent="0" />
        <mxCell id="JHuxcT3J-h0tU2cZwM6Y-391" value="M" style="ellipse;whiteSpace=wrap;html=1;aspect=fixed;strokeColor=#666666;fillColor=#f5f5f5;gradientColor=#b3b3b3;" parent="JHuxcT3J-h0tU2cZwM6Y-390" vertex="1">
          <mxGeometry x="40" y="415" width="20" height="20" as="geometry" />
        </mxCell>
        <mxCell id="JHuxcT3J-h0tU2cZwM6Y-392" value="Mamao" style="text;html=1;align=left;verticalAlign=middle;resizable=0;points=[];autosize=1;strokeColor=none;fillColor=none;" parent="JHuxcT3J-h0tU2cZwM6Y-390" vertex="1">
          <mxGeometry x="70" y="410" width="60" height="30" as="geometry" />
        </mxCell>
        <mxCell id="JHuxcT3J-h0tU2cZwM6Y-393" value="I" style="ellipse;whiteSpace=wrap;html=1;aspect=fixed;strokeColor=#B20000;fillColor=#e51400;fontColor=#ffffff;" parent="JHuxcT3J-h0tU2cZwM6Y-390" vertex="1">
          <mxGeometry x="40" y="440" width="20" height="20" as="geometry" />
        </mxCell>
        <mxCell id="JHuxcT3J-h0tU2cZwM6Y-394" value="Inhame" style="text;html=1;align=left;verticalAlign=middle;resizable=0;points=[];autosize=1;strokeColor=none;fillColor=none;" parent="JHuxcT3J-h0tU2cZwM6Y-390" vertex="1">
          <mxGeometry x="70" y="435" width="60" height="30" as="geometry" />
        </mxCell>
        <mxCell id="JHuxcT3J-h0tU2cZwM6Y-395" value="" style="ellipse;whiteSpace=wrap;html=1;aspect=fixed;fillColor=#000000;" parent="JHuxcT3J-h0tU2cZwM6Y-390" vertex="1">
          <mxGeometry x="47.5" y="472.5" width="5" height="5" as="geometry" />
        </mxCell>
        <mxCell id="JHuxcT3J-h0tU2cZwM6Y-396" value="Tomatinho" style="text;html=1;align=left;verticalAlign=middle;resizable=0;points=[];autosize=1;strokeColor=none;fillColor=none;" parent="JHuxcT3J-h0tU2cZwM6Y-390" vertex="1">
          <mxGeometry x="70" y="460" width="80" height="30" as="geometry" />
        </mxCell>
        <mxCell id="JHuxcT3J-h0tU2cZwM6Y-410" value="M" style="ellipse;whiteSpace=wrap;html=1;aspect=fixed;strokeColor=#666666;fillColor=#f5f5f5;gradientColor=#b3b3b3;" parent="JHuxcT3J-h0tU2cZwM6Y-390" vertex="1">
          <mxGeometry x="450" y="250" width="20" height="20" as="geometry" />
        </mxCell>
        <mxCell id="JHuxcT3J-h0tU2cZwM6Y-411" value="M" style="ellipse;whiteSpace=wrap;html=1;aspect=fixed;strokeColor=#666666;fillColor=#f5f5f5;gradientColor=#b3b3b3;" parent="JHuxcT3J-h0tU2cZwM6Y-390" vertex="1">
          <mxGeometry x="450" y="450" width="20" height="20" as="geometry" />
        </mxCell>
        <mxCell id="JHuxcT3J-h0tU2cZwM6Y-412" value="M" style="ellipse;whiteSpace=wrap;html=1;aspect=fixed;strokeColor=#666666;fillColor=#f5f5f5;gradientColor=#b3b3b3;" parent="JHuxcT3J-h0tU2cZwM6Y-390" vertex="1">
          <mxGeometry x="450" y="650" width="20" height="20" as="geometry" />
        </mxCell>
        <mxCell id="JHuxcT3J-h0tU2cZwM6Y-413" value="I" style="ellipse;whiteSpace=wrap;html=1;aspect=fixed;strokeColor=#B20000;fillColor=#e51400;fontColor=#ffffff;" parent="JHuxcT3J-h0tU2cZwM6Y-390" vertex="1">
          <mxGeometry x="450" y="690" width="20" height="20" as="geometry" />
        </mxCell>
        <mxCell id="JHuxcT3J-h0tU2cZwM6Y-414" value="I" style="ellipse;whiteSpace=wrap;html=1;aspect=fixed;strokeColor=#B20000;fillColor=#e51400;fontColor=#ffffff;" parent="JHuxcT3J-h0tU2cZwM6Y-390" vertex="1">
          <mxGeometry x="450" y="730" width="20" height="20" as="geometry" />
        </mxCell>
        <mxCell id="JHuxcT3J-h0tU2cZwM6Y-415" value="I" style="ellipse;whiteSpace=wrap;html=1;aspect=fixed;strokeColor=#B20000;fillColor=#e51400;fontColor=#ffffff;" parent="JHuxcT3J-h0tU2cZwM6Y-390" vertex="1">
          <mxGeometry x="450" y="570" width="20" height="20" as="geometry" />
        </mxCell>
        <mxCell id="JHuxcT3J-h0tU2cZwM6Y-416" value="I" style="ellipse;whiteSpace=wrap;html=1;aspect=fixed;strokeColor=#B20000;fillColor=#e51400;fontColor=#ffffff;" parent="JHuxcT3J-h0tU2cZwM6Y-390" vertex="1">
          <mxGeometry x="450" y="610" width="20" height="20" as="geometry" />
        </mxCell>
        <mxCell id="JHuxcT3J-h0tU2cZwM6Y-417" value="I" style="ellipse;whiteSpace=wrap;html=1;aspect=fixed;strokeColor=#B20000;fillColor=#e51400;fontColor=#ffffff;" parent="JHuxcT3J-h0tU2cZwM6Y-390" vertex="1">
          <mxGeometry x="450" y="490" width="20" height="20" as="geometry" />
        </mxCell>
        <mxCell id="JHuxcT3J-h0tU2cZwM6Y-418" value="I" style="ellipse;whiteSpace=wrap;html=1;aspect=fixed;strokeColor=#B20000;fillColor=#e51400;fontColor=#ffffff;" parent="JHuxcT3J-h0tU2cZwM6Y-390" vertex="1">
          <mxGeometry x="450" y="530" width="20" height="20" as="geometry" />
        </mxCell>
        <mxCell id="JHuxcT3J-h0tU2cZwM6Y-419" value="I" style="ellipse;whiteSpace=wrap;html=1;aspect=fixed;strokeColor=#B20000;fillColor=#e51400;fontColor=#ffffff;" parent="JHuxcT3J-h0tU2cZwM6Y-390" vertex="1">
          <mxGeometry x="450" y="370" width="20" height="20" as="geometry" />
        </mxCell>
        <mxCell id="JHuxcT3J-h0tU2cZwM6Y-420" value="I" style="ellipse;whiteSpace=wrap;html=1;aspect=fixed;strokeColor=#B20000;fillColor=#e51400;fontColor=#ffffff;" parent="JHuxcT3J-h0tU2cZwM6Y-390" vertex="1">
          <mxGeometry x="450" y="410" width="20" height="20" as="geometry" />
        </mxCell>
        <mxCell id="JHuxcT3J-h0tU2cZwM6Y-421" value="I" style="ellipse;whiteSpace=wrap;html=1;aspect=fixed;strokeColor=#B20000;fillColor=#e51400;fontColor=#ffffff;" parent="JHuxcT3J-h0tU2cZwM6Y-390" vertex="1">
          <mxGeometry x="450" y="290" width="20" height="20" as="geometry" />
        </mxCell>
        <mxCell id="JHuxcT3J-h0tU2cZwM6Y-422" value="I" style="ellipse;whiteSpace=wrap;html=1;aspect=fixed;strokeColor=#B20000;fillColor=#e51400;fontColor=#ffffff;" parent="JHuxcT3J-h0tU2cZwM6Y-390" vertex="1">
          <mxGeometry x="450" y="330" width="20" height="20" as="geometry" />
        </mxCell>
        <mxCell id="JHuxcT3J-h0tU2cZwM6Y-423" value="I" style="ellipse;whiteSpace=wrap;html=1;aspect=fixed;strokeColor=#B20000;fillColor=#e51400;fontColor=#ffffff;" parent="JHuxcT3J-h0tU2cZwM6Y-390" vertex="1">
          <mxGeometry x="450" y="170" width="20" height="20" as="geometry" />
        </mxCell>
        <mxCell id="JHuxcT3J-h0tU2cZwM6Y-424" value="I" style="ellipse;whiteSpace=wrap;html=1;aspect=fixed;strokeColor=#B20000;fillColor=#e51400;fontColor=#ffffff;" parent="JHuxcT3J-h0tU2cZwM6Y-390" vertex="1">
          <mxGeometry x="450" y="210" width="20" height="20" as="geometry" />
        </mxCell>
        <mxCell id="JHuxcT3J-h0tU2cZwM6Y-425" value="I" style="ellipse;whiteSpace=wrap;html=1;aspect=fixed;strokeColor=#B20000;fillColor=#e51400;fontColor=#ffffff;" parent="JHuxcT3J-h0tU2cZwM6Y-390" vertex="1">
          <mxGeometry x="450" y="130" width="20" height="20" as="geometry" />
        </mxCell>
        <mxCell id="JHuxcT3J-h0tU2cZwM6Y-440" value="Milho" style="text;html=1;align=left;verticalAlign=middle;resizable=0;points=[];autosize=1;strokeColor=none;fillColor=none;" parent="JHuxcT3J-h0tU2cZwM6Y-390" vertex="1">
          <mxGeometry x="70" y="355" width="50" height="30" as="geometry" />
        </mxCell>
        <mxCell id="JHuxcT3J-h0tU2cZwM6Y-441" value="" style="endArrow=none;html=1;rounded=0;strokeWidth=4;fillColor=#e51400;strokeColor=#B20000;" parent="JHuxcT3J-h0tU2cZwM6Y-390" edge="1">
          <mxGeometry width="50" height="50" relative="1" as="geometry">
            <mxPoint x="40" y="370" as="sourcePoint" />
            <mxPoint x="60" y="370" as="targetPoint" />
          </mxGeometry>
        </mxCell>
        <mxCell id="JHuxcT3J-h0tU2cZwM6Y-442" value="" style="endArrow=none;html=1;rounded=0;strokeWidth=4;fillColor=#e51400;strokeColor=#B20000;" parent="JHuxcT3J-h0tU2cZwM6Y-390" edge="1">
          <mxGeometry width="50" height="50" relative="1" as="geometry">
            <mxPoint x="450" y="159.57" as="sourcePoint" />
            <mxPoint x="470" y="159.57" as="targetPoint" />
          </mxGeometry>
        </mxCell>
        <mxCell id="JHuxcT3J-h0tU2cZwM6Y-443" value="" style="endArrow=none;html=1;rounded=0;strokeWidth=4;fillColor=#e51400;strokeColor=#B20000;" parent="JHuxcT3J-h0tU2cZwM6Y-390" edge="1">
          <mxGeometry width="50" height="50" relative="1" as="geometry">
            <mxPoint x="450" y="199.56999999999994" as="sourcePoint" />
            <mxPoint x="470" y="199.56999999999994" as="targetPoint" />
          </mxGeometry>
        </mxCell>
        <mxCell id="JHuxcT3J-h0tU2cZwM6Y-445" value="" style="endArrow=none;html=1;rounded=0;strokeWidth=4;fillColor=#e51400;strokeColor=#B20000;" parent="JHuxcT3J-h0tU2cZwM6Y-390" edge="1">
          <mxGeometry width="50" height="50" relative="1" as="geometry">
            <mxPoint x="450" y="279.56999999999994" as="sourcePoint" />
            <mxPoint x="470" y="279.56999999999994" as="targetPoint" />
          </mxGeometry>
        </mxCell>
        <mxCell id="JHuxcT3J-h0tU2cZwM6Y-446" value="" style="endArrow=none;html=1;rounded=0;strokeWidth=4;fillColor=#e51400;strokeColor=#B20000;" parent="JHuxcT3J-h0tU2cZwM6Y-390" edge="1">
          <mxGeometry width="50" height="50" relative="1" as="geometry">
            <mxPoint x="450" y="239.56999999999994" as="sourcePoint" />
            <mxPoint x="470" y="239.56999999999994" as="targetPoint" />
          </mxGeometry>
        </mxCell>
        <mxCell id="JHuxcT3J-h0tU2cZwM6Y-447" value="" style="endArrow=none;html=1;rounded=0;strokeWidth=4;fillColor=#e51400;strokeColor=#B20000;" parent="JHuxcT3J-h0tU2cZwM6Y-390" edge="1">
          <mxGeometry width="50" height="50" relative="1" as="geometry">
            <mxPoint x="450" y="319.56999999999994" as="sourcePoint" />
            <mxPoint x="470" y="319.56999999999994" as="targetPoint" />
          </mxGeometry>
        </mxCell>
        <mxCell id="JHuxcT3J-h0tU2cZwM6Y-448" value="" style="endArrow=none;html=1;rounded=0;strokeWidth=4;fillColor=#e51400;strokeColor=#B20000;" parent="JHuxcT3J-h0tU2cZwM6Y-390" edge="1">
          <mxGeometry width="50" height="50" relative="1" as="geometry">
            <mxPoint x="450" y="359.56999999999994" as="sourcePoint" />
            <mxPoint x="470" y="359.56999999999994" as="targetPoint" />
          </mxGeometry>
        </mxCell>
        <mxCell id="JHuxcT3J-h0tU2cZwM6Y-449" value="" style="endArrow=none;html=1;rounded=0;strokeWidth=4;fillColor=#e51400;strokeColor=#B20000;" parent="JHuxcT3J-h0tU2cZwM6Y-390" edge="1">
          <mxGeometry width="50" height="50" relative="1" as="geometry">
            <mxPoint x="450" y="399.56999999999994" as="sourcePoint" />
            <mxPoint x="470" y="399.56999999999994" as="targetPoint" />
          </mxGeometry>
        </mxCell>
        <mxCell id="JHuxcT3J-h0tU2cZwM6Y-450" value="" style="endArrow=none;html=1;rounded=0;strokeWidth=4;fillColor=#e51400;strokeColor=#B20000;" parent="JHuxcT3J-h0tU2cZwM6Y-390" edge="1">
          <mxGeometry width="50" height="50" relative="1" as="geometry">
            <mxPoint x="450" y="439.56999999999994" as="sourcePoint" />
            <mxPoint x="470" y="439.56999999999994" as="targetPoint" />
          </mxGeometry>
        </mxCell>
        <mxCell id="JHuxcT3J-h0tU2cZwM6Y-451" value="" style="endArrow=none;html=1;rounded=0;strokeWidth=4;fillColor=#e51400;strokeColor=#B20000;" parent="JHuxcT3J-h0tU2cZwM6Y-390" edge="1">
          <mxGeometry width="50" height="50" relative="1" as="geometry">
            <mxPoint x="450" y="479.56999999999994" as="sourcePoint" />
            <mxPoint x="470" y="479.56999999999994" as="targetPoint" />
          </mxGeometry>
        </mxCell>
        <mxCell id="JHuxcT3J-h0tU2cZwM6Y-452" value="" style="endArrow=none;html=1;rounded=0;strokeWidth=4;fillColor=#e51400;strokeColor=#B20000;" parent="JHuxcT3J-h0tU2cZwM6Y-390" edge="1">
          <mxGeometry width="50" height="50" relative="1" as="geometry">
            <mxPoint x="450" y="519.5699999999999" as="sourcePoint" />
            <mxPoint x="470" y="519.5699999999999" as="targetPoint" />
          </mxGeometry>
        </mxCell>
        <mxCell id="JHuxcT3J-h0tU2cZwM6Y-453" value="" style="endArrow=none;html=1;rounded=0;strokeWidth=4;fillColor=#e51400;strokeColor=#B20000;" parent="JHuxcT3J-h0tU2cZwM6Y-390" edge="1">
          <mxGeometry width="50" height="50" relative="1" as="geometry">
            <mxPoint x="450" y="559.5699999999999" as="sourcePoint" />
            <mxPoint x="470" y="559.5699999999999" as="targetPoint" />
          </mxGeometry>
        </mxCell>
        <mxCell id="JHuxcT3J-h0tU2cZwM6Y-454" value="" style="endArrow=none;html=1;rounded=0;strokeWidth=4;fillColor=#e51400;strokeColor=#B20000;" parent="JHuxcT3J-h0tU2cZwM6Y-390" edge="1">
          <mxGeometry width="50" height="50" relative="1" as="geometry">
            <mxPoint x="450" y="599.5699999999999" as="sourcePoint" />
            <mxPoint x="470" y="599.5699999999999" as="targetPoint" />
          </mxGeometry>
        </mxCell>
        <mxCell id="JHuxcT3J-h0tU2cZwM6Y-455" value="" style="endArrow=none;html=1;rounded=0;strokeWidth=4;fillColor=#e51400;strokeColor=#B20000;" parent="JHuxcT3J-h0tU2cZwM6Y-390" edge="1">
          <mxGeometry width="50" height="50" relative="1" as="geometry">
            <mxPoint x="450" y="639.5699999999999" as="sourcePoint" />
            <mxPoint x="470" y="639.5699999999999" as="targetPoint" />
          </mxGeometry>
        </mxCell>
        <mxCell id="JHuxcT3J-h0tU2cZwM6Y-456" value="" style="endArrow=none;html=1;rounded=0;strokeWidth=4;fillColor=#e51400;strokeColor=#B20000;" parent="JHuxcT3J-h0tU2cZwM6Y-390" edge="1">
          <mxGeometry width="50" height="50" relative="1" as="geometry">
            <mxPoint x="450" y="679.5699999999999" as="sourcePoint" />
            <mxPoint x="470" y="679.5699999999999" as="targetPoint" />
          </mxGeometry>
        </mxCell>
        <mxCell id="JHuxcT3J-h0tU2cZwM6Y-457" value="" style="endArrow=none;html=1;rounded=0;strokeWidth=4;fillColor=#e51400;strokeColor=#B20000;" parent="JHuxcT3J-h0tU2cZwM6Y-390" edge="1">
          <mxGeometry width="50" height="50" relative="1" as="geometry">
            <mxPoint x="450" y="719.5699999999999" as="sourcePoint" />
            <mxPoint x="470" y="719.5699999999999" as="targetPoint" />
          </mxGeometry>
        </mxCell>
        <mxCell id="JHuxcT3J-h0tU2cZwM6Y-458" value="" style="endArrow=none;html=1;rounded=0;strokeWidth=4;fillColor=#e51400;strokeColor=#B20000;" parent="JHuxcT3J-h0tU2cZwM6Y-390" edge="1">
          <mxGeometry width="50" height="50" relative="1" as="geometry">
            <mxPoint x="450" y="759.5699999999999" as="sourcePoint" />
            <mxPoint x="470" y="759.5699999999999" as="targetPoint" />
          </mxGeometry>
        </mxCell>
        <mxCell id="JHuxcT3J-h0tU2cZwM6Y-459" value="" style="endArrow=none;html=1;rounded=0;strokeWidth=4;fillColor=#e51400;strokeColor=#B20000;" parent="JHuxcT3J-h0tU2cZwM6Y-390" edge="1">
          <mxGeometry width="50" height="50" relative="1" as="geometry">
            <mxPoint x="450" y="119.56999999999994" as="sourcePoint" />
            <mxPoint x="470" y="119.56999999999994" as="targetPoint" />
          </mxGeometry>
        </mxCell>
        <mxCell id="JHuxcT3J-h0tU2cZwM6Y-476" value="Tomatinho berinjela jilo" style="text;html=1;align=center;verticalAlign=middle;resizable=0;points=[];autosize=1;strokeColor=none;fillColor=none;" parent="JHuxcT3J-h0tU2cZwM6Y-390" vertex="1">
          <mxGeometry y="660" width="150" height="30" as="geometry" />
        </mxCell>
        <mxCell id="JHuxcT3J-h0tU2cZwM6Y-477" value="Como plantar: /Sustentabilidade/Agrofloresta" style="text;html=1;align=left;verticalAlign=middle;resizable=0;points=[];autosize=1;strokeColor=none;fillColor=none;" parent="JHuxcT3J-h0tU2cZwM6Y-390" vertex="1">
          <mxGeometry x="10" y="590" width="260" height="30" as="geometry" />
        </mxCell>
        <mxCell id="JHuxcT3J-h0tU2cZwM6Y-478" value="" style="ellipse;whiteSpace=wrap;html=1;aspect=fixed;fillColor=#e3c800;fontColor=#000000;strokeColor=#B09500;" parent="JHuxcT3J-h0tU2cZwM6Y-390" vertex="1">
          <mxGeometry x="47.5" y="497.5" width="5" height="5" as="geometry" />
        </mxCell>
        <mxCell id="JHuxcT3J-h0tU2cZwM6Y-479" value="Berinjela" style="text;html=1;align=left;verticalAlign=middle;resizable=0;points=[];autosize=1;strokeColor=none;fillColor=none;" parent="JHuxcT3J-h0tU2cZwM6Y-390" vertex="1">
          <mxGeometry x="70" y="485" width="70" height="30" as="geometry" />
        </mxCell>
        <mxCell id="JHuxcT3J-h0tU2cZwM6Y-480" value="" style="ellipse;whiteSpace=wrap;html=1;aspect=fixed;fillColor=#000000;" parent="JHuxcT3J-h0tU2cZwM6Y-390" vertex="1">
          <mxGeometry x="445" y="737.5" width="5" height="5" as="geometry" />
        </mxCell>
        <mxCell id="JHuxcT3J-h0tU2cZwM6Y-489" value="" style="ellipse;whiteSpace=wrap;html=1;aspect=fixed;fillColor=#000000;" parent="JHuxcT3J-h0tU2cZwM6Y-390" vertex="1">
          <mxGeometry x="445" y="697.5" width="5" height="5" as="geometry" />
        </mxCell>
        <mxCell id="JHuxcT3J-h0tU2cZwM6Y-497" value="" style="ellipse;whiteSpace=wrap;html=1;aspect=fixed;fillColor=#000000;" parent="JHuxcT3J-h0tU2cZwM6Y-390" vertex="1">
          <mxGeometry x="445" y="657.5" width="5" height="5" as="geometry" />
        </mxCell>
        <mxCell id="JHuxcT3J-h0tU2cZwM6Y-498" value="" style="ellipse;whiteSpace=wrap;html=1;aspect=fixed;fillColor=#000000;" parent="JHuxcT3J-h0tU2cZwM6Y-390" vertex="1">
          <mxGeometry x="445" y="617" width="5" height="5" as="geometry" />
        </mxCell>
        <mxCell id="JHuxcT3J-h0tU2cZwM6Y-499" value="" style="ellipse;whiteSpace=wrap;html=1;aspect=fixed;fillColor=#000000;" parent="JHuxcT3J-h0tU2cZwM6Y-390" vertex="1">
          <mxGeometry x="445" y="577.5" width="5" height="5" as="geometry" />
        </mxCell>
        <mxCell id="JHuxcT3J-h0tU2cZwM6Y-500" value="" style="ellipse;whiteSpace=wrap;html=1;aspect=fixed;fillColor=#000000;" parent="JHuxcT3J-h0tU2cZwM6Y-390" vertex="1">
          <mxGeometry x="445" y="537.5" width="5" height="5" as="geometry" />
        </mxCell>
        <mxCell id="JHuxcT3J-h0tU2cZwM6Y-501" value="" style="ellipse;whiteSpace=wrap;html=1;aspect=fixed;fillColor=#000000;" parent="JHuxcT3J-h0tU2cZwM6Y-390" vertex="1">
          <mxGeometry x="445" y="497.5" width="5" height="5" as="geometry" />
        </mxCell>
        <mxCell id="JHuxcT3J-h0tU2cZwM6Y-502" value="" style="ellipse;whiteSpace=wrap;html=1;aspect=fixed;fillColor=#000000;" parent="JHuxcT3J-h0tU2cZwM6Y-390" vertex="1">
          <mxGeometry x="445" y="457.5" width="5" height="5" as="geometry" />
        </mxCell>
        <mxCell id="JHuxcT3J-h0tU2cZwM6Y-503" value="" style="ellipse;whiteSpace=wrap;html=1;aspect=fixed;fillColor=#000000;" parent="JHuxcT3J-h0tU2cZwM6Y-390" vertex="1">
          <mxGeometry x="445" y="417.5" width="5" height="5" as="geometry" />
        </mxCell>
        <mxCell id="JHuxcT3J-h0tU2cZwM6Y-504" value="" style="ellipse;whiteSpace=wrap;html=1;aspect=fixed;fillColor=#000000;" parent="JHuxcT3J-h0tU2cZwM6Y-390" vertex="1">
          <mxGeometry x="445" y="377.5" width="5" height="5" as="geometry" />
        </mxCell>
        <mxCell id="JHuxcT3J-h0tU2cZwM6Y-505" value="" style="ellipse;whiteSpace=wrap;html=1;aspect=fixed;fillColor=#000000;" parent="JHuxcT3J-h0tU2cZwM6Y-390" vertex="1">
          <mxGeometry x="445" y="337.5" width="5" height="5" as="geometry" />
        </mxCell>
        <mxCell id="JHuxcT3J-h0tU2cZwM6Y-506" value="" style="ellipse;whiteSpace=wrap;html=1;aspect=fixed;fillColor=#000000;" parent="JHuxcT3J-h0tU2cZwM6Y-390" vertex="1">
          <mxGeometry x="445" y="297.5" width="5" height="5" as="geometry" />
        </mxCell>
        <mxCell id="JHuxcT3J-h0tU2cZwM6Y-507" value="" style="ellipse;whiteSpace=wrap;html=1;aspect=fixed;fillColor=#000000;" parent="JHuxcT3J-h0tU2cZwM6Y-390" vertex="1">
          <mxGeometry x="445" y="257.5" width="5" height="5" as="geometry" />
        </mxCell>
        <mxCell id="JHuxcT3J-h0tU2cZwM6Y-508" value="" style="ellipse;whiteSpace=wrap;html=1;aspect=fixed;fillColor=#000000;" parent="JHuxcT3J-h0tU2cZwM6Y-390" vertex="1">
          <mxGeometry x="445" y="217.5" width="5" height="5" as="geometry" />
        </mxCell>
        <mxCell id="JHuxcT3J-h0tU2cZwM6Y-509" value="" style="ellipse;whiteSpace=wrap;html=1;aspect=fixed;fillColor=#000000;" parent="JHuxcT3J-h0tU2cZwM6Y-390" vertex="1">
          <mxGeometry x="445" y="177.5" width="5" height="5" as="geometry" />
        </mxCell>
        <mxCell id="JHuxcT3J-h0tU2cZwM6Y-510" value="" style="ellipse;whiteSpace=wrap;html=1;aspect=fixed;fillColor=#000000;" parent="JHuxcT3J-h0tU2cZwM6Y-390" vertex="1">
          <mxGeometry x="445" y="137.5" width="5" height="5" as="geometry" />
        </mxCell>
        <mxCell id="JHuxcT3J-h0tU2cZwM6Y-511" value="M" style="ellipse;whiteSpace=wrap;html=1;aspect=fixed;strokeColor=#666666;fillColor=#f5f5f5;gradientColor=#b3b3b3;" parent="JHuxcT3J-h0tU2cZwM6Y-390" vertex="1">
          <mxGeometry x="570" y="250.43" width="20" height="20" as="geometry" />
        </mxCell>
        <mxCell id="JHuxcT3J-h0tU2cZwM6Y-512" value="M" style="ellipse;whiteSpace=wrap;html=1;aspect=fixed;strokeColor=#666666;fillColor=#f5f5f5;gradientColor=#b3b3b3;" parent="JHuxcT3J-h0tU2cZwM6Y-390" vertex="1">
          <mxGeometry x="570" y="450.43" width="20" height="20" as="geometry" />
        </mxCell>
        <mxCell id="JHuxcT3J-h0tU2cZwM6Y-513" value="M" style="ellipse;whiteSpace=wrap;html=1;aspect=fixed;strokeColor=#666666;fillColor=#f5f5f5;gradientColor=#b3b3b3;" parent="JHuxcT3J-h0tU2cZwM6Y-390" vertex="1">
          <mxGeometry x="570" y="650.43" width="20" height="20" as="geometry" />
        </mxCell>
        <mxCell id="JHuxcT3J-h0tU2cZwM6Y-514" value="I" style="ellipse;whiteSpace=wrap;html=1;aspect=fixed;strokeColor=#B20000;fillColor=#e51400;fontColor=#ffffff;" parent="JHuxcT3J-h0tU2cZwM6Y-390" vertex="1">
          <mxGeometry x="570" y="690.43" width="20" height="20" as="geometry" />
        </mxCell>
        <mxCell id="JHuxcT3J-h0tU2cZwM6Y-515" value="I" style="ellipse;whiteSpace=wrap;html=1;aspect=fixed;strokeColor=#B20000;fillColor=#e51400;fontColor=#ffffff;" parent="JHuxcT3J-h0tU2cZwM6Y-390" vertex="1">
          <mxGeometry x="570" y="730.43" width="20" height="20" as="geometry" />
        </mxCell>
        <mxCell id="JHuxcT3J-h0tU2cZwM6Y-516" value="I" style="ellipse;whiteSpace=wrap;html=1;aspect=fixed;strokeColor=#B20000;fillColor=#e51400;fontColor=#ffffff;" parent="JHuxcT3J-h0tU2cZwM6Y-390" vertex="1">
          <mxGeometry x="570" y="570.43" width="20" height="20" as="geometry" />
        </mxCell>
        <mxCell id="JHuxcT3J-h0tU2cZwM6Y-517" value="I" style="ellipse;whiteSpace=wrap;html=1;aspect=fixed;strokeColor=#B20000;fillColor=#e51400;fontColor=#ffffff;" parent="JHuxcT3J-h0tU2cZwM6Y-390" vertex="1">
          <mxGeometry x="570" y="610.43" width="20" height="20" as="geometry" />
        </mxCell>
        <mxCell id="JHuxcT3J-h0tU2cZwM6Y-518" value="I" style="ellipse;whiteSpace=wrap;html=1;aspect=fixed;strokeColor=#B20000;fillColor=#e51400;fontColor=#ffffff;" parent="JHuxcT3J-h0tU2cZwM6Y-390" vertex="1">
          <mxGeometry x="570" y="490.43" width="20" height="20" as="geometry" />
        </mxCell>
        <mxCell id="JHuxcT3J-h0tU2cZwM6Y-519" value="I" style="ellipse;whiteSpace=wrap;html=1;aspect=fixed;strokeColor=#B20000;fillColor=#e51400;fontColor=#ffffff;" parent="JHuxcT3J-h0tU2cZwM6Y-390" vertex="1">
          <mxGeometry x="570" y="530.43" width="20" height="20" as="geometry" />
        </mxCell>
        <mxCell id="JHuxcT3J-h0tU2cZwM6Y-520" value="I" style="ellipse;whiteSpace=wrap;html=1;aspect=fixed;strokeColor=#B20000;fillColor=#e51400;fontColor=#ffffff;" parent="JHuxcT3J-h0tU2cZwM6Y-390" vertex="1">
          <mxGeometry x="570" y="370.43" width="20" height="20" as="geometry" />
        </mxCell>
        <mxCell id="JHuxcT3J-h0tU2cZwM6Y-521" value="I" style="ellipse;whiteSpace=wrap;html=1;aspect=fixed;strokeColor=#B20000;fillColor=#e51400;fontColor=#ffffff;" parent="JHuxcT3J-h0tU2cZwM6Y-390" vertex="1">
          <mxGeometry x="570" y="410.43" width="20" height="20" as="geometry" />
        </mxCell>
        <mxCell id="JHuxcT3J-h0tU2cZwM6Y-522" value="I" style="ellipse;whiteSpace=wrap;html=1;aspect=fixed;strokeColor=#B20000;fillColor=#e51400;fontColor=#ffffff;" parent="JHuxcT3J-h0tU2cZwM6Y-390" vertex="1">
          <mxGeometry x="570" y="290.43" width="20" height="20" as="geometry" />
        </mxCell>
        <mxCell id="JHuxcT3J-h0tU2cZwM6Y-523" value="I" style="ellipse;whiteSpace=wrap;html=1;aspect=fixed;strokeColor=#B20000;fillColor=#e51400;fontColor=#ffffff;" parent="JHuxcT3J-h0tU2cZwM6Y-390" vertex="1">
          <mxGeometry x="570" y="330.43" width="20" height="20" as="geometry" />
        </mxCell>
        <mxCell id="JHuxcT3J-h0tU2cZwM6Y-524" value="I" style="ellipse;whiteSpace=wrap;html=1;aspect=fixed;strokeColor=#B20000;fillColor=#e51400;fontColor=#ffffff;" parent="JHuxcT3J-h0tU2cZwM6Y-390" vertex="1">
          <mxGeometry x="570" y="170.43" width="20" height="20" as="geometry" />
        </mxCell>
        <mxCell id="JHuxcT3J-h0tU2cZwM6Y-525" value="I" style="ellipse;whiteSpace=wrap;html=1;aspect=fixed;strokeColor=#B20000;fillColor=#e51400;fontColor=#ffffff;" parent="JHuxcT3J-h0tU2cZwM6Y-390" vertex="1">
          <mxGeometry x="570" y="210.43" width="20" height="20" as="geometry" />
        </mxCell>
        <mxCell id="JHuxcT3J-h0tU2cZwM6Y-526" value="I" style="ellipse;whiteSpace=wrap;html=1;aspect=fixed;strokeColor=#B20000;fillColor=#e51400;fontColor=#ffffff;" parent="JHuxcT3J-h0tU2cZwM6Y-390" vertex="1">
          <mxGeometry x="570" y="130.43" width="20" height="20" as="geometry" />
        </mxCell>
        <mxCell id="JHuxcT3J-h0tU2cZwM6Y-527" value="" style="endArrow=none;html=1;rounded=0;strokeWidth=4;fillColor=#e51400;strokeColor=#B20000;" parent="JHuxcT3J-h0tU2cZwM6Y-390" edge="1">
          <mxGeometry width="50" height="50" relative="1" as="geometry">
            <mxPoint x="570" y="159.99999999999994" as="sourcePoint" />
            <mxPoint x="590" y="159.99999999999994" as="targetPoint" />
          </mxGeometry>
        </mxCell>
        <mxCell id="JHuxcT3J-h0tU2cZwM6Y-528" value="" style="endArrow=none;html=1;rounded=0;strokeWidth=4;fillColor=#e51400;strokeColor=#B20000;" parent="JHuxcT3J-h0tU2cZwM6Y-390" edge="1">
          <mxGeometry width="50" height="50" relative="1" as="geometry">
            <mxPoint x="570" y="199.99999999999994" as="sourcePoint" />
            <mxPoint x="590" y="199.99999999999994" as="targetPoint" />
          </mxGeometry>
        </mxCell>
        <mxCell id="JHuxcT3J-h0tU2cZwM6Y-529" value="" style="endArrow=none;html=1;rounded=0;strokeWidth=4;fillColor=#e51400;strokeColor=#B20000;" parent="JHuxcT3J-h0tU2cZwM6Y-390" edge="1">
          <mxGeometry width="50" height="50" relative="1" as="geometry">
            <mxPoint x="570" y="279.99999999999994" as="sourcePoint" />
            <mxPoint x="590" y="279.99999999999994" as="targetPoint" />
          </mxGeometry>
        </mxCell>
        <mxCell id="JHuxcT3J-h0tU2cZwM6Y-530" value="" style="endArrow=none;html=1;rounded=0;strokeWidth=4;fillColor=#e51400;strokeColor=#B20000;" parent="JHuxcT3J-h0tU2cZwM6Y-390" edge="1">
          <mxGeometry width="50" height="50" relative="1" as="geometry">
            <mxPoint x="570" y="239.99999999999994" as="sourcePoint" />
            <mxPoint x="590" y="239.99999999999994" as="targetPoint" />
          </mxGeometry>
        </mxCell>
        <mxCell id="JHuxcT3J-h0tU2cZwM6Y-531" value="" style="endArrow=none;html=1;rounded=0;strokeWidth=4;fillColor=#e51400;strokeColor=#B20000;" parent="JHuxcT3J-h0tU2cZwM6Y-390" edge="1">
          <mxGeometry width="50" height="50" relative="1" as="geometry">
            <mxPoint x="570" y="319.99999999999994" as="sourcePoint" />
            <mxPoint x="590" y="319.99999999999994" as="targetPoint" />
          </mxGeometry>
        </mxCell>
        <mxCell id="JHuxcT3J-h0tU2cZwM6Y-532" value="" style="endArrow=none;html=1;rounded=0;strokeWidth=4;fillColor=#e51400;strokeColor=#B20000;" parent="JHuxcT3J-h0tU2cZwM6Y-390" edge="1">
          <mxGeometry width="50" height="50" relative="1" as="geometry">
            <mxPoint x="570" y="359.99999999999994" as="sourcePoint" />
            <mxPoint x="590" y="359.99999999999994" as="targetPoint" />
          </mxGeometry>
        </mxCell>
        <mxCell id="JHuxcT3J-h0tU2cZwM6Y-533" value="" style="endArrow=none;html=1;rounded=0;strokeWidth=4;fillColor=#e51400;strokeColor=#B20000;" parent="JHuxcT3J-h0tU2cZwM6Y-390" edge="1">
          <mxGeometry width="50" height="50" relative="1" as="geometry">
            <mxPoint x="570" y="399.99999999999994" as="sourcePoint" />
            <mxPoint x="590" y="399.99999999999994" as="targetPoint" />
          </mxGeometry>
        </mxCell>
        <mxCell id="JHuxcT3J-h0tU2cZwM6Y-534" value="" style="endArrow=none;html=1;rounded=0;strokeWidth=4;fillColor=#e51400;strokeColor=#B20000;" parent="JHuxcT3J-h0tU2cZwM6Y-390" edge="1">
          <mxGeometry width="50" height="50" relative="1" as="geometry">
            <mxPoint x="570" y="439.99999999999994" as="sourcePoint" />
            <mxPoint x="590" y="439.99999999999994" as="targetPoint" />
          </mxGeometry>
        </mxCell>
        <mxCell id="JHuxcT3J-h0tU2cZwM6Y-535" value="" style="endArrow=none;html=1;rounded=0;strokeWidth=4;fillColor=#e51400;strokeColor=#B20000;" parent="JHuxcT3J-h0tU2cZwM6Y-390" edge="1">
          <mxGeometry width="50" height="50" relative="1" as="geometry">
            <mxPoint x="570" y="479.99999999999994" as="sourcePoint" />
            <mxPoint x="590" y="479.99999999999994" as="targetPoint" />
          </mxGeometry>
        </mxCell>
        <mxCell id="JHuxcT3J-h0tU2cZwM6Y-536" value="" style="endArrow=none;html=1;rounded=0;strokeWidth=4;fillColor=#e51400;strokeColor=#B20000;" parent="JHuxcT3J-h0tU2cZwM6Y-390" edge="1">
          <mxGeometry width="50" height="50" relative="1" as="geometry">
            <mxPoint x="570" y="519.9999999999999" as="sourcePoint" />
            <mxPoint x="590" y="519.9999999999999" as="targetPoint" />
          </mxGeometry>
        </mxCell>
        <mxCell id="JHuxcT3J-h0tU2cZwM6Y-537" value="" style="endArrow=none;html=1;rounded=0;strokeWidth=4;fillColor=#e51400;strokeColor=#B20000;" parent="JHuxcT3J-h0tU2cZwM6Y-390" edge="1">
          <mxGeometry width="50" height="50" relative="1" as="geometry">
            <mxPoint x="570" y="559.9999999999999" as="sourcePoint" />
            <mxPoint x="590" y="559.9999999999999" as="targetPoint" />
          </mxGeometry>
        </mxCell>
        <mxCell id="JHuxcT3J-h0tU2cZwM6Y-538" value="" style="endArrow=none;html=1;rounded=0;strokeWidth=4;fillColor=#e51400;strokeColor=#B20000;" parent="JHuxcT3J-h0tU2cZwM6Y-390" edge="1">
          <mxGeometry width="50" height="50" relative="1" as="geometry">
            <mxPoint x="570" y="599.9999999999999" as="sourcePoint" />
            <mxPoint x="590" y="599.9999999999999" as="targetPoint" />
          </mxGeometry>
        </mxCell>
        <mxCell id="JHuxcT3J-h0tU2cZwM6Y-539" value="" style="endArrow=none;html=1;rounded=0;strokeWidth=4;fillColor=#e51400;strokeColor=#B20000;" parent="JHuxcT3J-h0tU2cZwM6Y-390" edge="1">
          <mxGeometry width="50" height="50" relative="1" as="geometry">
            <mxPoint x="570" y="639.9999999999999" as="sourcePoint" />
            <mxPoint x="590" y="639.9999999999999" as="targetPoint" />
          </mxGeometry>
        </mxCell>
        <mxCell id="JHuxcT3J-h0tU2cZwM6Y-540" value="" style="endArrow=none;html=1;rounded=0;strokeWidth=4;fillColor=#e51400;strokeColor=#B20000;" parent="JHuxcT3J-h0tU2cZwM6Y-390" edge="1">
          <mxGeometry width="50" height="50" relative="1" as="geometry">
            <mxPoint x="570" y="679.9999999999999" as="sourcePoint" />
            <mxPoint x="590" y="679.9999999999999" as="targetPoint" />
          </mxGeometry>
        </mxCell>
        <mxCell id="JHuxcT3J-h0tU2cZwM6Y-541" value="" style="endArrow=none;html=1;rounded=0;strokeWidth=4;fillColor=#e51400;strokeColor=#B20000;" parent="JHuxcT3J-h0tU2cZwM6Y-390" edge="1">
          <mxGeometry width="50" height="50" relative="1" as="geometry">
            <mxPoint x="570" y="719.9999999999999" as="sourcePoint" />
            <mxPoint x="590" y="719.9999999999999" as="targetPoint" />
          </mxGeometry>
        </mxCell>
        <mxCell id="JHuxcT3J-h0tU2cZwM6Y-542" value="" style="endArrow=none;html=1;rounded=0;strokeWidth=4;fillColor=#e51400;strokeColor=#B20000;" parent="JHuxcT3J-h0tU2cZwM6Y-390" edge="1">
          <mxGeometry width="50" height="50" relative="1" as="geometry">
            <mxPoint x="570" y="759.9999999999999" as="sourcePoint" />
            <mxPoint x="590" y="759.9999999999999" as="targetPoint" />
          </mxGeometry>
        </mxCell>
        <mxCell id="JHuxcT3J-h0tU2cZwM6Y-543" value="" style="endArrow=none;html=1;rounded=0;strokeWidth=4;fillColor=#e51400;strokeColor=#B20000;" parent="JHuxcT3J-h0tU2cZwM6Y-390" edge="1">
          <mxGeometry width="50" height="50" relative="1" as="geometry">
            <mxPoint x="570" y="120.00000000000006" as="sourcePoint" />
            <mxPoint x="590" y="120.00000000000006" as="targetPoint" />
          </mxGeometry>
        </mxCell>
        <mxCell id="JHuxcT3J-h0tU2cZwM6Y-544" value="" style="ellipse;whiteSpace=wrap;html=1;aspect=fixed;fillColor=#f0a30a;fontColor=#000000;strokeColor=#BD7000;" parent="JHuxcT3J-h0tU2cZwM6Y-390" vertex="1">
          <mxGeometry x="565" y="737.93" width="5" height="5" as="geometry" />
        </mxCell>
        <mxCell id="JHuxcT3J-h0tU2cZwM6Y-545" value="" style="ellipse;whiteSpace=wrap;html=1;aspect=fixed;fillColor=#f0a30a;fontColor=#000000;strokeColor=#BD7000;" parent="JHuxcT3J-h0tU2cZwM6Y-390" vertex="1">
          <mxGeometry x="565" y="697.93" width="5" height="5" as="geometry" />
        </mxCell>
        <mxCell id="JHuxcT3J-h0tU2cZwM6Y-546" value="" style="ellipse;whiteSpace=wrap;html=1;aspect=fixed;fillColor=#f0a30a;fontColor=#000000;strokeColor=#BD7000;" parent="JHuxcT3J-h0tU2cZwM6Y-390" vertex="1">
          <mxGeometry x="565" y="657.93" width="5" height="5" as="geometry" />
        </mxCell>
        <mxCell id="JHuxcT3J-h0tU2cZwM6Y-547" value="" style="ellipse;whiteSpace=wrap;html=1;aspect=fixed;fillColor=#f0a30a;fontColor=#000000;strokeColor=#BD7000;" parent="JHuxcT3J-h0tU2cZwM6Y-390" vertex="1">
          <mxGeometry x="565" y="617.43" width="5" height="5" as="geometry" />
        </mxCell>
        <mxCell id="JHuxcT3J-h0tU2cZwM6Y-548" value="" style="ellipse;whiteSpace=wrap;html=1;aspect=fixed;fillColor=#f0a30a;fontColor=#000000;strokeColor=#BD7000;" parent="JHuxcT3J-h0tU2cZwM6Y-390" vertex="1">
          <mxGeometry x="565" y="577.93" width="5" height="5" as="geometry" />
        </mxCell>
        <mxCell id="JHuxcT3J-h0tU2cZwM6Y-549" value="" style="ellipse;whiteSpace=wrap;html=1;aspect=fixed;fillColor=#f0a30a;fontColor=#000000;strokeColor=#BD7000;" parent="JHuxcT3J-h0tU2cZwM6Y-390" vertex="1">
          <mxGeometry x="565" y="537.93" width="5" height="5" as="geometry" />
        </mxCell>
        <mxCell id="JHuxcT3J-h0tU2cZwM6Y-550" value="" style="ellipse;whiteSpace=wrap;html=1;aspect=fixed;fillColor=#f0a30a;fontColor=#000000;strokeColor=#BD7000;" parent="JHuxcT3J-h0tU2cZwM6Y-390" vertex="1">
          <mxGeometry x="565" y="497.93" width="5" height="5" as="geometry" />
        </mxCell>
        <mxCell id="JHuxcT3J-h0tU2cZwM6Y-551" value="" style="ellipse;whiteSpace=wrap;html=1;aspect=fixed;fillColor=#f0a30a;fontColor=#000000;strokeColor=#BD7000;" parent="JHuxcT3J-h0tU2cZwM6Y-390" vertex="1">
          <mxGeometry x="565" y="457.93" width="5" height="5" as="geometry" />
        </mxCell>
        <mxCell id="JHuxcT3J-h0tU2cZwM6Y-552" value="" style="ellipse;whiteSpace=wrap;html=1;aspect=fixed;fillColor=#f0a30a;fontColor=#000000;strokeColor=#BD7000;" parent="JHuxcT3J-h0tU2cZwM6Y-390" vertex="1">
          <mxGeometry x="565" y="417.93" width="5" height="5" as="geometry" />
        </mxCell>
        <mxCell id="JHuxcT3J-h0tU2cZwM6Y-553" value="" style="ellipse;whiteSpace=wrap;html=1;aspect=fixed;fillColor=#f0a30a;fontColor=#000000;strokeColor=#BD7000;" parent="JHuxcT3J-h0tU2cZwM6Y-390" vertex="1">
          <mxGeometry x="565" y="377.93" width="5" height="5" as="geometry" />
        </mxCell>
        <mxCell id="JHuxcT3J-h0tU2cZwM6Y-554" value="" style="ellipse;whiteSpace=wrap;html=1;aspect=fixed;fillColor=#f0a30a;fontColor=#000000;strokeColor=#BD7000;" parent="JHuxcT3J-h0tU2cZwM6Y-390" vertex="1">
          <mxGeometry x="565" y="337.93" width="5" height="5" as="geometry" />
        </mxCell>
        <mxCell id="JHuxcT3J-h0tU2cZwM6Y-555" value="" style="ellipse;whiteSpace=wrap;html=1;aspect=fixed;fillColor=#f0a30a;fontColor=#000000;strokeColor=#BD7000;" parent="JHuxcT3J-h0tU2cZwM6Y-390" vertex="1">
          <mxGeometry x="565" y="297.93" width="5" height="5" as="geometry" />
        </mxCell>
        <mxCell id="JHuxcT3J-h0tU2cZwM6Y-556" value="" style="ellipse;whiteSpace=wrap;html=1;aspect=fixed;fillColor=#f0a30a;fontColor=#000000;strokeColor=#BD7000;" parent="JHuxcT3J-h0tU2cZwM6Y-390" vertex="1">
          <mxGeometry x="565" y="257.93" width="5" height="5" as="geometry" />
        </mxCell>
        <mxCell id="JHuxcT3J-h0tU2cZwM6Y-557" value="" style="ellipse;whiteSpace=wrap;html=1;aspect=fixed;fillColor=#f0a30a;fontColor=#000000;strokeColor=#BD7000;" parent="JHuxcT3J-h0tU2cZwM6Y-390" vertex="1">
          <mxGeometry x="565" y="217.93" width="5" height="5" as="geometry" />
        </mxCell>
        <mxCell id="JHuxcT3J-h0tU2cZwM6Y-558" value="" style="ellipse;whiteSpace=wrap;html=1;aspect=fixed;fillColor=#f0a30a;fontColor=#000000;strokeColor=#BD7000;" parent="JHuxcT3J-h0tU2cZwM6Y-390" vertex="1">
          <mxGeometry x="565" y="177.93" width="5" height="5" as="geometry" />
        </mxCell>
        <mxCell id="JHuxcT3J-h0tU2cZwM6Y-559" value="" style="ellipse;whiteSpace=wrap;html=1;aspect=fixed;fillColor=#f0a30a;fontColor=#000000;strokeColor=#BD7000;" parent="JHuxcT3J-h0tU2cZwM6Y-390" vertex="1">
          <mxGeometry x="565" y="137.93" width="5" height="5" as="geometry" />
        </mxCell>
        <mxCell id="2Ms6hGy1cNAkD8y6Jtei-19" value="6x" style="text;html=1;align=center;verticalAlign=middle;resizable=0;points=[];autosize=1;strokeColor=none;fillColor=none;" parent="JHuxcT3J-h0tU2cZwM6Y-390" vertex="1">
          <mxGeometry x="8" y="410" width="40" height="30" as="geometry" />
        </mxCell>
        <mxCell id="2Ms6hGy1cNAkD8y6Jtei-20" value="16x" style="text;html=1;align=center;verticalAlign=middle;resizable=0;points=[];autosize=1;strokeColor=none;fillColor=none;" parent="JHuxcT3J-h0tU2cZwM6Y-390" vertex="1">
          <mxGeometry y="303.93" width="40" height="30" as="geometry" />
        </mxCell>
        <mxCell id="JHuxcT3J-h0tU2cZwM6Y-560" value="Linha Abacaxi" parent="0" />
        <mxCell id="JHuxcT3J-h0tU2cZwM6Y-561" value="A" style="ellipse;whiteSpace=wrap;html=1;aspect=fixed;strokeColor=#B20000;fillColor=#000000;fontColor=#ffffff;" parent="JHuxcT3J-h0tU2cZwM6Y-560" vertex="1">
          <mxGeometry x="40" y="510" width="20" height="20" as="geometry" />
        </mxCell>
        <mxCell id="JHuxcT3J-h0tU2cZwM6Y-562" value="Abacaxi" style="text;html=1;align=left;verticalAlign=middle;resizable=0;points=[];autosize=1;strokeColor=none;fillColor=none;" parent="JHuxcT3J-h0tU2cZwM6Y-560" vertex="1">
          <mxGeometry x="70" y="505" width="70" height="30" as="geometry" />
        </mxCell>
        <mxCell id="JHuxcT3J-h0tU2cZwM6Y-563" value="A" style="ellipse;whiteSpace=wrap;html=1;aspect=fixed;strokeColor=#B20000;fillColor=#000000;fontColor=#ffffff;" parent="JHuxcT3J-h0tU2cZwM6Y-560" vertex="1">
          <mxGeometry x="510" y="750" width="20" height="20" as="geometry" />
        </mxCell>
        <mxCell id="JHuxcT3J-h0tU2cZwM6Y-564" value="A" style="ellipse;whiteSpace=wrap;html=1;aspect=fixed;strokeColor=#B20000;fillColor=#000000;fontColor=#ffffff;" parent="JHuxcT3J-h0tU2cZwM6Y-560" vertex="1">
          <mxGeometry x="510" y="710" width="20" height="20" as="geometry" />
        </mxCell>
        <mxCell id="JHuxcT3J-h0tU2cZwM6Y-565" value="A" style="ellipse;whiteSpace=wrap;html=1;aspect=fixed;strokeColor=#B20000;fillColor=#000000;fontColor=#ffffff;" parent="JHuxcT3J-h0tU2cZwM6Y-560" vertex="1">
          <mxGeometry x="510" y="670" width="20" height="20" as="geometry" />
        </mxCell>
        <mxCell id="JHuxcT3J-h0tU2cZwM6Y-566" value="A" style="ellipse;whiteSpace=wrap;html=1;aspect=fixed;strokeColor=#B20000;fillColor=#000000;fontColor=#ffffff;" parent="JHuxcT3J-h0tU2cZwM6Y-560" vertex="1">
          <mxGeometry x="510" y="630" width="20" height="20" as="geometry" />
        </mxCell>
        <mxCell id="JHuxcT3J-h0tU2cZwM6Y-567" value="A" style="ellipse;whiteSpace=wrap;html=1;aspect=fixed;strokeColor=#B20000;fillColor=#000000;fontColor=#ffffff;" parent="JHuxcT3J-h0tU2cZwM6Y-560" vertex="1">
          <mxGeometry x="510" y="590" width="20" height="20" as="geometry" />
        </mxCell>
        <mxCell id="JHuxcT3J-h0tU2cZwM6Y-568" value="A" style="ellipse;whiteSpace=wrap;html=1;aspect=fixed;strokeColor=#B20000;fillColor=#000000;fontColor=#ffffff;" parent="JHuxcT3J-h0tU2cZwM6Y-560" vertex="1">
          <mxGeometry x="510" y="550" width="20" height="20" as="geometry" />
        </mxCell>
        <mxCell id="JHuxcT3J-h0tU2cZwM6Y-569" value="A" style="ellipse;whiteSpace=wrap;html=1;aspect=fixed;strokeColor=#B20000;fillColor=#000000;fontColor=#ffffff;" parent="JHuxcT3J-h0tU2cZwM6Y-560" vertex="1">
          <mxGeometry x="510" y="510" width="20" height="20" as="geometry" />
        </mxCell>
        <mxCell id="JHuxcT3J-h0tU2cZwM6Y-570" value="A" style="ellipse;whiteSpace=wrap;html=1;aspect=fixed;strokeColor=#B20000;fillColor=#000000;fontColor=#ffffff;" parent="JHuxcT3J-h0tU2cZwM6Y-560" vertex="1">
          <mxGeometry x="510" y="470" width="20" height="20" as="geometry" />
        </mxCell>
        <mxCell id="JHuxcT3J-h0tU2cZwM6Y-571" value="A" style="ellipse;whiteSpace=wrap;html=1;aspect=fixed;strokeColor=#B20000;fillColor=#000000;fontColor=#ffffff;" parent="JHuxcT3J-h0tU2cZwM6Y-560" vertex="1">
          <mxGeometry x="510" y="430" width="20" height="20" as="geometry" />
        </mxCell>
        <mxCell id="JHuxcT3J-h0tU2cZwM6Y-572" value="A" style="ellipse;whiteSpace=wrap;html=1;aspect=fixed;strokeColor=#B20000;fillColor=#000000;fontColor=#ffffff;" parent="JHuxcT3J-h0tU2cZwM6Y-560" vertex="1">
          <mxGeometry x="510" y="390" width="20" height="20" as="geometry" />
        </mxCell>
        <mxCell id="JHuxcT3J-h0tU2cZwM6Y-573" value="A" style="ellipse;whiteSpace=wrap;html=1;aspect=fixed;strokeColor=#B20000;fillColor=#000000;fontColor=#ffffff;" parent="JHuxcT3J-h0tU2cZwM6Y-560" vertex="1">
          <mxGeometry x="510" y="350" width="20" height="20" as="geometry" />
        </mxCell>
        <mxCell id="JHuxcT3J-h0tU2cZwM6Y-574" value="A" style="ellipse;whiteSpace=wrap;html=1;aspect=fixed;strokeColor=#B20000;fillColor=#000000;fontColor=#ffffff;" parent="JHuxcT3J-h0tU2cZwM6Y-560" vertex="1">
          <mxGeometry x="510" y="310" width="20" height="20" as="geometry" />
        </mxCell>
        <mxCell id="JHuxcT3J-h0tU2cZwM6Y-575" value="A" style="ellipse;whiteSpace=wrap;html=1;aspect=fixed;strokeColor=#B20000;fillColor=#000000;fontColor=#ffffff;" parent="JHuxcT3J-h0tU2cZwM6Y-560" vertex="1">
          <mxGeometry x="510" y="270" width="20" height="20" as="geometry" />
        </mxCell>
        <mxCell id="JHuxcT3J-h0tU2cZwM6Y-576" value="A" style="ellipse;whiteSpace=wrap;html=1;aspect=fixed;strokeColor=#B20000;fillColor=#000000;fontColor=#ffffff;" parent="JHuxcT3J-h0tU2cZwM6Y-560" vertex="1">
          <mxGeometry x="510" y="230" width="20" height="20" as="geometry" />
        </mxCell>
        <mxCell id="JHuxcT3J-h0tU2cZwM6Y-577" value="A" style="ellipse;whiteSpace=wrap;html=1;aspect=fixed;strokeColor=#B20000;fillColor=#000000;fontColor=#ffffff;" parent="JHuxcT3J-h0tU2cZwM6Y-560" vertex="1">
          <mxGeometry x="510" y="190" width="20" height="20" as="geometry" />
        </mxCell>
        <mxCell id="JHuxcT3J-h0tU2cZwM6Y-578" value="A" style="ellipse;whiteSpace=wrap;html=1;aspect=fixed;strokeColor=#B20000;fillColor=#000000;fontColor=#ffffff;" parent="JHuxcT3J-h0tU2cZwM6Y-560" vertex="1">
          <mxGeometry x="510" y="150" width="20" height="20" as="geometry" />
        </mxCell>
        <mxCell id="JHuxcT3J-h0tU2cZwM6Y-579" value="A" style="ellipse;whiteSpace=wrap;html=1;aspect=fixed;strokeColor=#B20000;fillColor=#000000;fontColor=#ffffff;" parent="JHuxcT3J-h0tU2cZwM6Y-560" vertex="1">
          <mxGeometry x="510" y="110" width="20" height="20" as="geometry" />
        </mxCell>
        <mxCell id="JHuxcT3J-h0tU2cZwM6Y-580" value="G" style="ellipse;whiteSpace=wrap;html=1;aspect=fixed;strokeColor=#36393d;fillColor=#ffff88;" parent="JHuxcT3J-h0tU2cZwM6Y-560" vertex="1">
          <mxGeometry x="40" y="535" width="20" height="20" as="geometry" />
        </mxCell>
        <mxCell id="JHuxcT3J-h0tU2cZwM6Y-581" value="Gliricidia" style="text;html=1;align=left;verticalAlign=middle;resizable=0;points=[];autosize=1;strokeColor=none;fillColor=none;" parent="JHuxcT3J-h0tU2cZwM6Y-560" vertex="1">
          <mxGeometry x="70" y="530" width="70" height="30" as="geometry" />
        </mxCell>
        <mxCell id="JHuxcT3J-h0tU2cZwM6Y-582" value="G" style="ellipse;whiteSpace=wrap;html=1;aspect=fixed;strokeColor=#36393d;fillColor=#ffff88;" parent="JHuxcT3J-h0tU2cZwM6Y-560" vertex="1">
          <mxGeometry x="510" y="530" width="20" height="20" as="geometry" />
        </mxCell>
        <mxCell id="JHuxcT3J-h0tU2cZwM6Y-583" value="G" style="ellipse;whiteSpace=wrap;html=1;aspect=fixed;strokeColor=#36393d;fillColor=#ffff88;" parent="JHuxcT3J-h0tU2cZwM6Y-560" vertex="1">
          <mxGeometry x="510" y="570" width="20" height="20" as="geometry" />
        </mxCell>
        <mxCell id="JHuxcT3J-h0tU2cZwM6Y-584" value="G" style="ellipse;whiteSpace=wrap;html=1;aspect=fixed;strokeColor=#36393d;fillColor=#ffff88;" parent="JHuxcT3J-h0tU2cZwM6Y-560" vertex="1">
          <mxGeometry x="510" y="610" width="20" height="20" as="geometry" />
        </mxCell>
        <mxCell id="JHuxcT3J-h0tU2cZwM6Y-585" value="G" style="ellipse;whiteSpace=wrap;html=1;aspect=fixed;strokeColor=#36393d;fillColor=#ffff88;" parent="JHuxcT3J-h0tU2cZwM6Y-560" vertex="1">
          <mxGeometry x="510" y="650" width="20" height="20" as="geometry" />
        </mxCell>
        <mxCell id="JHuxcT3J-h0tU2cZwM6Y-586" value="G" style="ellipse;whiteSpace=wrap;html=1;aspect=fixed;strokeColor=#36393d;fillColor=#ffff88;" parent="JHuxcT3J-h0tU2cZwM6Y-560" vertex="1">
          <mxGeometry x="510" y="690" width="20" height="20" as="geometry" />
        </mxCell>
        <mxCell id="JHuxcT3J-h0tU2cZwM6Y-587" value="G" style="ellipse;whiteSpace=wrap;html=1;aspect=fixed;strokeColor=#36393d;fillColor=#ffff88;" parent="JHuxcT3J-h0tU2cZwM6Y-560" vertex="1">
          <mxGeometry x="510" y="730" width="20" height="20" as="geometry" />
        </mxCell>
        <mxCell id="JHuxcT3J-h0tU2cZwM6Y-588" value="G" style="ellipse;whiteSpace=wrap;html=1;aspect=fixed;strokeColor=#36393d;fillColor=#ffff88;" parent="JHuxcT3J-h0tU2cZwM6Y-560" vertex="1">
          <mxGeometry x="510" y="490" width="20" height="20" as="geometry" />
        </mxCell>
        <mxCell id="JHuxcT3J-h0tU2cZwM6Y-589" value="G" style="ellipse;whiteSpace=wrap;html=1;aspect=fixed;strokeColor=#36393d;fillColor=#ffff88;" parent="JHuxcT3J-h0tU2cZwM6Y-560" vertex="1">
          <mxGeometry x="510" y="450" width="20" height="20" as="geometry" />
        </mxCell>
        <mxCell id="JHuxcT3J-h0tU2cZwM6Y-590" value="G" style="ellipse;whiteSpace=wrap;html=1;aspect=fixed;strokeColor=#36393d;fillColor=#ffff88;" parent="JHuxcT3J-h0tU2cZwM6Y-560" vertex="1">
          <mxGeometry x="510" y="410" width="20" height="20" as="geometry" />
        </mxCell>
        <mxCell id="JHuxcT3J-h0tU2cZwM6Y-591" value="G" style="ellipse;whiteSpace=wrap;html=1;aspect=fixed;strokeColor=#36393d;fillColor=#ffff88;" parent="JHuxcT3J-h0tU2cZwM6Y-560" vertex="1">
          <mxGeometry x="510" y="370" width="20" height="20" as="geometry" />
        </mxCell>
        <mxCell id="JHuxcT3J-h0tU2cZwM6Y-592" value="G" style="ellipse;whiteSpace=wrap;html=1;aspect=fixed;strokeColor=#36393d;fillColor=#ffff88;" parent="JHuxcT3J-h0tU2cZwM6Y-560" vertex="1">
          <mxGeometry x="510" y="330" width="20" height="20" as="geometry" />
        </mxCell>
        <mxCell id="JHuxcT3J-h0tU2cZwM6Y-593" value="G" style="ellipse;whiteSpace=wrap;html=1;aspect=fixed;strokeColor=#36393d;fillColor=#ffff88;" parent="JHuxcT3J-h0tU2cZwM6Y-560" vertex="1">
          <mxGeometry x="510" y="290" width="20" height="20" as="geometry" />
        </mxCell>
        <mxCell id="JHuxcT3J-h0tU2cZwM6Y-594" value="G" style="ellipse;whiteSpace=wrap;html=1;aspect=fixed;strokeColor=#36393d;fillColor=#ffff88;" parent="JHuxcT3J-h0tU2cZwM6Y-560" vertex="1">
          <mxGeometry x="510" y="250" width="20" height="20" as="geometry" />
        </mxCell>
        <mxCell id="JHuxcT3J-h0tU2cZwM6Y-595" value="G" style="ellipse;whiteSpace=wrap;html=1;aspect=fixed;strokeColor=#36393d;fillColor=#ffff88;" parent="JHuxcT3J-h0tU2cZwM6Y-560" vertex="1">
          <mxGeometry x="510" y="210" width="20" height="20" as="geometry" />
        </mxCell>
        <mxCell id="JHuxcT3J-h0tU2cZwM6Y-596" value="G" style="ellipse;whiteSpace=wrap;html=1;aspect=fixed;strokeColor=#36393d;fillColor=#ffff88;" parent="JHuxcT3J-h0tU2cZwM6Y-560" vertex="1">
          <mxGeometry x="510" y="170" width="20" height="20" as="geometry" />
        </mxCell>
        <mxCell id="JHuxcT3J-h0tU2cZwM6Y-597" value="G" style="ellipse;whiteSpace=wrap;html=1;aspect=fixed;strokeColor=#36393d;fillColor=#ffff88;" parent="JHuxcT3J-h0tU2cZwM6Y-560" vertex="1">
          <mxGeometry x="510" y="130" width="20" height="20" as="geometry" />
        </mxCell>
      </root>
    </mxGraphModel>
  </diagram>
  <diagram id="mO3zfyklITBXGNU7xB83" name="Efetivamente plantado">
    <mxGraphModel dx="976" dy="743" grid="1" gridSize="10" guides="1" tooltips="1" connect="1" arrows="1" fold="1" page="1" pageScale="1" pageWidth="827" pageHeight="1169" math="0" shadow="0">
      <root>
        <mxCell id="0" />
        <mxCell id="1" parent="0" />
        <mxCell id="bBp3CcxReZf-BwdW5Ul_-1" value="" style="rounded=1;whiteSpace=wrap;html=1;arcSize=4;imageHeight=24;dashed=1;dashPattern=1 1;" parent="1" vertex="1">
          <mxGeometry x="280" y="80" width="480" height="600" as="geometry" />
        </mxCell>
        <mxCell id="xsQzcYcw_pQsXOeXIUhO-1" value="" style="rounded=0;whiteSpace=wrap;html=1;dashed=1;dashPattern=1 2;fontSize=14;fillColor=none;gradientColor=default;spacing=2;" parent="1" vertex="1">
          <mxGeometry x="320" y="120" width="400" height="40" as="geometry" />
        </mxCell>
        <mxCell id="FrHUNly10IG96oTwMMSK-37" value="" style="ellipse;whiteSpace=wrap;html=1;strokeColor=#3700CC;fillColor=#6a00ff;fontColor=#ffffff;" parent="1" vertex="1">
          <mxGeometry x="420" y="135" width="40" height="10" as="geometry" />
        </mxCell>
        <mxCell id="FrHUNly10IG96oTwMMSK-38" value="" style="ellipse;whiteSpace=wrap;html=1;strokeColor=#3700CC;fillColor=#6a00ff;fontColor=#ffffff;" parent="1" vertex="1">
          <mxGeometry x="500" y="135" width="40" height="10" as="geometry" />
        </mxCell>
        <mxCell id="FrHUNly10IG96oTwMMSK-39" value="" style="ellipse;whiteSpace=wrap;html=1;strokeColor=#3700CC;fillColor=#6a00ff;fontColor=#ffffff;" parent="1" vertex="1">
          <mxGeometry x="580" y="135" width="40" height="10" as="geometry" />
        </mxCell>
        <mxCell id="FrHUNly10IG96oTwMMSK-40" value="" style="ellipse;whiteSpace=wrap;html=1;strokeColor=#3700CC;fillColor=#6a00ff;fontColor=#ffffff;" parent="1" vertex="1">
          <mxGeometry x="660" y="135" width="40" height="10" as="geometry" />
        </mxCell>
        <mxCell id="FrHUNly10IG96oTwMMSK-36" value="" style="ellipse;whiteSpace=wrap;html=1;strokeColor=#3700CC;fillColor=#6a00ff;fontColor=#ffffff;" parent="1" vertex="1">
          <mxGeometry x="340" y="135" width="40" height="10" as="geometry" />
        </mxCell>
        <mxCell id="bBp3CcxReZf-BwdW5Ul_-9" value="" style="endArrow=classic;startArrow=classic;html=1;rounded=0;" parent="1" edge="1">
          <mxGeometry width="50" height="50" relative="1" as="geometry">
            <mxPoint x="780" y="480" as="sourcePoint" />
            <mxPoint x="780" y="120" as="targetPoint" />
          </mxGeometry>
        </mxCell>
        <mxCell id="bBp3CcxReZf-BwdW5Ul_-10" value="ca. 8m" style="edgeLabel;html=1;align=center;verticalAlign=middle;resizable=0;points=[];" parent="bBp3CcxReZf-BwdW5Ul_-9" vertex="1" connectable="0">
          <mxGeometry x="0.0615" y="1" relative="1" as="geometry">
            <mxPoint y="6" as="offset" />
          </mxGeometry>
        </mxCell>
        <mxCell id="bBp3CcxReZf-BwdW5Ul_-11" value="1m" style="endArrow=classic;startArrow=classic;html=1;rounded=0;" parent="1" edge="1">
          <mxGeometry width="50" height="50" relative="1" as="geometry">
            <mxPoint x="600" y="60" as="sourcePoint" />
            <mxPoint x="560" y="60" as="targetPoint" />
          </mxGeometry>
        </mxCell>
        <mxCell id="bBp3CcxReZf-BwdW5Ul_-12" value="10m" style="endArrow=classic;startArrow=classic;html=1;rounded=0;" parent="1" edge="1">
          <mxGeometry width="50" height="50" relative="1" as="geometry">
            <mxPoint x="720" y="40" as="sourcePoint" />
            <mxPoint x="320" y="40" as="targetPoint" />
          </mxGeometry>
        </mxCell>
        <mxCell id="bBp3CcxReZf-BwdW5Ul_-16" value="Supporte ao solo:&lt;br&gt;&lt;ul&gt;&lt;li&gt;Calcario&lt;/li&gt;&lt;li&gt;Cama de galinha&lt;/li&gt;&lt;li&gt;PÃ³ de rocha&lt;/li&gt;&lt;/ul&gt;" style="text;html=1;align=left;verticalAlign=middle;resizable=0;points=[];autosize=1;strokeColor=none;fillColor=none;" parent="1" vertex="1">
          <mxGeometry x="30" y="700" width="150" height="100" as="geometry" />
        </mxCell>
        <mxCell id="bBp3CcxReZf-BwdW5Ul_-20" value="M" style="ellipse;whiteSpace=wrap;html=1;aspect=fixed;strokeColor=#82b366;fillColor=#d5e8d4;" parent="1" vertex="1">
          <mxGeometry x="40" y="185" width="20" height="20" as="geometry" />
        </mxCell>
        <mxCell id="bBp3CcxReZf-BwdW5Ul_-21" value="Mandacaru sem espinho" style="text;html=1;align=left;verticalAlign=middle;resizable=0;points=[];autosize=1;strokeColor=none;fillColor=none;" parent="1" vertex="1">
          <mxGeometry x="70" y="180" width="150" height="30" as="geometry" />
        </mxCell>
        <mxCell id="bBp3CcxReZf-BwdW5Ul_-22" value="P" style="ellipse;whiteSpace=wrap;html=1;aspect=fixed;strokeColor=#d6b656;fillColor=#fff2cc;" parent="1" vertex="1">
          <mxGeometry x="40" y="210" width="20" height="20" as="geometry" />
        </mxCell>
        <mxCell id="bBp3CcxReZf-BwdW5Ul_-23" value="Palma Forrageira" style="text;html=1;align=left;verticalAlign=middle;resizable=0;points=[];autosize=1;strokeColor=none;fillColor=none;" parent="1" vertex="1">
          <mxGeometry x="70" y="205" width="120" height="30" as="geometry" />
        </mxCell>
        <mxCell id="bBp3CcxReZf-BwdW5Ul_-80" value="?x" style="text;html=1;align=center;verticalAlign=middle;resizable=0;points=[];autosize=1;strokeColor=none;fillColor=none;" parent="1" vertex="1">
          <mxGeometry x="8" y="205" width="40" height="30" as="geometry" />
        </mxCell>
        <mxCell id="bBp3CcxReZf-BwdW5Ul_-81" value="2x" style="text;html=1;align=center;verticalAlign=middle;resizable=0;points=[];autosize=1;strokeColor=none;fillColor=none;" parent="1" vertex="1">
          <mxGeometry x="9" y="180" width="40" height="30" as="geometry" />
        </mxCell>
        <mxCell id="bBp3CcxReZf-BwdW5Ul_-107" value="B" style="ellipse;whiteSpace=wrap;html=1;aspect=fixed;strokeColor=#6c8ebf;fillColor=#dae8fc;" parent="1" vertex="1">
          <mxGeometry x="40" y="235" width="20" height="20" as="geometry" />
        </mxCell>
        <mxCell id="bBp3CcxReZf-BwdW5Ul_-108" value="Banana (p=preparada, s=s/preparo)" style="text;html=1;align=left;verticalAlign=middle;resizable=0;points=[];autosize=1;strokeColor=none;fillColor=none;" parent="1" vertex="1">
          <mxGeometry x="70" y="230" width="210" height="30" as="geometry" />
        </mxCell>
        <mxCell id="bBp3CcxReZf-BwdW5Ul_-109" value="E" style="ellipse;whiteSpace=wrap;html=1;aspect=fixed;strokeColor=#005700;fillColor=#008a00;fontColor=#ffffff;" parent="1" vertex="1">
          <mxGeometry x="40" y="260" width="20" height="20" as="geometry" />
        </mxCell>
        <mxCell id="bBp3CcxReZf-BwdW5Ul_-110" value="Eucalipto" style="text;html=1;align=left;verticalAlign=middle;resizable=0;points=[];autosize=1;strokeColor=none;fillColor=none;" parent="1" vertex="1">
          <mxGeometry x="70" y="255" width="70" height="30" as="geometry" />
        </mxCell>
        <mxCell id="bBp3CcxReZf-BwdW5Ul_-111" value="C" style="ellipse;whiteSpace=wrap;html=1;aspect=fixed;strokeColor=#BD7000;fillColor=#f0a30a;fontColor=#000000;" parent="1" vertex="1">
          <mxGeometry x="40" y="285" width="20" height="20" as="geometry" />
        </mxCell>
        <mxCell id="bBp3CcxReZf-BwdW5Ul_-112" value="Citrico" style="text;html=1;align=left;verticalAlign=middle;resizable=0;points=[];autosize=1;strokeColor=none;fillColor=none;" parent="1" vertex="1">
          <mxGeometry x="70" y="280" width="60" height="30" as="geometry" />
        </mxCell>
        <mxCell id="bBp3CcxReZf-BwdW5Ul_-113" value="Muvuca" style="text;html=1;align=left;verticalAlign=middle;resizable=0;points=[];autosize=1;strokeColor=none;fillColor=none;" parent="1" vertex="1">
          <mxGeometry x="70" y="305" width="70" height="30" as="geometry" />
        </mxCell>
        <mxCell id="bBp3CcxReZf-BwdW5Ul_-114" value="Feijao de porco" style="text;html=1;align=left;verticalAlign=middle;resizable=0;points=[];autosize=1;strokeColor=none;fillColor=none;" parent="1" vertex="1">
          <mxGeometry x="70" y="330" width="110" height="30" as="geometry" />
        </mxCell>
        <mxCell id="bBp3CcxReZf-BwdW5Ul_-115" value="Milho" style="text;html=1;align=left;verticalAlign=middle;resizable=0;points=[];autosize=1;strokeColor=none;fillColor=none;" parent="1" vertex="1">
          <mxGeometry x="70" y="355" width="50" height="30" as="geometry" />
        </mxCell>
        <mxCell id="bBp3CcxReZf-BwdW5Ul_-116" value="Macaxeira" style="text;html=1;align=left;verticalAlign=middle;resizable=0;points=[];autosize=1;strokeColor=none;fillColor=none;" parent="1" vertex="1">
          <mxGeometry x="70" y="380" width="80" height="30" as="geometry" />
        </mxCell>
        <mxCell id="bBp3CcxReZf-BwdW5Ul_-134" value="" style="ellipse;whiteSpace=wrap;html=1;strokeColor=#3700CC;fillColor=#6a00ff;fontColor=#ffffff;" parent="1" vertex="1">
          <mxGeometry x="30" y="315" width="40" height="10" as="geometry" />
        </mxCell>
        <mxCell id="bBp3CcxReZf-BwdW5Ul_-135" value="" style="rhombus;whiteSpace=wrap;html=1;strokeColor=#2D7600;fillColor=#60a917;fontColor=#ffffff;" parent="1" vertex="1">
          <mxGeometry x="45" y="340" width="10" height="10" as="geometry" />
        </mxCell>
        <mxCell id="bBp3CcxReZf-BwdW5Ul_-162" value="" style="endArrow=none;html=1;rounded=0;strokeWidth=4;fillColor=#e51400;strokeColor=#B20000;" parent="1" edge="1">
          <mxGeometry width="50" height="50" relative="1" as="geometry">
            <mxPoint x="40" y="370" as="sourcePoint" />
            <mxPoint x="60" y="370" as="targetPoint" />
          </mxGeometry>
        </mxCell>
        <mxCell id="bBp3CcxReZf-BwdW5Ul_-179" value="" style="endArrow=none;html=1;rounded=0;strokeWidth=5;fillColor=#ffcc99;strokeColor=#FFCC99;" parent="1" edge="1">
          <mxGeometry width="50" height="50" relative="1" as="geometry">
            <mxPoint x="45" y="390" as="sourcePoint" />
            <mxPoint x="55" y="400" as="targetPoint" />
          </mxGeometry>
        </mxCell>
        <mxCell id="bBp3CcxReZf-BwdW5Ul_-263" value="6x" style="text;html=1;align=center;verticalAlign=middle;resizable=0;points=[];autosize=1;strokeColor=none;fillColor=none;" parent="1" vertex="1">
          <mxGeometry x="8" y="229" width="40" height="30" as="geometry" />
        </mxCell>
        <mxCell id="bBp3CcxReZf-BwdW5Ul_-264" value="16x" style="text;html=1;align=center;verticalAlign=middle;resizable=0;points=[];autosize=1;strokeColor=none;fillColor=none;" parent="1" vertex="1">
          <mxGeometry x="8" y="254" width="40" height="30" as="geometry" />
        </mxCell>
        <mxCell id="bBp3CcxReZf-BwdW5Ul_-265" value="8x" style="text;html=1;align=center;verticalAlign=middle;resizable=0;points=[];autosize=1;strokeColor=none;fillColor=none;" parent="1" vertex="1">
          <mxGeometry x="9" y="279" width="40" height="30" as="geometry" />
        </mxCell>
        <mxCell id="bBp3CcxReZf-BwdW5Ul_-266" value="?" style="text;html=1;align=center;verticalAlign=middle;resizable=0;points=[];autosize=1;strokeColor=none;fillColor=none;" parent="1" vertex="1">
          <mxGeometry x="15" y="329" width="30" height="30" as="geometry" />
        </mxCell>
        <mxCell id="bBp3CcxReZf-BwdW5Ul_-267" value="M" style="ellipse;whiteSpace=wrap;html=1;aspect=fixed;strokeColor=#666666;fillColor=#f5f5f5;gradientColor=#b3b3b3;" parent="1" vertex="1">
          <mxGeometry x="40" y="415" width="20" height="20" as="geometry" />
        </mxCell>
        <mxCell id="bBp3CcxReZf-BwdW5Ul_-268" value="Mamao" style="text;html=1;align=left;verticalAlign=middle;resizable=0;points=[];autosize=1;strokeColor=none;fillColor=none;" parent="1" vertex="1">
          <mxGeometry x="70" y="410" width="60" height="30" as="geometry" />
        </mxCell>
        <mxCell id="bBp3CcxReZf-BwdW5Ul_-269" value="C" style="ellipse;whiteSpace=wrap;html=1;aspect=fixed;strokeColor=#B20000;fillColor=#e51400;fontColor=#ffffff;" parent="1" vertex="1">
          <mxGeometry x="40" y="440" width="20" height="20" as="geometry" />
        </mxCell>
        <mxCell id="bBp3CcxReZf-BwdW5Ul_-270" value="Coco Anao" style="text;html=1;align=left;verticalAlign=middle;resizable=0;points=[];autosize=1;strokeColor=none;fillColor=none;" parent="1" vertex="1">
          <mxGeometry x="70" y="435" width="80" height="30" as="geometry" />
        </mxCell>
        <mxCell id="bBp3CcxReZf-BwdW5Ul_-271" value="" style="ellipse;whiteSpace=wrap;html=1;aspect=fixed;fillColor=#000000;" parent="1" vertex="1">
          <mxGeometry x="47.5" y="472.5" width="5" height="5" as="geometry" />
        </mxCell>
        <mxCell id="bBp3CcxReZf-BwdW5Ul_-272" value="Tomatinho" style="text;html=1;align=left;verticalAlign=middle;resizable=0;points=[];autosize=1;strokeColor=none;fillColor=none;" parent="1" vertex="1">
          <mxGeometry x="70" y="460" width="80" height="30" as="geometry" />
        </mxCell>
        <mxCell id="bBp3CcxReZf-BwdW5Ul_-289" value="Milho" style="text;html=1;align=left;verticalAlign=middle;resizable=0;points=[];autosize=1;strokeColor=none;fillColor=none;" parent="1" vertex="1">
          <mxGeometry x="70" y="355" width="50" height="30" as="geometry" />
        </mxCell>
        <mxCell id="bBp3CcxReZf-BwdW5Ul_-290" value="" style="endArrow=none;html=1;rounded=0;strokeWidth=4;fillColor=#e51400;strokeColor=#B20000;" parent="1" edge="1">
          <mxGeometry width="50" height="50" relative="1" as="geometry">
            <mxPoint x="40" y="370" as="sourcePoint" />
            <mxPoint x="60" y="370" as="targetPoint" />
          </mxGeometry>
        </mxCell>
        <mxCell id="bBp3CcxReZf-BwdW5Ul_-308" value="Tomatinho berinjela jilo" style="text;html=1;align=center;verticalAlign=middle;resizable=0;points=[];autosize=1;strokeColor=none;fillColor=none;" parent="1" vertex="1">
          <mxGeometry y="660" width="150" height="30" as="geometry" />
        </mxCell>
        <mxCell id="bBp3CcxReZf-BwdW5Ul_-309" value="Como plantar: /Sustentabilidade/Agrofloresta" style="text;html=1;align=left;verticalAlign=middle;resizable=0;points=[];autosize=1;strokeColor=none;fillColor=none;" parent="1" vertex="1">
          <mxGeometry x="10" y="590" width="260" height="30" as="geometry" />
        </mxCell>
        <mxCell id="bBp3CcxReZf-BwdW5Ul_-310" value="" style="ellipse;whiteSpace=wrap;html=1;aspect=fixed;fillColor=#e3c800;fontColor=#000000;strokeColor=#B09500;" parent="1" vertex="1">
          <mxGeometry x="47.5" y="497.5" width="5" height="5" as="geometry" />
        </mxCell>
        <mxCell id="bBp3CcxReZf-BwdW5Ul_-311" value="Berinjela" style="text;html=1;align=left;verticalAlign=middle;resizable=0;points=[];autosize=1;strokeColor=none;fillColor=none;" parent="1" vertex="1">
          <mxGeometry x="70" y="485" width="70" height="30" as="geometry" />
        </mxCell>
        <mxCell id="bBp3CcxReZf-BwdW5Ul_-377" value="6x" style="text;html=1;align=center;verticalAlign=middle;resizable=0;points=[];autosize=1;strokeColor=none;fillColor=none;" parent="1" vertex="1">
          <mxGeometry x="8" y="410" width="40" height="30" as="geometry" />
        </mxCell>
        <mxCell id="bBp3CcxReZf-BwdW5Ul_-378" value="16x" style="text;html=1;align=center;verticalAlign=middle;resizable=0;points=[];autosize=1;strokeColor=none;fillColor=none;" parent="1" vertex="1">
          <mxGeometry y="303.93" width="40" height="30" as="geometry" />
        </mxCell>
        <mxCell id="bBp3CcxReZf-BwdW5Ul_-379" value="A" style="ellipse;whiteSpace=wrap;html=1;aspect=fixed;strokeColor=#B20000;fillColor=#000000;fontColor=#ffffff;" parent="1" vertex="1">
          <mxGeometry x="40" y="510" width="20" height="20" as="geometry" />
        </mxCell>
        <mxCell id="bBp3CcxReZf-BwdW5Ul_-380" value="Abacaxi" style="text;html=1;align=left;verticalAlign=middle;resizable=0;points=[];autosize=1;strokeColor=none;fillColor=none;" parent="1" vertex="1">
          <mxGeometry x="70" y="505" width="70" height="30" as="geometry" />
        </mxCell>
        <mxCell id="bBp3CcxReZf-BwdW5Ul_-398" value="G" style="ellipse;whiteSpace=wrap;html=1;aspect=fixed;strokeColor=#36393d;fillColor=#ffff88;" parent="1" vertex="1">
          <mxGeometry x="40" y="535" width="20" height="20" as="geometry" />
        </mxCell>
        <mxCell id="bBp3CcxReZf-BwdW5Ul_-399" value="Gliricidia" style="text;html=1;align=left;verticalAlign=middle;resizable=0;points=[];autosize=1;strokeColor=none;fillColor=none;" parent="1" vertex="1">
          <mxGeometry x="70" y="530" width="70" height="30" as="geometry" />
        </mxCell>
        <mxCell id="IXqRI-1DZCqr3sWKkBxc-1" value="" style="rounded=0;whiteSpace=wrap;html=1;dashed=1;dashPattern=1 2;fontSize=14;fillColor=none;gradientColor=default;spacing=2;" parent="1" vertex="1">
          <mxGeometry x="320" y="185" width="400" height="35" as="geometry" />
        </mxCell>
        <mxCell id="kXp2HtFMQDy5l6T75rRw-1" value="Bp" style="ellipse;whiteSpace=wrap;html=1;aspect=fixed;strokeColor=#6c8ebf;fillColor=#dae8fc;" parent="1" vertex="1">
          <mxGeometry x="310" y="130" width="20" height="20" as="geometry" />
        </mxCell>
        <mxCell id="yegak22okooUBsSaq_Kd-1" value="E" style="ellipse;whiteSpace=wrap;html=1;aspect=fixed;strokeColor=#005700;fillColor=#008a00;fontColor=#ffffff;" parent="1" vertex="1">
          <mxGeometry x="350" y="130" width="20" height="20" as="geometry" />
        </mxCell>
        <mxCell id="An5SlClEKBWXKZxIha_--1" value="8x" style="text;html=1;align=center;verticalAlign=middle;resizable=0;points=[];autosize=1;strokeColor=none;fillColor=none;" parent="1" vertex="1">
          <mxGeometry x="9" y="279" width="40" height="30" as="geometry" />
        </mxCell>
        <mxCell id="An5SlClEKBWXKZxIha_--2" value="C" style="ellipse;whiteSpace=wrap;html=1;aspect=fixed;strokeColor=#BD7000;fillColor=#f0a30a;fontColor=#000000;" parent="1" vertex="1">
          <mxGeometry x="390" y="130" width="20" height="20" as="geometry" />
        </mxCell>
        <mxCell id="FrHUNly10IG96oTwMMSK-1" value="E" style="ellipse;whiteSpace=wrap;html=1;aspect=fixed;strokeColor=#005700;fillColor=#008a00;fontColor=#ffffff;" parent="1" vertex="1">
          <mxGeometry x="430" y="130" width="20" height="20" as="geometry" />
        </mxCell>
        <mxCell id="FrHUNly10IG96oTwMMSK-2" value="Bp" style="ellipse;whiteSpace=wrap;html=1;aspect=fixed;strokeColor=#6c8ebf;fillColor=#dae8fc;" parent="1" vertex="1">
          <mxGeometry x="470" y="130" width="20" height="20" as="geometry" />
        </mxCell>
        <mxCell id="FrHUNly10IG96oTwMMSK-3" value="C" style="ellipse;whiteSpace=wrap;html=1;aspect=fixed;strokeColor=#BD7000;fillColor=#f0a30a;fontColor=#000000;" parent="1" vertex="1">
          <mxGeometry x="550" y="130" width="20" height="20" as="geometry" />
        </mxCell>
        <mxCell id="FrHUNly10IG96oTwMMSK-4" value="E" style="ellipse;whiteSpace=wrap;html=1;aspect=fixed;strokeColor=#005700;fillColor=#008a00;fontColor=#ffffff;" parent="1" vertex="1">
          <mxGeometry x="510" y="130" width="20" height="20" as="geometry" />
        </mxCell>
        <mxCell id="FrHUNly10IG96oTwMMSK-5" value="E" style="ellipse;whiteSpace=wrap;html=1;aspect=fixed;strokeColor=#005700;fillColor=#008a00;fontColor=#ffffff;" parent="1" vertex="1">
          <mxGeometry x="590" y="130" width="20" height="20" as="geometry" />
        </mxCell>
        <mxCell id="FrHUNly10IG96oTwMMSK-6" value="Bs" style="ellipse;whiteSpace=wrap;html=1;aspect=fixed;strokeColor=#6c8ebf;fillColor=#dae8fc;" parent="1" vertex="1">
          <mxGeometry x="630" y="130" width="20" height="20" as="geometry" />
        </mxCell>
        <mxCell id="FrHUNly10IG96oTwMMSK-7" value="E" style="ellipse;whiteSpace=wrap;html=1;aspect=fixed;strokeColor=#005700;fillColor=#008a00;fontColor=#ffffff;" parent="1" vertex="1">
          <mxGeometry x="670" y="130" width="20" height="20" as="geometry" />
        </mxCell>
        <mxCell id="FrHUNly10IG96oTwMMSK-8" value="C" style="ellipse;whiteSpace=wrap;html=1;aspect=fixed;strokeColor=#BD7000;fillColor=#f0a30a;fontColor=#000000;" parent="1" vertex="1">
          <mxGeometry x="710" y="130" width="20" height="20" as="geometry" />
        </mxCell>
        <mxCell id="FrHUNly10IG96oTwMMSK-9" value="" style="rounded=0;whiteSpace=wrap;html=1;dashed=1;dashPattern=1 2;fontSize=14;fillColor=none;gradientColor=default;spacing=2;" parent="1" vertex="1">
          <mxGeometry x="320" y="245" width="400" height="35" as="geometry" />
        </mxCell>
        <mxCell id="FrHUNly10IG96oTwMMSK-11" value="" style="rounded=0;whiteSpace=wrap;html=1;dashed=1;dashPattern=1 2;fontSize=14;fillColor=none;gradientColor=default;spacing=2;" parent="1" vertex="1">
          <mxGeometry x="320" y="305" width="400" height="35" as="geometry" />
        </mxCell>
        <mxCell id="FrHUNly10IG96oTwMMSK-23" value="" style="rounded=0;whiteSpace=wrap;html=1;dashed=1;dashPattern=1 2;fontSize=14;fillColor=none;gradientColor=default;spacing=2;" parent="1" vertex="1">
          <mxGeometry x="320" y="365" width="400" height="35" as="geometry" />
        </mxCell>
        <mxCell id="FrHUNly10IG96oTwMMSK-41" value="" style="rounded=0;whiteSpace=wrap;html=1;dashed=1;dashPattern=1 2;fontSize=14;fillColor=none;gradientColor=default;spacing=2;" parent="1" vertex="1">
          <mxGeometry x="320" y="420" width="400" height="40" as="geometry" />
        </mxCell>
        <mxCell id="FrHUNly10IG96oTwMMSK-43" value="" style="ellipse;whiteSpace=wrap;html=1;strokeColor=#3700CC;fillColor=#6a00ff;fontColor=#ffffff;" parent="1" vertex="1">
          <mxGeometry x="500" y="435" width="40" height="10" as="geometry" />
        </mxCell>
        <mxCell id="FrHUNly10IG96oTwMMSK-44" value="" style="ellipse;whiteSpace=wrap;html=1;strokeColor=#3700CC;fillColor=#6a00ff;fontColor=#ffffff;" parent="1" vertex="1">
          <mxGeometry x="580" y="435" width="40" height="10" as="geometry" />
        </mxCell>
        <mxCell id="FrHUNly10IG96oTwMMSK-45" value="" style="ellipse;whiteSpace=wrap;html=1;strokeColor=#3700CC;fillColor=#6a00ff;fontColor=#ffffff;" parent="1" vertex="1">
          <mxGeometry x="660" y="435" width="40" height="10" as="geometry" />
        </mxCell>
        <mxCell id="FrHUNly10IG96oTwMMSK-46" value="" style="ellipse;whiteSpace=wrap;html=1;strokeColor=#3700CC;fillColor=#6a00ff;fontColor=#ffffff;" parent="1" vertex="1">
          <mxGeometry x="340" y="435" width="40" height="10" as="geometry" />
        </mxCell>
        <mxCell id="FrHUNly10IG96oTwMMSK-47" value="Bp" style="ellipse;whiteSpace=wrap;html=1;aspect=fixed;strokeColor=#6c8ebf;fillColor=#dae8fc;" parent="1" vertex="1">
          <mxGeometry x="430" y="430" width="20" height="20" as="geometry" />
        </mxCell>
        <mxCell id="FrHUNly10IG96oTwMMSK-48" value="E" style="ellipse;whiteSpace=wrap;html=1;aspect=fixed;strokeColor=#005700;fillColor=#008a00;fontColor=#ffffff;" parent="1" vertex="1">
          <mxGeometry x="350" y="430" width="20" height="20" as="geometry" />
        </mxCell>
        <mxCell id="FrHUNly10IG96oTwMMSK-49" value="C" style="ellipse;whiteSpace=wrap;html=1;aspect=fixed;strokeColor=#BD7000;fillColor=#f0a30a;fontColor=#000000;" parent="1" vertex="1">
          <mxGeometry x="310" y="430" width="20" height="20" as="geometry" />
        </mxCell>
        <mxCell id="FrHUNly10IG96oTwMMSK-50" value="J" style="ellipse;whiteSpace=wrap;html=1;aspect=fixed;strokeColor=#6F0000;fillColor=#a20025;fontColor=#ffffff;" parent="1" vertex="1">
          <mxGeometry x="394" y="430" width="20" height="20" as="geometry" />
        </mxCell>
        <mxCell id="FrHUNly10IG96oTwMMSK-51" value="Bs" style="ellipse;whiteSpace=wrap;html=1;aspect=fixed;strokeColor=#6c8ebf;fillColor=#dae8fc;" parent="1" vertex="1">
          <mxGeometry x="550" y="430" width="20" height="20" as="geometry" />
        </mxCell>
        <mxCell id="FrHUNly10IG96oTwMMSK-52" value="C" style="ellipse;whiteSpace=wrap;html=1;aspect=fixed;strokeColor=#BD7000;fillColor=#f0a30a;fontColor=#000000;" parent="1" vertex="1">
          <mxGeometry x="470" y="430" width="20" height="20" as="geometry" />
        </mxCell>
        <mxCell id="FrHUNly10IG96oTwMMSK-53" value="E" style="ellipse;whiteSpace=wrap;html=1;aspect=fixed;strokeColor=#005700;fillColor=#008a00;fontColor=#ffffff;" parent="1" vertex="1">
          <mxGeometry x="510" y="430" width="20" height="20" as="geometry" />
        </mxCell>
        <mxCell id="FrHUNly10IG96oTwMMSK-54" value="E" style="ellipse;whiteSpace=wrap;html=1;aspect=fixed;strokeColor=#005700;fillColor=#008a00;fontColor=#ffffff;" parent="1" vertex="1">
          <mxGeometry x="590" y="430" width="20" height="20" as="geometry" />
        </mxCell>
        <mxCell id="FrHUNly10IG96oTwMMSK-55" value="Bp" style="ellipse;whiteSpace=wrap;html=1;aspect=fixed;strokeColor=#6c8ebf;fillColor=#dae8fc;" parent="1" vertex="1">
          <mxGeometry x="710" y="430" width="20" height="20" as="geometry" />
        </mxCell>
        <mxCell id="FrHUNly10IG96oTwMMSK-56" value="E" style="ellipse;whiteSpace=wrap;html=1;aspect=fixed;strokeColor=#005700;fillColor=#008a00;fontColor=#ffffff;" parent="1" vertex="1">
          <mxGeometry x="670" y="430" width="20" height="20" as="geometry" />
        </mxCell>
        <mxCell id="FrHUNly10IG96oTwMMSK-57" value="C" style="ellipse;whiteSpace=wrap;html=1;aspect=fixed;strokeColor=#BD7000;fillColor=#f0a30a;fontColor=#000000;" parent="1" vertex="1">
          <mxGeometry x="630" y="430" width="20" height="20" as="geometry" />
        </mxCell>
        <mxCell id="IcGRKIfF5GRLWEjF-bq5-1" value="M" style="ellipse;whiteSpace=wrap;html=1;aspect=fixed;strokeColor=#82b366;fillColor=#d5e8d4;" parent="1" vertex="1">
          <mxGeometry x="310" y="192.5" width="20" height="20" as="geometry" />
        </mxCell>
        <mxCell id="IcGRKIfF5GRLWEjF-bq5-2" value="M" style="ellipse;whiteSpace=wrap;html=1;aspect=fixed;strokeColor=#82b366;fillColor=#d5e8d4;" parent="1" vertex="1">
          <mxGeometry x="310" y="312.5" width="20" height="20" as="geometry" />
        </mxCell>
        <mxCell id="z5Dx_a0B9mhYXNRLHY4f-1" value="A" style="ellipse;whiteSpace=wrap;html=1;aspect=fixed;strokeColor=#B20000;fillColor=#000000;fontColor=#ffffff;" parent="1" vertex="1">
          <mxGeometry x="350" y="252.5" width="20" height="20" as="geometry" />
        </mxCell>
        <mxCell id="z5Dx_a0B9mhYXNRLHY4f-5" value="A" style="ellipse;whiteSpace=wrap;html=1;aspect=fixed;strokeColor=#B20000;fillColor=#000000;fontColor=#ffffff;" parent="1" vertex="1">
          <mxGeometry x="430" y="252.5" width="20" height="20" as="geometry" />
        </mxCell>
        <mxCell id="z5Dx_a0B9mhYXNRLHY4f-6" value="" style="endArrow=none;html=1;rounded=0;strokeWidth=5;fillColor=#ffcc99;strokeColor=#FFCC99;" parent="1" edge="1">
          <mxGeometry width="50" height="50" relative="1" as="geometry">
            <mxPoint x="475" y="260" as="sourcePoint" />
            <mxPoint x="485" y="270" as="targetPoint" />
          </mxGeometry>
        </mxCell>
        <mxCell id="z5Dx_a0B9mhYXNRLHY4f-13" value="CA" style="ellipse;whiteSpace=wrap;html=1;aspect=fixed;strokeColor=#B20000;fillColor=#e51400;fontColor=#ffffff;" parent="1" vertex="1">
          <mxGeometry x="390" y="252.5" width="20" height="20" as="geometry" />
        </mxCell>
        <mxCell id="z5Dx_a0B9mhYXNRLHY4f-14" value="CA" style="ellipse;whiteSpace=wrap;html=1;aspect=fixed;strokeColor=#B20000;fillColor=#e51400;fontColor=#ffffff;" parent="1" vertex="1">
          <mxGeometry x="550" y="312.5" width="20" height="20" as="geometry" />
        </mxCell>
        <mxCell id="z5Dx_a0B9mhYXNRLHY4f-15" value="P" style="ellipse;whiteSpace=wrap;html=1;aspect=fixed;strokeColor=#d6b656;fillColor=#fff2cc;" parent="1" vertex="1">
          <mxGeometry x="350" y="312.5" width="20" height="20" as="geometry" />
        </mxCell>
        <mxCell id="z5Dx_a0B9mhYXNRLHY4f-16" value="P" style="ellipse;whiteSpace=wrap;html=1;aspect=fixed;strokeColor=#d6b656;fillColor=#fff2cc;" parent="1" vertex="1">
          <mxGeometry x="390" y="312.5" width="20" height="20" as="geometry" />
        </mxCell>
        <mxCell id="z5Dx_a0B9mhYXNRLHY4f-17" value="P" style="ellipse;whiteSpace=wrap;html=1;aspect=fixed;strokeColor=#d6b656;fillColor=#fff2cc;" parent="1" vertex="1">
          <mxGeometry x="430" y="312.5" width="20" height="20" as="geometry" />
        </mxCell>
        <mxCell id="z5Dx_a0B9mhYXNRLHY4f-18" value="P" style="ellipse;whiteSpace=wrap;html=1;aspect=fixed;strokeColor=#d6b656;fillColor=#fff2cc;" parent="1" vertex="1">
          <mxGeometry x="470" y="312.5" width="20" height="20" as="geometry" />
        </mxCell>
        <mxCell id="z5Dx_a0B9mhYXNRLHY4f-19" value="P" style="ellipse;whiteSpace=wrap;html=1;aspect=fixed;strokeColor=#d6b656;fillColor=#fff2cc;" parent="1" vertex="1">
          <mxGeometry x="510" y="312.5" width="20" height="20" as="geometry" />
        </mxCell>
        <mxCell id="z5Dx_a0B9mhYXNRLHY4f-27" value="AC" style="ellipse;whiteSpace=wrap;html=1;aspect=fixed;strokeColor=#A50040;fillColor=#d80073;fontColor=#ffffff;" parent="1" vertex="1">
          <mxGeometry x="470" y="192.5" width="20" height="20" as="geometry" />
        </mxCell>
        <mxCell id="z5Dx_a0B9mhYXNRLHY4f-32" value="M" style="ellipse;whiteSpace=wrap;html=1;aspect=fixed;strokeColor=#666666;fillColor=#f5f5f5;gradientColor=#b3b3b3;" parent="1" vertex="1">
          <mxGeometry x="510" y="252.5" width="20" height="20" as="geometry" />
        </mxCell>
        <mxCell id="z5Dx_a0B9mhYXNRLHY4f-33" value="M" style="ellipse;whiteSpace=wrap;html=1;aspect=fixed;strokeColor=#666666;fillColor=#f5f5f5;gradientColor=#b3b3b3;" parent="1" vertex="1">
          <mxGeometry x="610" y="372.5" width="20" height="20" as="geometry" />
        </mxCell>
        <mxCell id="APZceCnyRrjONS-exiHB-2" value="L1" style="text;html=1;align=center;verticalAlign=middle;resizable=0;points=[];autosize=1;strokeColor=none;fillColor=none;fontSize=14;" parent="1" vertex="1">
          <mxGeometry x="230" y="115" width="40" height="30" as="geometry" />
        </mxCell>
        <mxCell id="APZceCnyRrjONS-exiHB-3" value="L6" style="text;html=1;align=center;verticalAlign=middle;resizable=0;points=[];autosize=1;strokeColor=none;fillColor=none;fontSize=14;" parent="1" vertex="1">
          <mxGeometry x="230" y="420" width="40" height="30" as="geometry" />
        </mxCell>
        <mxCell id="APZceCnyRrjONS-exiHB-4" value="m0" style="text;html=1;align=center;verticalAlign=middle;resizable=0;points=[];autosize=1;strokeColor=none;fillColor=none;fontSize=14;" parent="1" vertex="1">
          <mxGeometry x="300" y="50" width="40" height="30" as="geometry" />
        </mxCell>
        <mxCell id="APZceCnyRrjONS-exiHB-5" value="m10" style="text;html=1;align=center;verticalAlign=middle;resizable=0;points=[];autosize=1;strokeColor=none;fillColor=none;fontSize=14;" parent="1" vertex="1">
          <mxGeometry x="695" y="50" width="50" height="30" as="geometry" />
        </mxCell>
        <mxCell id="yybTKD_mRQ5h1pJL_ekW-1" value="" style="endArrow=none;html=1;rounded=0;strokeWidth=5;fillColor=#ffcc99;strokeColor=#FFCC99;" parent="1" edge="1">
          <mxGeometry width="50" height="50" relative="1" as="geometry">
            <mxPoint x="555" y="257.5" as="sourcePoint" />
            <mxPoint x="565" y="267.5" as="targetPoint" />
          </mxGeometry>
        </mxCell>
        <mxCell id="yybTKD_mRQ5h1pJL_ekW-6" value="P" style="ellipse;whiteSpace=wrap;html=1;aspect=fixed;strokeColor=#d6b656;fillColor=#fff2cc;" parent="1" vertex="1">
          <mxGeometry x="590" y="312.5" width="20" height="20" as="geometry" />
        </mxCell>
        <mxCell id="yybTKD_mRQ5h1pJL_ekW-7" value="P" style="ellipse;whiteSpace=wrap;html=1;aspect=fixed;strokeColor=#d6b656;fillColor=#fff2cc;" parent="1" vertex="1">
          <mxGeometry x="630" y="312.5" width="20" height="20" as="geometry" />
        </mxCell>
        <mxCell id="yybTKD_mRQ5h1pJL_ekW-8" value="P" style="ellipse;whiteSpace=wrap;html=1;aspect=fixed;strokeColor=#d6b656;fillColor=#fff2cc;" parent="1" vertex="1">
          <mxGeometry x="670" y="312.5" width="20" height="20" as="geometry" />
        </mxCell>
        <mxCell id="yybTKD_mRQ5h1pJL_ekW-9" value="P" style="ellipse;whiteSpace=wrap;html=1;aspect=fixed;strokeColor=#d6b656;fillColor=#fff2cc;" parent="1" vertex="1">
          <mxGeometry x="710" y="312.5" width="20" height="20" as="geometry" />
        </mxCell>
        <mxCell id="yybTKD_mRQ5h1pJL_ekW-10" value="P" style="ellipse;whiteSpace=wrap;html=1;aspect=fixed;strokeColor=#d6b656;fillColor=#fff2cc;" parent="1" vertex="1">
          <mxGeometry x="590" y="192.5" width="20" height="20" as="geometry" />
        </mxCell>
        <mxCell id="yybTKD_mRQ5h1pJL_ekW-11" value="P" style="ellipse;whiteSpace=wrap;html=1;aspect=fixed;strokeColor=#d6b656;fillColor=#fff2cc;" parent="1" vertex="1">
          <mxGeometry x="630" y="192.5" width="20" height="20" as="geometry" />
        </mxCell>
        <mxCell id="yybTKD_mRQ5h1pJL_ekW-12" value="P" style="ellipse;whiteSpace=wrap;html=1;aspect=fixed;strokeColor=#d6b656;fillColor=#fff2cc;" parent="1" vertex="1">
          <mxGeometry x="670" y="192.5" width="20" height="20" as="geometry" />
        </mxCell>
        <mxCell id="yybTKD_mRQ5h1pJL_ekW-13" value="P" style="ellipse;whiteSpace=wrap;html=1;aspect=fixed;strokeColor=#d6b656;fillColor=#fff2cc;" parent="1" vertex="1">
          <mxGeometry x="710" y="192.5" width="20" height="20" as="geometry" />
        </mxCell>
        <mxCell id="bL5fcGn-7LWbHQi0tBxk-1" value="M" style="ellipse;whiteSpace=wrap;html=1;aspect=fixed;strokeColor=#666666;fillColor=#f5f5f5;gradientColor=#b3b3b3;" parent="1" vertex="1">
          <mxGeometry x="710" y="252.5" width="20" height="20" as="geometry" />
        </mxCell>
        <mxCell id="bL5fcGn-7LWbHQi0tBxk-3" value="P" style="ellipse;whiteSpace=wrap;html=1;aspect=fixed;strokeColor=#d6b656;fillColor=#fff2cc;" parent="1" vertex="1">
          <mxGeometry x="550" y="192.5" width="20" height="20" as="geometry" />
        </mxCell>
        <mxCell id="bL5fcGn-7LWbHQi0tBxk-4" value="P" style="ellipse;whiteSpace=wrap;html=1;aspect=fixed;strokeColor=#d6b656;fillColor=#fff2cc;" parent="1" vertex="1">
          <mxGeometry x="510" y="192.5" width="20" height="20" as="geometry" />
        </mxCell>
        <mxCell id="bL5fcGn-7LWbHQi0tBxk-5" value="P" style="ellipse;whiteSpace=wrap;html=1;aspect=fixed;strokeColor=#d6b656;fillColor=#fff2cc;" parent="1" vertex="1">
          <mxGeometry x="430" y="192.5" width="20" height="20" as="geometry" />
        </mxCell>
        <mxCell id="bL5fcGn-7LWbHQi0tBxk-6" value="P" style="ellipse;whiteSpace=wrap;html=1;aspect=fixed;strokeColor=#d6b656;fillColor=#fff2cc;" parent="1" vertex="1">
          <mxGeometry x="350" y="192.5" width="20" height="20" as="geometry" />
        </mxCell>
        <mxCell id="bL5fcGn-7LWbHQi0tBxk-7" value="" style="endArrow=none;html=1;rounded=0;strokeWidth=5;fillColor=#ffcc99;strokeColor=#FFCC99;" parent="1" edge="1">
          <mxGeometry width="50" height="50" relative="1" as="geometry">
            <mxPoint x="510" y="377.5" as="sourcePoint" />
            <mxPoint x="520" y="387.5" as="targetPoint" />
          </mxGeometry>
        </mxCell>
        <mxCell id="bL5fcGn-7LWbHQi0tBxk-8" value="P" style="ellipse;whiteSpace=wrap;html=1;aspect=fixed;strokeColor=#d6b656;fillColor=#fff2cc;" parent="1" vertex="1">
          <mxGeometry x="390" y="192.5" width="20" height="20" as="geometry" />
        </mxCell>
      </root>
    </mxGraphModel>
  </diagram>
</mxfile>
